<mxfile host="app.diagrams.net" modified="2020-09-21T08:27:40.007Z" agent="5.0 (Macintosh; Intel Mac OS X 10_14_6) AppleWebKit/537.36 (KHTML, like Gecko) Chrome/85.0.4183.102 Safari/537.36" etag="dGpB1LAFMe_jnQh_hEH1" version="13.7.3" type="github" pages="13">
  <diagram id="prtHgNgQTEPvFCAcTncT" name="CurrentShuffle">
    <mxGraphModel dx="2253" dy="843" grid="1" gridSize="10" guides="1" tooltips="1" connect="1" arrows="1" fold="1" page="1" pageScale="1" pageWidth="827" pageHeight="1169" math="0" shadow="0">
      <root>
        <mxCell id="0" />
        <mxCell id="1" parent="0" />
        <mxCell id="0WnqsT4G4f4FBE-a4THo-7" value="" style="group;fontSize=17;strokeWidth=3;strokeColor=#000000;spacing=2;labelBorderColor=none;" parent="1" vertex="1" connectable="0">
          <mxGeometry x="750" y="200" width="630" height="440" as="geometry" />
        </mxCell>
        <mxCell id="0WnqsT4G4f4FBE-a4THo-8" value="" style="group;fontSize=17;strokeColor=#000000;strokeWidth=3;verticalAlign=top;" parent="1" vertex="1" connectable="0">
          <mxGeometry y="200" width="620" height="440" as="geometry" />
        </mxCell>
        <mxCell id="uJqVc2t6cVCdmSNU-RP2-2" value="&lt;font style=&quot;font-size: 23px&quot;&gt;&amp;nbsp;TaskManager&lt;/font&gt;" style="rounded=0;whiteSpace=wrap;html=1;align=left;labelPosition=center;verticalLabelPosition=middle;verticalAlign=top;fontSize=17;strokeWidth=3;" parent="1" vertex="1">
          <mxGeometry y="200" width="620.0000000000001" height="440" as="geometry" />
        </mxCell>
        <mxCell id="uJqVc2t6cVCdmSNU-RP2-4" value="&lt;font style=&quot;font-size: 17px;&quot;&gt;Result Partition&lt;/font&gt;" style="rounded=1;whiteSpace=wrap;html=1;align=center;fontSize=17;strokeWidth=3;" parent="1" vertex="1">
          <mxGeometry x="30.002307692307692" y="430.62068965517244" width="190.76923076923077" height="91.03448275862068" as="geometry" />
        </mxCell>
        <mxCell id="uJqVc2t6cVCdmSNU-RP2-7" value="&lt;font style=&quot;font-size: 21px&quot;&gt;internal shuffle service&lt;/font&gt;" style="rounded=1;whiteSpace=wrap;html=1;align=center;labelPosition=center;verticalLabelPosition=top;verticalAlign=bottom;fontSize=17;strokeWidth=3;" parent="1" vertex="1">
          <mxGeometry x="302.05128205128204" y="234.13793103448276" width="270.2564102564103" height="379.31034482758616" as="geometry" />
        </mxCell>
        <mxCell id="uJqVc2t6cVCdmSNU-RP2-9" value="&lt;font style=&quot;font-size: 17px;&quot;&gt;Result Partition&lt;br style=&quot;font-size: 17px;&quot;&gt;Manager&lt;br style=&quot;font-size: 17px;&quot;&gt;&lt;/font&gt;" style="rounded=1;whiteSpace=wrap;html=1;align=center;fontSize=17;strokeWidth=3;" parent="1" vertex="1">
          <mxGeometry x="341.7948717948718" y="291.0344827586207" width="190.76923076923077" height="91.03448275862068" as="geometry" />
        </mxCell>
        <mxCell id="uJqVc2t6cVCdmSNU-RP2-11" value="" style="endArrow=classic;html=1;dashed=1;exitX=0.75;exitY=0;exitDx=0;exitDy=0;fontSize=17;entryX=0;entryY=1;entryDx=0;entryDy=0;strokeWidth=1;" parent="1" source="uJqVc2t6cVCdmSNU-RP2-4" target="uJqVc2t6cVCdmSNU-RP2-9" edge="1">
          <mxGeometry width="50" height="50" relative="1" as="geometry">
            <mxPoint x="190.76923076923077" y="488.2758620689655" as="sourcePoint" />
            <mxPoint x="270.2564102564103" y="412.41379310344826" as="targetPoint" />
          </mxGeometry>
        </mxCell>
        <mxCell id="uJqVc2t6cVCdmSNU-RP2-20" value="&lt;span style=&quot;font-size: 17px;&quot;&gt;transport server&lt;/span&gt;" style="shape=mxgraph.bpmn.loop;html=1;outlineConnect=0;align=center;labelPosition=center;verticalLabelPosition=bottom;verticalAlign=top;fontSize=17;strokeWidth=3;" parent="1" vertex="1">
          <mxGeometry x="386.3076923076923" y="427.58620689655174" width="101.74358974358974" height="97.10344827586206" as="geometry" />
        </mxCell>
        <mxCell id="uJqVc2t6cVCdmSNU-RP2-21" style="edgeStyle=orthogonalEdgeStyle;rounded=0;orthogonalLoop=1;jettySize=auto;html=1;dashed=1;fontSize=17;" parent="1" source="uJqVc2t6cVCdmSNU-RP2-4" target="uJqVc2t6cVCdmSNU-RP2-20" edge="1">
          <mxGeometry relative="1" as="geometry" />
        </mxCell>
        <mxCell id="0WnqsT4G4f4FBE-a4THo-10" value="register shuffle" style="edgeLabel;html=1;align=center;verticalAlign=middle;resizable=0;points=[];fontSize=17;" parent="uJqVc2t6cVCdmSNU-RP2-21" vertex="1" connectable="0">
          <mxGeometry x="-0.4624" y="-3" relative="1" as="geometry">
            <mxPoint x="24.94" y="10.92" as="offset" />
          </mxGeometry>
        </mxCell>
        <mxCell id="uJqVc2t6cVCdmSNU-RP2-12" value="&lt;font style=&quot;font-size: 23px&quot;&gt;TaskManager&amp;nbsp;&lt;/font&gt;" style="rounded=0;whiteSpace=wrap;html=1;align=right;labelPosition=center;verticalLabelPosition=middle;verticalAlign=top;fontSize=17;spacing=2;labelBorderColor=none;strokeWidth=3;" parent="1" vertex="1">
          <mxGeometry x="750" y="200" width="630" height="440" as="geometry" />
        </mxCell>
        <mxCell id="uJqVc2t6cVCdmSNU-RP2-13" value="&lt;font style=&quot;font-size: 17px&quot;&gt;InputGate&lt;/font&gt;" style="rounded=1;whiteSpace=wrap;html=1;align=center;fontSize=17;spacing=2;labelBorderColor=none;strokeWidth=3;" parent="1" vertex="1">
          <mxGeometry x="1160.0023076923076" y="430.62068965517244" width="193.84615384615384" height="91.03448275862068" as="geometry" />
        </mxCell>
        <mxCell id="uJqVc2t6cVCdmSNU-RP2-14" value="&lt;font style=&quot;font-size: 22px&quot;&gt;internal shuffle service&lt;/font&gt;" style="rounded=1;whiteSpace=wrap;html=1;align=center;labelPosition=center;verticalLabelPosition=top;verticalAlign=bottom;fontSize=17;strokeWidth=3;spacing=2;labelBorderColor=none;" parent="1" vertex="1">
          <mxGeometry x="793.6153846153846" y="234.13793103448276" width="295.61538461538464" height="371.7241379310345" as="geometry" />
        </mxCell>
        <mxCell id="uJqVc2t6cVCdmSNU-RP2-15" value="&lt;font style=&quot;font-size: 17px;&quot;&gt;Result Partition&lt;br style=&quot;font-size: 17px;&quot;&gt;Manager&lt;br style=&quot;font-size: 17px;&quot;&gt;&lt;/font&gt;" style="rounded=1;whiteSpace=wrap;html=1;align=center;fontSize=17;spacing=2;labelBorderColor=none;strokeWidth=3;" parent="1" vertex="1">
          <mxGeometry x="844.5" y="291.0344827586207" width="193.84615384615384" height="91.03448275862068" as="geometry" />
        </mxCell>
        <mxCell id="uJqVc2t6cVCdmSNU-RP2-19" value="" style="endArrow=classic;html=1;dashed=1;exitX=0.25;exitY=0;exitDx=0;exitDy=0;fontSize=17;entryX=1;entryY=1;entryDx=0;entryDy=0;spacing=2;labelBorderColor=none;" parent="1" source="uJqVc2t6cVCdmSNU-RP2-13" target="uJqVc2t6cVCdmSNU-RP2-15" edge="1">
          <mxGeometry width="50" height="50" relative="1" as="geometry">
            <mxPoint x="588.4615384615385" y="427.58620689655174" as="sourcePoint" />
            <mxPoint x="1030" y="370" as="targetPoint" />
          </mxGeometry>
        </mxCell>
        <mxCell id="0WnqsT4G4f4FBE-a4THo-1" value="&lt;font style=&quot;font-size: 17px;&quot;&gt;transport client&lt;/font&gt;" style="shape=mxgraph.bpmn.loop;html=1;outlineConnect=0;align=center;labelPosition=center;verticalLabelPosition=bottom;verticalAlign=top;fontSize=17;spacing=2;labelBorderColor=none;strokeWidth=3;" parent="1" vertex="1">
          <mxGeometry x="889.7307692307693" y="427.58620689655174" width="103.38461538461539" height="97.10344827586206" as="geometry" />
        </mxCell>
        <mxCell id="0WnqsT4G4f4FBE-a4THo-4" style="edgeStyle=orthogonalEdgeStyle;rounded=0;orthogonalLoop=1;jettySize=auto;html=1;dashed=1;fontSize=17;spacing=2;labelBorderColor=none;" parent="1" source="uJqVc2t6cVCdmSNU-RP2-13" target="0WnqsT4G4f4FBE-a4THo-1" edge="1">
          <mxGeometry relative="1" as="geometry" />
        </mxCell>
        <mxCell id="0WnqsT4G4f4FBE-a4THo-14" value="request partition" style="edgeLabel;html=1;align=center;verticalAlign=middle;resizable=0;points=[];fontSize=17;spacing=2;labelBorderColor=none;" parent="0WnqsT4G4f4FBE-a4THo-4" vertex="1" connectable="0">
          <mxGeometry x="0.1844" y="-1" relative="1" as="geometry">
            <mxPoint x="13" y="14.83" as="offset" />
          </mxGeometry>
        </mxCell>
        <mxCell id="0WnqsT4G4f4FBE-a4THo-17" value="" style="endArrow=classic;startArrow=classic;html=1;fontSize=17;strokeWidth=3;shape=flexArrow;fillColor=#666666;" parent="1" source="uJqVc2t6cVCdmSNU-RP2-20" target="0WnqsT4G4f4FBE-a4THo-1" edge="1">
          <mxGeometry width="50" height="50" relative="1" as="geometry">
            <mxPoint x="740" y="550" as="sourcePoint" />
            <mxPoint x="790" y="500" as="targetPoint" />
          </mxGeometry>
        </mxCell>
      </root>
    </mxGraphModel>
  </diagram>
  <diagram id="s4OMkj2SrwgKGNudPxlE" name="ExternalShuffle">
    <mxGraphModel dx="1106" dy="755" grid="1" gridSize="10" guides="1" tooltips="1" connect="1" arrows="1" fold="1" page="1" pageScale="1" pageWidth="827" pageHeight="1169" math="0" shadow="0">
      <root>
        <mxCell id="wq5du6whX9fz6L1cCYeN-0" />
        <mxCell id="wq5du6whX9fz6L1cCYeN-1" parent="wq5du6whX9fz6L1cCYeN-0" />
        <mxCell id="neb2cFIue-ap5KmvGDe1-0" value="" style="group;fontSize=19;strokeColor=#000000;strokeWidth=3;" parent="wq5du6whX9fz6L1cCYeN-1" vertex="1" connectable="0">
          <mxGeometry x="1280" y="1140" width="630" height="440" as="geometry" />
        </mxCell>
        <mxCell id="neb2cFIue-ap5KmvGDe1-1" value="&lt;font style=&quot;font-size: 23px&quot;&gt;TaskManager&lt;/font&gt;" style="rounded=0;whiteSpace=wrap;html=1;align=left;labelPosition=center;verticalLabelPosition=top;verticalAlign=bottom;fontSize=19;strokeWidth=3;" parent="neb2cFIue-ap5KmvGDe1-0" vertex="1">
          <mxGeometry width="630" height="440" as="geometry" />
        </mxCell>
        <mxCell id="neb2cFIue-ap5KmvGDe1-2" value="&lt;font style=&quot;font-size: 19px&quot;&gt;InputGate&lt;/font&gt;" style="rounded=1;whiteSpace=wrap;html=1;align=center;fontSize=19;strokeWidth=3;" parent="neb2cFIue-ap5KmvGDe1-0" vertex="1">
          <mxGeometry x="410" y="235.31" width="171.54" height="81.66" as="geometry" />
        </mxCell>
        <mxCell id="neb2cFIue-ap5KmvGDe1-3" value="&lt;font style=&quot;font-size: 23px&quot;&gt;internal shuffle service&lt;/font&gt;" style="rounded=1;whiteSpace=wrap;html=1;align=center;labelPosition=center;verticalLabelPosition=top;verticalAlign=bottom;fontSize=19;strokeWidth=3;" parent="neb2cFIue-ap5KmvGDe1-0" vertex="1">
          <mxGeometry x="43.61538461538461" y="34.137931034482754" width="295.61538461538464" height="371.7241379310345" as="geometry" />
        </mxCell>
        <mxCell id="neb2cFIue-ap5KmvGDe1-4" value="&lt;font style=&quot;font-size: 19px;&quot;&gt;Result Partition&lt;br style=&quot;font-size: 19px;&quot;&gt;Manager&lt;br style=&quot;font-size: 19px;&quot;&gt;&lt;/font&gt;" style="rounded=1;whiteSpace=wrap;html=1;align=center;fontSize=19;strokeWidth=3;" parent="neb2cFIue-ap5KmvGDe1-0" vertex="1">
          <mxGeometry x="94.5" y="91.03448275862068" width="193.84615384615384" height="91.03448275862068" as="geometry" />
        </mxCell>
        <mxCell id="neb2cFIue-ap5KmvGDe1-5" value="" style="endArrow=classic;html=1;dashed=1;exitX=0.25;exitY=0;exitDx=0;exitDy=0;entryX=1;entryY=1;entryDx=0;entryDy=0;fontSize=19;" parent="neb2cFIue-ap5KmvGDe1-0" source="neb2cFIue-ap5KmvGDe1-2" target="neb2cFIue-ap5KmvGDe1-4" edge="1">
          <mxGeometry width="50" height="50" relative="1" as="geometry">
            <mxPoint x="-161.53846153846152" y="227.58620689655172" as="sourcePoint" />
            <mxPoint x="-80.76923076923076" y="151.72413793103448" as="targetPoint" />
          </mxGeometry>
        </mxCell>
        <mxCell id="neb2cFIue-ap5KmvGDe1-6" value="&lt;font style=&quot;font-size: 19px;&quot;&gt;transport client&lt;/font&gt;" style="shape=mxgraph.bpmn.loop;html=1;outlineConnect=0;align=center;labelPosition=center;verticalLabelPosition=bottom;verticalAlign=top;fontSize=19;strokeWidth=3;" parent="neb2cFIue-ap5KmvGDe1-0" vertex="1">
          <mxGeometry x="139.73076923076923" y="227.58620689655172" width="103.38461538461539" height="97.10344827586206" as="geometry" />
        </mxCell>
        <mxCell id="neb2cFIue-ap5KmvGDe1-7" style="edgeStyle=orthogonalEdgeStyle;rounded=0;orthogonalLoop=1;jettySize=auto;html=1;dashed=1;fontSize=19;" parent="neb2cFIue-ap5KmvGDe1-0" source="neb2cFIue-ap5KmvGDe1-2" target="neb2cFIue-ap5KmvGDe1-6" edge="1">
          <mxGeometry relative="1" as="geometry" />
        </mxCell>
        <mxCell id="neb2cFIue-ap5KmvGDe1-8" value="request partition" style="edgeLabel;html=1;align=center;verticalAlign=middle;resizable=0;points=[];fontSize=19;" parent="neb2cFIue-ap5KmvGDe1-7" vertex="1" connectable="0">
          <mxGeometry x="0.1844" y="-1" relative="1" as="geometry">
            <mxPoint x="13" y="14.86" as="offset" />
          </mxGeometry>
        </mxCell>
        <mxCell id="neb2cFIue-ap5KmvGDe1-9" value="&lt;font style=&quot;font-size: 23px&quot;&gt;NodeManager&lt;/font&gt;" style="rounded=0;whiteSpace=wrap;html=1;align=left;labelPosition=center;verticalLabelPosition=top;verticalAlign=bottom;fontSize=19;strokeWidth=3;" parent="wq5du6whX9fz6L1cCYeN-1" vertex="1">
          <mxGeometry x="760" y="1140" width="390" height="440" as="geometry" />
        </mxCell>
        <mxCell id="neb2cFIue-ap5KmvGDe1-10" value="&lt;font style=&quot;font-size: 23px&quot; color=&quot;#3399ff&quot;&gt;external shuffle service&lt;/font&gt;" style="rounded=1;whiteSpace=wrap;html=1;align=center;labelPosition=center;verticalLabelPosition=top;verticalAlign=bottom;fontSize=19;strokeWidth=3;" parent="wq5du6whX9fz6L1cCYeN-1" vertex="1">
          <mxGeometry x="803.6153846153846" y="1174.1379310344828" width="295.61538461538464" height="371.7241379310345" as="geometry" />
        </mxCell>
        <mxCell id="neb2cFIue-ap5KmvGDe1-11" value="&lt;font style=&quot;font-size: 19px&quot;&gt;&lt;font color=&quot;#3399ff&quot;&gt;Result Partition&lt;br style=&quot;font-size: 19px&quot;&gt;Manager&lt;/font&gt;&lt;br style=&quot;font-size: 19px&quot;&gt;&lt;/font&gt;" style="rounded=1;whiteSpace=wrap;html=1;align=center;fontSize=19;strokeWidth=3;" parent="wq5du6whX9fz6L1cCYeN-1" vertex="1">
          <mxGeometry x="867" y="1240.0044827586207" width="193.84615384615384" height="91.03448275862068" as="geometry" />
        </mxCell>
        <mxCell id="neb2cFIue-ap5KmvGDe1-12" value="&lt;font style=&quot;font-size: 21px&quot; color=&quot;#3399ff&quot;&gt;transport server&lt;/font&gt;" style="shape=mxgraph.bpmn.loop;html=1;outlineConnect=0;align=center;labelPosition=center;verticalLabelPosition=bottom;verticalAlign=top;fontSize=19;strokeWidth=3;" parent="wq5du6whX9fz6L1cCYeN-1" vertex="1">
          <mxGeometry x="899.7307692307693" y="1367.5862068965516" width="103.38461538461539" height="97.10344827586206" as="geometry" />
        </mxCell>
        <mxCell id="neb2cFIue-ap5KmvGDe1-13" style="edgeStyle=orthogonalEdgeStyle;rounded=0;orthogonalLoop=1;jettySize=auto;html=1;fontSize=19;strokeWidth=3;shape=flexArrow;fillColor=#666666;strokeColor=#000000;" parent="wq5du6whX9fz6L1cCYeN-1" source="neb2cFIue-ap5KmvGDe1-6" target="neb2cFIue-ap5KmvGDe1-12" edge="1">
          <mxGeometry relative="1" as="geometry" />
        </mxCell>
        <mxCell id="neb2cFIue-ap5KmvGDe1-14" value="request" style="edgeLabel;html=1;align=center;verticalAlign=middle;resizable=0;points=[];fontSize=19;" parent="neb2cFIue-ap5KmvGDe1-13" vertex="1" connectable="0">
          <mxGeometry x="-0.083" y="2" relative="1" as="geometry">
            <mxPoint x="-18.3" y="21.86" as="offset" />
          </mxGeometry>
        </mxCell>
        <mxCell id="neb2cFIue-ap5KmvGDe1-17" value="&lt;font style=&quot;font-size: 23px&quot;&gt;TaskManager&lt;/font&gt;" style="rounded=0;whiteSpace=wrap;html=1;align=left;labelPosition=center;verticalLabelPosition=top;verticalAlign=bottom;fontSize=19;strokeWidth=3;" parent="wq5du6whX9fz6L1cCYeN-1" vertex="1">
          <mxGeometry x="20" y="1140" width="620.0000000000001" height="440" as="geometry" />
        </mxCell>
        <mxCell id="neb2cFIue-ap5KmvGDe1-18" value="&lt;font style=&quot;font-size: 19px;&quot;&gt;Result Partition&lt;/font&gt;" style="rounded=1;whiteSpace=wrap;html=1;align=center;fontSize=19;strokeWidth=3;" parent="wq5du6whX9fz6L1cCYeN-1" vertex="1">
          <mxGeometry x="67.69" y="1376.4499999999998" width="152.31" height="79.38" as="geometry" />
        </mxCell>
        <mxCell id="neb2cFIue-ap5KmvGDe1-19" value="&lt;font style=&quot;font-size: 23px&quot;&gt;internal shuffle service&lt;/font&gt;" style="rounded=1;whiteSpace=wrap;html=1;align=center;labelPosition=center;verticalLabelPosition=top;verticalAlign=bottom;fontSize=19;strokeWidth=3;" parent="wq5du6whX9fz6L1cCYeN-1" vertex="1">
          <mxGeometry x="322.05128205128204" y="1174.1379310344828" width="270.2564102564103" height="379.31034482758616" as="geometry" />
        </mxCell>
        <mxCell id="neb2cFIue-ap5KmvGDe1-20" value="&lt;font style=&quot;font-size: 19px;&quot;&gt;Result Partition&lt;br style=&quot;font-size: 19px;&quot;&gt;Manager&lt;br style=&quot;font-size: 19px;&quot;&gt;&lt;/font&gt;" style="rounded=1;whiteSpace=wrap;html=1;align=center;fontSize=19;strokeWidth=3;" parent="wq5du6whX9fz6L1cCYeN-1" vertex="1">
          <mxGeometry x="361.7948717948718" y="1231.0344827586207" width="190.76923076923077" height="91.03448275862068" as="geometry" />
        </mxCell>
        <mxCell id="neb2cFIue-ap5KmvGDe1-21" value="" style="endArrow=classic;html=1;dashed=1;exitX=0.75;exitY=0;exitDx=0;exitDy=0;fontSize=19;" parent="wq5du6whX9fz6L1cCYeN-1" source="neb2cFIue-ap5KmvGDe1-18" target="neb2cFIue-ap5KmvGDe1-20" edge="1">
          <mxGeometry width="50" height="50" relative="1" as="geometry">
            <mxPoint x="210.76923076923077" y="1428.2758620689656" as="sourcePoint" />
            <mxPoint x="290.2564102564103" y="1352.4137931034484" as="targetPoint" />
          </mxGeometry>
        </mxCell>
        <mxCell id="neb2cFIue-ap5KmvGDe1-22" value="&lt;font style=&quot;font-size: 21px&quot;&gt;transport client&lt;/font&gt;" style="shape=mxgraph.bpmn.loop;html=1;outlineConnect=0;align=center;labelPosition=center;verticalLabelPosition=bottom;verticalAlign=top;fontSize=19;strokeWidth=3;" parent="wq5du6whX9fz6L1cCYeN-1" vertex="1">
          <mxGeometry x="406.3076923076923" y="1367.5862068965516" width="101.74358974358974" height="97.10344827586206" as="geometry" />
        </mxCell>
        <mxCell id="neb2cFIue-ap5KmvGDe1-23" style="edgeStyle=orthogonalEdgeStyle;rounded=0;orthogonalLoop=1;jettySize=auto;html=1;dashed=1;fontSize=19;" parent="wq5du6whX9fz6L1cCYeN-1" source="neb2cFIue-ap5KmvGDe1-18" target="neb2cFIue-ap5KmvGDe1-22" edge="1">
          <mxGeometry relative="1" as="geometry" />
        </mxCell>
        <mxCell id="neb2cFIue-ap5KmvGDe1-24" value="register shuffle" style="edgeLabel;html=1;align=center;verticalAlign=middle;resizable=0;points=[];fontSize=19;" parent="neb2cFIue-ap5KmvGDe1-23" vertex="1" connectable="0">
          <mxGeometry x="-0.4624" y="-3" relative="1" as="geometry">
            <mxPoint x="40" y="16.71" as="offset" />
          </mxGeometry>
        </mxCell>
        <mxCell id="neb2cFIue-ap5KmvGDe1-15" style="edgeStyle=orthogonalEdgeStyle;rounded=0;orthogonalLoop=1;jettySize=auto;html=1;fontSize=19;strokeWidth=3;shape=flexArrow;fillColor=#666666;" parent="wq5du6whX9fz6L1cCYeN-1" source="neb2cFIue-ap5KmvGDe1-22" target="neb2cFIue-ap5KmvGDe1-12" edge="1">
          <mxGeometry relative="1" as="geometry" />
        </mxCell>
        <mxCell id="neb2cFIue-ap5KmvGDe1-16" value="register" style="edgeLabel;html=1;align=center;verticalAlign=middle;resizable=0;points=[];fontSize=19;" parent="neb2cFIue-ap5KmvGDe1-15" vertex="1" connectable="0">
          <mxGeometry x="-0.2526" y="5" relative="1" as="geometry">
            <mxPoint x="46.230000000000004" y="28.86" as="offset" />
          </mxGeometry>
        </mxCell>
      </root>
    </mxGraphModel>
  </diagram>
  <diagram id="8s7ZwO2EjlzIAi7FnLyH" name="Shuffle-JobMaster">
    <mxGraphModel dx="1106" dy="755" grid="1" gridSize="10" guides="1" tooltips="1" connect="1" arrows="1" fold="1" page="1" pageScale="1" pageWidth="827" pageHeight="1169" math="0" shadow="0">
      <root>
        <mxCell id="pjlyn_bZRNdb2Mf359FS-0" />
        <mxCell id="pjlyn_bZRNdb2Mf359FS-1" parent="pjlyn_bZRNdb2Mf359FS-0" />
        <mxCell id="vh6GdYUD4-3o_LAWdVD7-0" value="&lt;font style=&quot;font-size: 25px&quot;&gt;JobMaster&lt;/font&gt;" style="rounded=0;whiteSpace=wrap;html=1;fontSize=17;align=left;dashed=1;labelPosition=center;verticalLabelPosition=middle;verticalAlign=top;strokeWidth=2;" parent="pjlyn_bZRNdb2Mf359FS-1" vertex="1">
          <mxGeometry x="100" y="90" width="1340" height="650" as="geometry" />
        </mxCell>
        <mxCell id="vh6GdYUD4-3o_LAWdVD7-1" value="" style="rounded=0;whiteSpace=wrap;html=1;fontSize=17;align=left;dashed=1;labelPosition=center;verticalLabelPosition=top;verticalAlign=bottom;strokeWidth=2;fontColor=#3399FF;" parent="pjlyn_bZRNdb2Mf359FS-1" vertex="1">
          <mxGeometry x="1134.5" y="170" width="271" height="285" as="geometry" />
        </mxCell>
        <mxCell id="vh6GdYUD4-3o_LAWdVD7-2" style="edgeStyle=orthogonalEdgeStyle;rounded=0;orthogonalLoop=1;jettySize=auto;html=1;fontSize=17;strokeWidth=3;fontColor=#3399FF;" parent="pjlyn_bZRNdb2Mf359FS-1" source="vh6GdYUD4-3o_LAWdVD7-4" target="vh6GdYUD4-3o_LAWdVD7-5" edge="1">
          <mxGeometry relative="1" as="geometry" />
        </mxCell>
        <mxCell id="vh6GdYUD4-3o_LAWdVD7-3" value="&lt;font style=&quot;font-size: 16px&quot;&gt;Ceate &lt;span style=&quot;background-color: rgb(248 , 249 , 250)&quot;&gt;Master&lt;/span&gt;&lt;/font&gt;" style="edgeLabel;html=1;align=center;verticalAlign=middle;resizable=0;points=[];fontSize=17;fontColor=#3399FF;" parent="vh6GdYUD4-3o_LAWdVD7-2" vertex="1" connectable="0">
          <mxGeometry x="-0.2" y="4" relative="1" as="geometry">
            <mxPoint x="50.5" y="8.53" as="offset" />
          </mxGeometry>
        </mxCell>
        <mxCell id="vh6GdYUD4-3o_LAWdVD7-4" value="&lt;font style=&quot;font-size: 20px&quot;&gt;Shuffle Service Factory&lt;/font&gt;" style="rounded=0;whiteSpace=wrap;html=1;strokeWidth=3;fontSize=17;align=center;fontColor=#3399FF;" parent="pjlyn_bZRNdb2Mf359FS-1" vertex="1">
          <mxGeometry x="1160" y="205" width="220" height="60" as="geometry" />
        </mxCell>
        <mxCell id="vh6GdYUD4-3o_LAWdVD7-5" value="&lt;font style=&quot;font-size: 20px&quot;&gt;Shuffle Master&lt;/font&gt;" style="rounded=0;whiteSpace=wrap;html=1;strokeWidth=3;fontSize=17;align=center;fontColor=#3399FF;" parent="pjlyn_bZRNdb2Mf359FS-1" vertex="1">
          <mxGeometry x="1160" y="355" width="220" height="60" as="geometry" />
        </mxCell>
        <mxCell id="vh6GdYUD4-3o_LAWdVD7-6" value="" style="rounded=0;whiteSpace=wrap;html=1;strokeWidth=2;fontSize=17;align=center;fontColor=#3399FF;dashed=1;" parent="pjlyn_bZRNdb2Mf359FS-1" vertex="1">
          <mxGeometry x="609.5" y="130" width="310" height="210" as="geometry" />
        </mxCell>
        <mxCell id="vh6GdYUD4-3o_LAWdVD7-7" value="" style="curved=1;endArrow=classic;html=1;strokeWidth=2;fontSize=17;exitX=1;exitY=0.5;exitDx=0;exitDy=0;entryX=0;entryY=0.25;entryDx=0;entryDy=0;fontColor=#3399FF;" parent="pjlyn_bZRNdb2Mf359FS-1" source="vh6GdYUD4-3o_LAWdVD7-6" target="vh6GdYUD4-3o_LAWdVD7-5" edge="1">
          <mxGeometry width="50" height="50" relative="1" as="geometry">
            <mxPoint x="684.5" y="585" as="sourcePoint" />
            <mxPoint x="734.5" y="535" as="targetPoint" />
            <Array as="points">
              <mxPoint x="974.5" y="240" />
            </Array>
          </mxGeometry>
        </mxCell>
        <mxCell id="vh6GdYUD4-3o_LAWdVD7-8" value="&lt;font style=&quot;font-size: 18px&quot;&gt;register partition &lt;br&gt;with producer&lt;/font&gt;" style="edgeLabel;html=1;align=center;verticalAlign=middle;resizable=0;points=[];fontSize=17;rotation=30;fontColor=#3399FF;labelBackgroundColor=none;" parent="vh6GdYUD4-3o_LAWdVD7-7" vertex="1" connectable="0">
          <mxGeometry x="-0.1105" y="-4" relative="1" as="geometry">
            <mxPoint x="24.430000000000007" y="-18.83" as="offset" />
          </mxGeometry>
        </mxCell>
        <mxCell id="vh6GdYUD4-3o_LAWdVD7-14" value="" style="curved=1;endArrow=classic;html=1;strokeWidth=2;fontSize=17;entryX=0;entryY=0.5;entryDx=0;entryDy=0;exitX=1;exitY=0.25;exitDx=0;exitDy=0;" parent="pjlyn_bZRNdb2Mf359FS-1" source="AcGNjGb8m3bdpYRlbdvd-2" target="vh6GdYUD4-3o_LAWdVD7-6" edge="1">
          <mxGeometry width="50" height="50" relative="1" as="geometry">
            <mxPoint x="374.5" y="364.375" as="sourcePoint" />
            <mxPoint x="534.5" y="315" as="targetPoint" />
            <Array as="points">
              <mxPoint x="424.5" y="260" />
            </Array>
          </mxGeometry>
        </mxCell>
        <mxCell id="vh6GdYUD4-3o_LAWdVD7-15" value="&lt;font style=&quot;font-size: 18px&quot;&gt;Schedule&lt;br&gt;producer execution&lt;br&gt;&lt;/font&gt;" style="edgeLabel;html=1;align=center;verticalAlign=middle;resizable=0;points=[];fontSize=17;rotation=-11;labelBackgroundColor=none;" parent="vh6GdYUD4-3o_LAWdVD7-14" vertex="1" connectable="0">
          <mxGeometry x="0.0355" y="1" relative="1" as="geometry">
            <mxPoint x="-9.84" y="-25.26" as="offset" />
          </mxGeometry>
        </mxCell>
        <mxCell id="AcGNjGb8m3bdpYRlbdvd-11" value="&lt;font style=&quot;font-size: 20px&quot;&gt;PartitionDescriptor&lt;/font&gt;" style="rounded=0;whiteSpace=wrap;html=1;strokeWidth=3;fontSize=17;align=center;fontColor=#3399FF;" parent="pjlyn_bZRNdb2Mf359FS-1" vertex="1">
          <mxGeometry x="649.5" y="150" width="230" height="60" as="geometry" />
        </mxCell>
        <mxCell id="AcGNjGb8m3bdpYRlbdvd-12" value="&lt;font style=&quot;font-size: 20px&quot;&gt;ProducerDescriptor&lt;/font&gt;" style="rounded=0;whiteSpace=wrap;html=1;strokeWidth=3;fontSize=17;align=center;fontColor=#3399FF;" parent="pjlyn_bZRNdb2Mf359FS-1" vertex="1">
          <mxGeometry x="649.5" y="255" width="230" height="60" as="geometry" />
        </mxCell>
        <mxCell id="AcGNjGb8m3bdpYRlbdvd-13" value="" style="group" parent="pjlyn_bZRNdb2Mf359FS-1" vertex="1" connectable="0">
          <mxGeometry x="134.5" y="275" width="230" height="130" as="geometry" />
        </mxCell>
        <mxCell id="AcGNjGb8m3bdpYRlbdvd-0" value="" style="group" parent="AcGNjGb8m3bdpYRlbdvd-13" vertex="1" connectable="0">
          <mxGeometry width="230" height="130" as="geometry" />
        </mxCell>
        <mxCell id="AcGNjGb8m3bdpYRlbdvd-1" value="" style="group;align=center;verticalAlign=top;" parent="AcGNjGb8m3bdpYRlbdvd-0" vertex="1" connectable="0">
          <mxGeometry width="229.99999999999997" height="130" as="geometry" />
        </mxCell>
        <mxCell id="AcGNjGb8m3bdpYRlbdvd-2" value="&lt;font color=&quot;#000000&quot;&gt;ExecutionGraph&lt;/font&gt;" style="rounded=0;whiteSpace=wrap;html=1;strokeColor=#000000;strokeWidth=2;fontSize=17;fontColor=#3399FF;align=center;verticalAlign=top;" parent="AcGNjGb8m3bdpYRlbdvd-1" vertex="1">
          <mxGeometry y="-18.909090909090907" width="229.99999999999997" height="148.9090909090909" as="geometry" />
        </mxCell>
        <mxCell id="AcGNjGb8m3bdpYRlbdvd-3" value="" style="ellipse;whiteSpace=wrap;html=1;strokeColor=#000000;strokeWidth=2;fontSize=17;fontColor=#3399FF;align=left;fillColor=#999999;" parent="AcGNjGb8m3bdpYRlbdvd-1" vertex="1">
          <mxGeometry x="172.5" y="47.27272727272726" width="44.72222222222222" height="35.45454545454545" as="geometry" />
        </mxCell>
        <mxCell id="AcGNjGb8m3bdpYRlbdvd-4" value="" style="ellipse;whiteSpace=wrap;html=1;strokeColor=#000000;strokeWidth=2;fontSize=17;fontColor=#3399FF;align=left;fillColor=#999999;" parent="AcGNjGb8m3bdpYRlbdvd-1" vertex="1">
          <mxGeometry x="12.777777777777777" y="47.27272727272726" width="44.72222222222222" height="35.45454545454545" as="geometry" />
        </mxCell>
        <mxCell id="AcGNjGb8m3bdpYRlbdvd-5" value="" style="ellipse;whiteSpace=wrap;html=1;strokeColor=#000000;strokeWidth=2;fontSize=17;fontColor=#3399FF;align=left;fillColor=#999999;" parent="AcGNjGb8m3bdpYRlbdvd-1" vertex="1">
          <mxGeometry x="92.63888888888889" y="21.666666666666657" width="44.72222222222222" height="35.45454545454545" as="geometry" />
        </mxCell>
        <mxCell id="AcGNjGb8m3bdpYRlbdvd-6" value="" style="ellipse;whiteSpace=wrap;html=1;strokeColor=#000000;strokeWidth=2;fontSize=17;fontColor=#3399FF;align=left;fillColor=#999999;" parent="AcGNjGb8m3bdpYRlbdvd-1" vertex="1">
          <mxGeometry x="92.63888888888889" y="76.8181818181818" width="44.72222222222222" height="35.45454545454545" as="geometry" />
        </mxCell>
        <mxCell id="AcGNjGb8m3bdpYRlbdvd-7" value="" style="endArrow=classic;html=1;strokeColor=#000000;strokeWidth=2;fillColor=#666666;fontSize=17;fontColor=#3399FF;exitX=1;exitY=0;exitDx=0;exitDy=0;entryX=0;entryY=0.5;entryDx=0;entryDy=0;" parent="AcGNjGb8m3bdpYRlbdvd-1" source="AcGNjGb8m3bdpYRlbdvd-4" target="AcGNjGb8m3bdpYRlbdvd-5" edge="1">
          <mxGeometry width="50" height="50" relative="1" as="geometry">
            <mxPoint x="287.5" y="-96.51515151515153" as="sourcePoint" />
            <mxPoint x="319.4444444444444" y="-135.90909090909088" as="targetPoint" />
          </mxGeometry>
        </mxCell>
        <mxCell id="AcGNjGb8m3bdpYRlbdvd-8" value="" style="endArrow=classic;html=1;strokeColor=#000000;strokeWidth=2;fillColor=#666666;fontSize=17;fontColor=#3399FF;entryX=0;entryY=0;entryDx=0;entryDy=0;exitX=1;exitY=0.5;exitDx=0;exitDy=0;" parent="AcGNjGb8m3bdpYRlbdvd-1" source="AcGNjGb8m3bdpYRlbdvd-5" target="AcGNjGb8m3bdpYRlbdvd-3" edge="1">
          <mxGeometry width="50" height="50" relative="1" as="geometry">
            <mxPoint x="166.11111111111106" y="61.06060606060605" as="sourcePoint" />
            <mxPoint x="198.05555555555551" y="21.666666666666657" as="targetPoint" />
          </mxGeometry>
        </mxCell>
        <mxCell id="AcGNjGb8m3bdpYRlbdvd-9" value="" style="endArrow=classic;html=1;strokeColor=#000000;strokeWidth=2;fillColor=#666666;fontSize=17;fontColor=#3399FF;entryX=0;entryY=0.5;entryDx=0;entryDy=0;exitX=1;exitY=1;exitDx=0;exitDy=0;" parent="AcGNjGb8m3bdpYRlbdvd-1" source="AcGNjGb8m3bdpYRlbdvd-4" target="AcGNjGb8m3bdpYRlbdvd-6" edge="1">
          <mxGeometry width="50" height="50" relative="1" as="geometry">
            <mxPoint x="31.944444444444436" y="131.96969696969697" as="sourcePoint" />
            <mxPoint x="63.88888888888887" y="92.57575757575756" as="targetPoint" />
          </mxGeometry>
        </mxCell>
        <mxCell id="AcGNjGb8m3bdpYRlbdvd-10" value="" style="endArrow=classic;html=1;strokeColor=#000000;strokeWidth=2;fillColor=#666666;fontSize=17;fontColor=#3399FF;entryX=0;entryY=1;entryDx=0;entryDy=0;exitX=1;exitY=0.5;exitDx=0;exitDy=0;" parent="AcGNjGb8m3bdpYRlbdvd-1" source="AcGNjGb8m3bdpYRlbdvd-6" target="AcGNjGb8m3bdpYRlbdvd-3" edge="1">
          <mxGeometry width="50" height="50" relative="1" as="geometry">
            <mxPoint x="153.3333333333333" y="124.09090909090908" as="sourcePoint" />
            <mxPoint x="185.27777777777777" y="84.6969696969697" as="targetPoint" />
          </mxGeometry>
        </mxCell>
        <mxCell id="AcGNjGb8m3bdpYRlbdvd-26" style="edgeStyle=orthogonalEdgeStyle;curved=1;orthogonalLoop=1;jettySize=auto;html=1;entryX=0.5;entryY=0;entryDx=0;entryDy=0;strokeColor=#000000;strokeWidth=2;fillColor=#666666;fontSize=20;fontColor=#000000;" parent="pjlyn_bZRNdb2Mf359FS-1" source="AcGNjGb8m3bdpYRlbdvd-15" target="AcGNjGb8m3bdpYRlbdvd-23" edge="1">
          <mxGeometry relative="1" as="geometry" />
        </mxCell>
        <mxCell id="AcGNjGb8m3bdpYRlbdvd-15" value="&lt;font style=&quot;font-size: 20px&quot;&gt;ShuffleDescriptor&lt;/font&gt;" style="rounded=0;whiteSpace=wrap;html=1;strokeWidth=3;fontSize=17;align=center;fontColor=#3399FF;" parent="pjlyn_bZRNdb2Mf359FS-1" vertex="1">
          <mxGeometry x="649.5" y="430" width="230" height="60" as="geometry" />
        </mxCell>
        <mxCell id="AcGNjGb8m3bdpYRlbdvd-17" value="" style="curved=1;endArrow=classic;html=1;strokeColor=#000000;strokeWidth=2;fillColor=#666666;fontSize=20;fontColor=#3399FF;entryX=1;entryY=0.5;entryDx=0;entryDy=0;exitX=0;exitY=0.75;exitDx=0;exitDy=0;" parent="pjlyn_bZRNdb2Mf359FS-1" source="vh6GdYUD4-3o_LAWdVD7-5" target="AcGNjGb8m3bdpYRlbdvd-15" edge="1">
          <mxGeometry width="50" height="50" relative="1" as="geometry">
            <mxPoint x="954.5" y="470" as="sourcePoint" />
            <mxPoint x="1004.5" y="420" as="targetPoint" />
            <Array as="points">
              <mxPoint x="954.5" y="450" />
            </Array>
          </mxGeometry>
        </mxCell>
        <mxCell id="AcGNjGb8m3bdpYRlbdvd-21" value="&lt;font style=&quot;font-size: 18px&quot;&gt;Return&lt;/font&gt;" style="edgeLabel;html=1;align=center;verticalAlign=middle;resizable=0;points=[];fontSize=20;fontColor=#3399FF;rotation=-15;labelBackgroundColor=none;" parent="AcGNjGb8m3bdpYRlbdvd-17" vertex="1" connectable="0">
          <mxGeometry x="-0.1857" y="3" relative="1" as="geometry">
            <mxPoint x="-33.04" y="24.55" as="offset" />
          </mxGeometry>
        </mxCell>
        <mxCell id="AcGNjGb8m3bdpYRlbdvd-20" value="" style="curved=1;endArrow=classic;html=1;strokeColor=#000000;strokeWidth=2;fillColor=#666666;fontSize=20;fontColor=#3399FF;entryX=1;entryY=0.75;entryDx=0;entryDy=0;exitX=0;exitY=0.5;exitDx=0;exitDy=0;" parent="pjlyn_bZRNdb2Mf359FS-1" source="AcGNjGb8m3bdpYRlbdvd-15" target="AcGNjGb8m3bdpYRlbdvd-2" edge="1">
          <mxGeometry width="50" height="50" relative="1" as="geometry">
            <mxPoint x="474.5" y="450" as="sourcePoint" />
            <mxPoint x="524.5" y="400" as="targetPoint" />
            <Array as="points">
              <mxPoint x="534.5" y="440" />
            </Array>
          </mxGeometry>
        </mxCell>
        <mxCell id="2ZIDASiRDHK6vG0nIc50-10" value="Cache for&lt;br&gt;consumer execution" style="edgeLabel;html=1;align=center;verticalAlign=middle;resizable=0;points=[];fontSize=20;fontColor=none;" parent="AcGNjGb8m3bdpYRlbdvd-20" vertex="1" connectable="0">
          <mxGeometry x="0.0713" y="-4" relative="1" as="geometry">
            <mxPoint as="offset" />
          </mxGeometry>
        </mxCell>
        <mxCell id="AcGNjGb8m3bdpYRlbdvd-22" value="&lt;font style=&quot;font-size: 20px&quot;&gt;Result Partition&lt;br&gt;deployment descriptor&lt;br&gt;&lt;/font&gt;" style="rounded=0;whiteSpace=wrap;html=1;strokeWidth=3;fontSize=17;align=center;fontColor=#000000;" parent="pjlyn_bZRNdb2Mf359FS-1" vertex="1">
          <mxGeometry x="200" y="650" width="230" height="60" as="geometry" />
        </mxCell>
        <mxCell id="AcGNjGb8m3bdpYRlbdvd-23" value="&lt;font style=&quot;font-size: 20px&quot;&gt;InputGate&lt;br&gt;deployment descriptor&lt;/font&gt;" style="rounded=0;whiteSpace=wrap;html=1;strokeWidth=3;fontSize=17;align=center;fontColor=#000000;" parent="pjlyn_bZRNdb2Mf359FS-1" vertex="1">
          <mxGeometry x="649.5" y="650" width="230" height="60" as="geometry" />
        </mxCell>
        <mxCell id="AcGNjGb8m3bdpYRlbdvd-24" value="&lt;font style=&quot;font-size: 20px&quot;&gt;Partition Info&lt;/font&gt;" style="rounded=0;whiteSpace=wrap;html=1;strokeWidth=3;fontSize=17;align=center;fontColor=#000000;" parent="pjlyn_bZRNdb2Mf359FS-1" vertex="1">
          <mxGeometry x="1165.5" y="650" width="230" height="60" as="geometry" />
        </mxCell>
        <mxCell id="AcGNjGb8m3bdpYRlbdvd-25" value="" style="curved=1;endArrow=classic;html=1;strokeColor=#000000;strokeWidth=2;fillColor=#666666;fontSize=20;fontColor=#000000;entryX=0.5;entryY=0;entryDx=0;entryDy=0;exitX=0.5;exitY=1;exitDx=0;exitDy=0;" parent="pjlyn_bZRNdb2Mf359FS-1" source="AcGNjGb8m3bdpYRlbdvd-15" target="AcGNjGb8m3bdpYRlbdvd-22" edge="1">
          <mxGeometry width="50" height="50" relative="1" as="geometry">
            <mxPoint x="370" y="590" as="sourcePoint" />
            <mxPoint x="420" y="540" as="targetPoint" />
            <Array as="points">
              <mxPoint x="690" y="540" />
              <mxPoint x="610" y="560" />
              <mxPoint x="360" y="580" />
            </Array>
          </mxGeometry>
        </mxCell>
        <mxCell id="AcGNjGb8m3bdpYRlbdvd-27" value="" style="curved=1;endArrow=classic;html=1;strokeColor=#000000;strokeWidth=2;fillColor=#666666;fontSize=20;fontColor=#000000;entryX=0.5;entryY=0;entryDx=0;entryDy=0;exitX=0.5;exitY=1;exitDx=0;exitDy=0;" parent="pjlyn_bZRNdb2Mf359FS-1" source="AcGNjGb8m3bdpYRlbdvd-15" target="AcGNjGb8m3bdpYRlbdvd-24" edge="1">
          <mxGeometry width="50" height="50" relative="1" as="geometry">
            <mxPoint x="1050" y="610" as="sourcePoint" />
            <mxPoint x="1100" y="560" as="targetPoint" />
            <Array as="points">
              <mxPoint x="910" y="570" />
              <mxPoint x="1230" y="570" />
            </Array>
          </mxGeometry>
        </mxCell>
        <mxCell id="2ZIDASiRDHK6vG0nIc50-0" value="&amp;nbsp;TaskExecutor" style="rounded=0;whiteSpace=wrap;html=1;dashed=1;strokeColor=#000000;strokeWidth=2;fillColor=#ffffff;fontSize=22;fontColor=#000000;align=left;verticalAlign=top;" parent="pjlyn_bZRNdb2Mf359FS-1" vertex="1">
          <mxGeometry x="100" y="910" width="410" height="150" as="geometry" />
        </mxCell>
        <mxCell id="2ZIDASiRDHK6vG0nIc50-1" value="Task" style="ellipse;whiteSpace=wrap;html=1;aspect=fixed;strokeColor=#000000;strokeWidth=2;fillColor=#ffffff;fontSize=20;fontColor=#000000;align=center;" parent="pjlyn_bZRNdb2Mf359FS-1" vertex="1">
          <mxGeometry x="265" y="945" width="80" height="80" as="geometry" />
        </mxCell>
        <mxCell id="2ZIDASiRDHK6vG0nIc50-2" value="&amp;nbsp;TaskExecutor" style="rounded=0;whiteSpace=wrap;html=1;dashed=1;strokeColor=#000000;strokeWidth=2;fillColor=#ffffff;fontSize=22;fontColor=#000000;align=left;verticalAlign=top;" parent="pjlyn_bZRNdb2Mf359FS-1" vertex="1">
          <mxGeometry x="1030" y="920" width="410" height="150" as="geometry" />
        </mxCell>
        <mxCell id="2ZIDASiRDHK6vG0nIc50-3" value="Task" style="ellipse;whiteSpace=wrap;html=1;aspect=fixed;strokeColor=#000000;strokeWidth=2;fillColor=#ffffff;fontSize=20;fontColor=#000000;align=center;" parent="pjlyn_bZRNdb2Mf359FS-1" vertex="1">
          <mxGeometry x="1195" y="955" width="80" height="80" as="geometry" />
        </mxCell>
        <mxCell id="2ZIDASiRDHK6vG0nIc50-4" value="" style="curved=1;endArrow=classic;html=1;strokeColor=#000000;strokeWidth=2;fillColor=#666666;fontSize=20;fontColor=#000000;exitX=0.5;exitY=1;exitDx=0;exitDy=0;entryX=0.5;entryY=0;entryDx=0;entryDy=0;" parent="pjlyn_bZRNdb2Mf359FS-1" source="AcGNjGb8m3bdpYRlbdvd-22" target="2ZIDASiRDHK6vG0nIc50-0" edge="1">
          <mxGeometry width="50" height="50" relative="1" as="geometry">
            <mxPoint x="380" y="900" as="sourcePoint" />
            <mxPoint x="430" y="850" as="targetPoint" />
            <Array as="points">
              <mxPoint x="380" y="760" />
              <mxPoint x="370" y="860" />
            </Array>
          </mxGeometry>
        </mxCell>
        <mxCell id="2ZIDASiRDHK6vG0nIc50-5" value="Submit&lt;br&gt;producer task" style="edgeLabel;html=1;align=center;verticalAlign=middle;resizable=0;points=[];fontSize=20;fontColor=#000000;labelBackgroundColor=none;" parent="2ZIDASiRDHK6vG0nIc50-4" vertex="1" connectable="0">
          <mxGeometry x="-0.371" y="-11" relative="1" as="geometry">
            <mxPoint x="-72.64000000000001" y="41.790000000000006" as="offset" />
          </mxGeometry>
        </mxCell>
        <mxCell id="2ZIDASiRDHK6vG0nIc50-6" value="" style="curved=1;endArrow=classic;html=1;strokeColor=#000000;strokeWidth=2;fillColor=#666666;fontSize=20;fontColor=#000000;exitX=0.5;exitY=1;exitDx=0;exitDy=0;entryX=0.5;entryY=0;entryDx=0;entryDy=0;" parent="pjlyn_bZRNdb2Mf359FS-1" source="AcGNjGb8m3bdpYRlbdvd-23" target="2ZIDASiRDHK6vG0nIc50-2" edge="1">
          <mxGeometry width="50" height="50" relative="1" as="geometry">
            <mxPoint x="930" y="880" as="sourcePoint" />
            <mxPoint x="980" y="830" as="targetPoint" />
            <Array as="points">
              <mxPoint x="850" y="790" />
              <mxPoint x="1010" y="880" />
            </Array>
          </mxGeometry>
        </mxCell>
        <mxCell id="2ZIDASiRDHK6vG0nIc50-7" value="&lt;span&gt;Submit&lt;/span&gt;&lt;br&gt;&lt;span&gt;consumer task&lt;/span&gt;" style="text;html=1;align=center;verticalAlign=middle;resizable=0;points=[];autosize=1;fontSize=20;fontColor=#000000;labelBackgroundColor=none;" parent="pjlyn_bZRNdb2Mf359FS-1" vertex="1">
          <mxGeometry x="775" y="820" width="150" height="50" as="geometry" />
        </mxCell>
        <mxCell id="2ZIDASiRDHK6vG0nIc50-8" value="" style="curved=1;endArrow=classic;html=1;strokeColor=#000000;strokeWidth=2;fillColor=#666666;fontSize=20;fontColor=#000000;exitX=0.5;exitY=1;exitDx=0;exitDy=0;entryX=0.5;entryY=0;entryDx=0;entryDy=0;" parent="pjlyn_bZRNdb2Mf359FS-1" source="AcGNjGb8m3bdpYRlbdvd-24" target="2ZIDASiRDHK6vG0nIc50-2" edge="1">
          <mxGeometry width="50" height="50" relative="1" as="geometry">
            <mxPoint x="1220" y="900" as="sourcePoint" />
            <mxPoint x="1270" y="850" as="targetPoint" />
            <Array as="points">
              <mxPoint x="1290" y="860" />
            </Array>
          </mxGeometry>
        </mxCell>
        <mxCell id="2ZIDASiRDHK6vG0nIc50-9" value="Update &lt;br&gt;partition info" style="edgeLabel;html=1;align=center;verticalAlign=middle;resizable=0;points=[];fontSize=20;fontColor=#000000;labelBackgroundColor=none;" parent="2ZIDASiRDHK6vG0nIc50-8" vertex="1" connectable="0">
          <mxGeometry x="-0.2163" relative="1" as="geometry">
            <mxPoint x="53.769999999999996" y="29.59" as="offset" />
          </mxGeometry>
        </mxCell>
      </root>
    </mxGraphModel>
  </diagram>
  <diagram id="U0Kp4k5-l6sdhOUdQylz" name="Shuffle-TaskExecutor">
    <mxGraphModel dx="1106" dy="755" grid="1" gridSize="10" guides="1" tooltips="1" connect="1" arrows="1" fold="1" page="1" pageScale="1" pageWidth="827" pageHeight="1169" math="0" shadow="0">
      <root>
        <mxCell id="lxjUXwzADZwS_2gR55LD-0" />
        <mxCell id="lxjUXwzADZwS_2gR55LD-1" parent="lxjUXwzADZwS_2gR55LD-0" />
        <mxCell id="lxjUXwzADZwS_2gR55LD-2" value="&lt;font style=&quot;font-size: 25px&quot;&gt;&amp;nbsp;TaskExecutor&lt;/font&gt;" style="rounded=0;whiteSpace=wrap;html=1;fontSize=17;align=left;dashed=1;labelPosition=center;verticalLabelPosition=middle;verticalAlign=top;strokeWidth=2;" parent="lxjUXwzADZwS_2gR55LD-1" vertex="1">
          <mxGeometry x="100" y="40" width="1340" height="520" as="geometry" />
        </mxCell>
        <mxCell id="M3octRvoNkP2kkn0YPvg-0" value="" style="rounded=0;whiteSpace=wrap;html=1;fontSize=17;align=left;dashed=1;labelPosition=center;verticalLabelPosition=top;verticalAlign=bottom;strokeWidth=2;fontColor=#3399FF;" parent="lxjUXwzADZwS_2gR55LD-1" vertex="1">
          <mxGeometry x="1030" y="90" width="340" height="300" as="geometry" />
        </mxCell>
        <mxCell id="s8_cs4FRZgdI1ptDkuvB-3" style="edgeStyle=orthogonalEdgeStyle;rounded=0;orthogonalLoop=1;jettySize=auto;html=1;fontSize=17;strokeWidth=3;fontColor=#3399FF;" parent="lxjUXwzADZwS_2gR55LD-1" source="s8_cs4FRZgdI1ptDkuvB-0" target="s8_cs4FRZgdI1ptDkuvB-2" edge="1">
          <mxGeometry relative="1" as="geometry" />
        </mxCell>
        <mxCell id="s8_cs4FRZgdI1ptDkuvB-4" value="&lt;font style=&quot;font-size: 14px&quot;&gt;Ceate&amp;nbsp;&lt;span style=&quot;background-color: rgb(248 , 249 , 250)&quot;&gt;Shuffle Environment&lt;/span&gt;&lt;/font&gt;" style="edgeLabel;html=1;align=center;verticalAlign=middle;resizable=0;points=[];fontSize=17;fontColor=#3399FF;" parent="s8_cs4FRZgdI1ptDkuvB-3" vertex="1" connectable="0">
          <mxGeometry x="-0.2" y="4" relative="1" as="geometry">
            <mxPoint x="76" as="offset" />
          </mxGeometry>
        </mxCell>
        <mxCell id="s8_cs4FRZgdI1ptDkuvB-0" value="&lt;font style=&quot;font-size: 23px&quot;&gt;Shuffle Service Factory&lt;/font&gt;" style="rounded=0;whiteSpace=wrap;html=1;strokeWidth=2;fontSize=17;align=center;fontColor=#3399FF;" parent="lxjUXwzADZwS_2gR55LD-1" vertex="1">
          <mxGeometry x="1080" y="130" width="240" height="70" as="geometry" />
        </mxCell>
        <mxCell id="s8_cs4FRZgdI1ptDkuvB-2" value="&lt;font style=&quot;font-size: 23px&quot;&gt;Shuffle Environment&lt;/font&gt;" style="rounded=0;whiteSpace=wrap;html=1;strokeWidth=2;fontSize=17;align=center;fontColor=#3399FF;" parent="lxjUXwzADZwS_2gR55LD-1" vertex="1">
          <mxGeometry x="1080" y="280" width="240" height="70" as="geometry" />
        </mxCell>
        <mxCell id="s8_cs4FRZgdI1ptDkuvB-5" value="&lt;span style=&quot;font-size: 23px&quot;&gt;ResultPartition&lt;br&gt;DeploymentDescriptor&lt;/span&gt;" style="rounded=0;whiteSpace=wrap;html=1;strokeWidth=2;fontSize=17;align=center;fontColor=#3399FF;" parent="lxjUXwzADZwS_2gR55LD-1" vertex="1">
          <mxGeometry x="600" y="222.5" width="240" height="70" as="geometry" />
        </mxCell>
        <mxCell id="s8_cs4FRZgdI1ptDkuvB-8" value="" style="curved=1;endArrow=classic;html=1;strokeWidth=2;fontSize=17;exitX=1;exitY=0.5;exitDx=0;exitDy=0;entryX=0;entryY=0.5;entryDx=0;entryDy=0;fontColor=#3399FF;" parent="lxjUXwzADZwS_2gR55LD-1" source="s8_cs4FRZgdI1ptDkuvB-5" target="s8_cs4FRZgdI1ptDkuvB-2" edge="1">
          <mxGeometry width="50" height="50" relative="1" as="geometry">
            <mxPoint x="690" y="545" as="sourcePoint" />
            <mxPoint x="740" y="495" as="targetPoint" />
            <Array as="points">
              <mxPoint x="920" y="258" />
            </Array>
          </mxGeometry>
        </mxCell>
        <mxCell id="s8_cs4FRZgdI1ptDkuvB-9" value="&lt;font style=&quot;font-size: 19px&quot;&gt;createResultPartition&lt;/font&gt;" style="edgeLabel;html=1;align=center;verticalAlign=middle;resizable=0;points=[];fontSize=17;rotation=15;fontColor=#3399FF;" parent="s8_cs4FRZgdI1ptDkuvB-8" vertex="1" connectable="0">
          <mxGeometry x="-0.1105" y="-4" relative="1" as="geometry">
            <mxPoint x="-7.859999999999992" y="20.33" as="offset" />
          </mxGeometry>
        </mxCell>
        <mxCell id="s8_cs4FRZgdI1ptDkuvB-12" value="&lt;font style=&quot;font-size: 23px&quot;&gt;ResultPartition&lt;/font&gt;" style="rounded=0;whiteSpace=wrap;html=1;strokeWidth=2;fontSize=17;align=center;fontColor=#3399FF;" parent="lxjUXwzADZwS_2gR55LD-1" vertex="1">
          <mxGeometry x="600" y="425" width="240" height="70" as="geometry" />
        </mxCell>
        <mxCell id="s8_cs4FRZgdI1ptDkuvB-14" value="" style="curved=1;endArrow=classic;html=1;strokeWidth=2;fontSize=17;exitX=0;exitY=0.5;exitDx=0;exitDy=0;entryX=1;entryY=0.5;entryDx=0;entryDy=0;fontColor=#3399FF;" parent="lxjUXwzADZwS_2gR55LD-1" source="s8_cs4FRZgdI1ptDkuvB-2" target="s8_cs4FRZgdI1ptDkuvB-12" edge="1">
          <mxGeometry width="50" height="50" relative="1" as="geometry">
            <mxPoint x="690" y="545" as="sourcePoint" />
            <mxPoint x="740" y="495" as="targetPoint" />
            <Array as="points">
              <mxPoint x="970" y="445" />
            </Array>
          </mxGeometry>
        </mxCell>
        <mxCell id="s8_cs4FRZgdI1ptDkuvB-16" value="&lt;font style=&quot;font-size: 19px&quot;&gt;Return&lt;/font&gt;" style="edgeLabel;html=1;align=center;verticalAlign=middle;resizable=0;points=[];fontSize=17;rotation=-30;fontColor=#3399FF;" parent="s8_cs4FRZgdI1ptDkuvB-14" vertex="1" connectable="0">
          <mxGeometry x="-0.0534" y="1" relative="1" as="geometry">
            <mxPoint x="-18.39" y="17.71" as="offset" />
          </mxGeometry>
        </mxCell>
        <mxCell id="s8_cs4FRZgdI1ptDkuvB-15" value="" style="curved=1;endArrow=classic;html=1;strokeWidth=2;fontSize=17;exitX=0;exitY=0.5;exitDx=0;exitDy=0;entryX=1;entryY=0.75;entryDx=0;entryDy=0;" parent="lxjUXwzADZwS_2gR55LD-1" source="s8_cs4FRZgdI1ptDkuvB-12" target="MeCdI-9sCwytCYpMsTmT-0" edge="1">
          <mxGeometry width="50" height="50" relative="1" as="geometry">
            <mxPoint x="690" y="545" as="sourcePoint" />
            <mxPoint x="740" y="495" as="targetPoint" />
            <Array as="points">
              <mxPoint x="490" y="425" />
            </Array>
          </mxGeometry>
        </mxCell>
        <mxCell id="s8_cs4FRZgdI1ptDkuvB-21" value="&lt;font style=&quot;font-size: 19px&quot;&gt;Return&lt;/font&gt;" style="edgeLabel;html=1;align=center;verticalAlign=middle;resizable=0;points=[];fontSize=17;rotation=21;" parent="s8_cs4FRZgdI1ptDkuvB-15" vertex="1" connectable="0">
          <mxGeometry x="-0.1669" y="-6" relative="1" as="geometry">
            <mxPoint x="-27.8" y="7.100000000000001" as="offset" />
          </mxGeometry>
        </mxCell>
        <mxCell id="s8_cs4FRZgdI1ptDkuvB-19" value="" style="curved=1;endArrow=classic;html=1;strokeWidth=2;fontSize=17;entryX=0;entryY=0.5;entryDx=0;entryDy=0;exitX=1;exitY=0.25;exitDx=0;exitDy=0;" parent="lxjUXwzADZwS_2gR55LD-1" source="MeCdI-9sCwytCYpMsTmT-0" target="s8_cs4FRZgdI1ptDkuvB-5" edge="1">
          <mxGeometry width="50" height="50" relative="1" as="geometry">
            <mxPoint x="490" y="325" as="sourcePoint" />
            <mxPoint x="540" y="275" as="targetPoint" />
            <Array as="points">
              <mxPoint x="500" y="265" />
            </Array>
          </mxGeometry>
        </mxCell>
        <mxCell id="s8_cs4FRZgdI1ptDkuvB-20" value="&lt;font style=&quot;font-size: 19px&quot;&gt;SeTup&lt;/font&gt;" style="edgeLabel;html=1;align=center;verticalAlign=middle;resizable=0;points=[];fontSize=17;rotation=-17;" parent="s8_cs4FRZgdI1ptDkuvB-19" vertex="1" connectable="0">
          <mxGeometry x="0.0355" y="1" relative="1" as="geometry">
            <mxPoint y="23.94" as="offset" />
          </mxGeometry>
        </mxCell>
        <mxCell id="s8_cs4FRZgdI1ptDkuvB-23" value="&lt;font style=&quot;font-size: 25px&quot;&gt;&amp;nbsp;TaskExecutor&lt;/font&gt;" style="rounded=0;whiteSpace=wrap;html=1;fontSize=17;align=left;dashed=1;labelPosition=center;verticalLabelPosition=middle;verticalAlign=top;strokeWidth=2;" parent="lxjUXwzADZwS_2gR55LD-1" vertex="1">
          <mxGeometry x="100" y="680" width="1340" height="520" as="geometry" />
        </mxCell>
        <mxCell id="s8_cs4FRZgdI1ptDkuvB-25" value="" style="rounded=0;whiteSpace=wrap;html=1;fontSize=17;align=left;dashed=1;labelPosition=center;verticalLabelPosition=top;verticalAlign=bottom;strokeWidth=2;fontColor=#3399FF;" parent="lxjUXwzADZwS_2gR55LD-1" vertex="1">
          <mxGeometry x="1030" y="730" width="340" height="300" as="geometry" />
        </mxCell>
        <mxCell id="s8_cs4FRZgdI1ptDkuvB-26" style="edgeStyle=orthogonalEdgeStyle;rounded=0;orthogonalLoop=1;jettySize=auto;html=1;fontSize=17;strokeWidth=3;fontColor=#3399FF;" parent="lxjUXwzADZwS_2gR55LD-1" source="s8_cs4FRZgdI1ptDkuvB-28" target="s8_cs4FRZgdI1ptDkuvB-29" edge="1">
          <mxGeometry relative="1" as="geometry" />
        </mxCell>
        <mxCell id="s8_cs4FRZgdI1ptDkuvB-27" value="&lt;font style=&quot;font-size: 14px&quot;&gt;Ceate&amp;nbsp;&lt;span style=&quot;background-color: rgb(248 , 249 , 250)&quot;&gt;Shuffle Environment&lt;/span&gt;&lt;/font&gt;" style="edgeLabel;html=1;align=center;verticalAlign=middle;resizable=0;points=[];fontSize=17;fontColor=#3399FF;" parent="s8_cs4FRZgdI1ptDkuvB-26" vertex="1" connectable="0">
          <mxGeometry x="-0.2" y="4" relative="1" as="geometry">
            <mxPoint x="76" as="offset" />
          </mxGeometry>
        </mxCell>
        <mxCell id="s8_cs4FRZgdI1ptDkuvB-28" value="&lt;font style=&quot;font-size: 23px&quot;&gt;Shuffle Service Factory&lt;/font&gt;" style="rounded=0;whiteSpace=wrap;html=1;strokeWidth=2;fontSize=17;align=center;fontColor=#3399FF;" parent="lxjUXwzADZwS_2gR55LD-1" vertex="1">
          <mxGeometry x="1080" y="770" width="240" height="70" as="geometry" />
        </mxCell>
        <mxCell id="s8_cs4FRZgdI1ptDkuvB-29" value="&lt;font style=&quot;font-size: 23px&quot;&gt;Shuffle Environment&lt;/font&gt;" style="rounded=0;whiteSpace=wrap;html=1;strokeWidth=2;fontSize=17;align=center;fontColor=#3399FF;" parent="lxjUXwzADZwS_2gR55LD-1" vertex="1">
          <mxGeometry x="1080" y="920" width="240" height="70" as="geometry" />
        </mxCell>
        <mxCell id="s8_cs4FRZgdI1ptDkuvB-30" value="&lt;font style=&quot;font-size: 23px&quot;&gt;SingleInputGate&lt;/font&gt;" style="rounded=0;whiteSpace=wrap;html=1;strokeWidth=2;fontSize=17;align=center;fontColor=#3399FF;" parent="lxjUXwzADZwS_2gR55LD-1" vertex="1">
          <mxGeometry x="600" y="862.5" width="240" height="70" as="geometry" />
        </mxCell>
        <mxCell id="s8_cs4FRZgdI1ptDkuvB-33" value="&lt;font style=&quot;font-size: 23px&quot;&gt;InputGate&lt;br&gt;DeploymentDescriptor&lt;/font&gt;&lt;span style=&quot;font-size: 19px&quot;&gt;&lt;br&gt;&lt;/span&gt;" style="rounded=0;whiteSpace=wrap;html=1;strokeWidth=2;fontSize=17;align=center;fontColor=#3399FF;" parent="lxjUXwzADZwS_2gR55LD-1" vertex="1">
          <mxGeometry x="600" y="1065" width="240" height="70" as="geometry" />
        </mxCell>
        <mxCell id="s8_cs4FRZgdI1ptDkuvB-40" value="" style="curved=1;endArrow=classic;html=1;strokeWidth=2;fontSize=17;entryX=0;entryY=0.5;entryDx=0;entryDy=0;exitX=1;exitY=0.75;exitDx=0;exitDy=0;" parent="lxjUXwzADZwS_2gR55LD-1" source="MeCdI-9sCwytCYpMsTmT-1" target="s8_cs4FRZgdI1ptDkuvB-33" edge="1">
          <mxGeometry width="50" height="50" relative="1" as="geometry">
            <mxPoint x="470" y="1100" as="sourcePoint" />
            <mxPoint x="520" y="1050" as="targetPoint" />
            <Array as="points">
              <mxPoint x="540" y="1090" />
            </Array>
          </mxGeometry>
        </mxCell>
        <mxCell id="s8_cs4FRZgdI1ptDkuvB-44" value="&lt;font style=&quot;font-size: 19px&quot;&gt;SeTup&lt;/font&gt;" style="edgeLabel;html=1;align=center;verticalAlign=middle;resizable=0;points=[];fontSize=17;rotation=23;" parent="s8_cs4FRZgdI1ptDkuvB-40" vertex="1" connectable="0">
          <mxGeometry x="0.0046" y="4" relative="1" as="geometry">
            <mxPoint x="-8.45" y="11.989999999999998" as="offset" />
          </mxGeometry>
        </mxCell>
        <mxCell id="s8_cs4FRZgdI1ptDkuvB-41" value="" style="curved=1;endArrow=classic;html=1;strokeWidth=2;fontSize=17;entryX=0;entryY=0.5;entryDx=0;entryDy=0;exitX=1;exitY=0.5;exitDx=0;exitDy=0;fontColor=#3399FF;" parent="lxjUXwzADZwS_2gR55LD-1" source="s8_cs4FRZgdI1ptDkuvB-33" target="s8_cs4FRZgdI1ptDkuvB-29" edge="1">
          <mxGeometry width="50" height="50" relative="1" as="geometry">
            <mxPoint x="910" y="1100" as="sourcePoint" />
            <mxPoint x="960" y="1050" as="targetPoint" />
            <Array as="points">
              <mxPoint x="920" y="1090" />
            </Array>
          </mxGeometry>
        </mxCell>
        <mxCell id="s8_cs4FRZgdI1ptDkuvB-47" value="&lt;font style=&quot;font-size: 19px&quot;&gt;createInputGates&lt;/font&gt;" style="edgeLabel;html=1;align=center;verticalAlign=middle;resizable=0;points=[];fontSize=17;rotation=-30;fontColor=#3399FF;" parent="s8_cs4FRZgdI1ptDkuvB-41" vertex="1" connectable="0">
          <mxGeometry x="-0.0829" y="6" relative="1" as="geometry">
            <mxPoint x="3.880000000000001" y="18.32" as="offset" />
          </mxGeometry>
        </mxCell>
        <mxCell id="s8_cs4FRZgdI1ptDkuvB-42" value="" style="curved=1;endArrow=classic;html=1;strokeWidth=2;fontSize=17;exitX=0;exitY=0.5;exitDx=0;exitDy=0;entryX=1;entryY=0.5;entryDx=0;entryDy=0;fontColor=#3399FF;" parent="lxjUXwzADZwS_2gR55LD-1" source="s8_cs4FRZgdI1ptDkuvB-29" target="s8_cs4FRZgdI1ptDkuvB-30" edge="1">
          <mxGeometry width="50" height="50" relative="1" as="geometry">
            <mxPoint x="930" y="980" as="sourcePoint" />
            <mxPoint x="980" y="930" as="targetPoint" />
            <Array as="points">
              <mxPoint x="940" y="910" />
            </Array>
          </mxGeometry>
        </mxCell>
        <mxCell id="s8_cs4FRZgdI1ptDkuvB-46" value="&lt;font style=&quot;font-size: 19px&quot;&gt;Return&lt;/font&gt;" style="edgeLabel;html=1;align=center;verticalAlign=middle;resizable=0;points=[];fontSize=17;rotation=15;fontColor=#3399FF;" parent="s8_cs4FRZgdI1ptDkuvB-42" vertex="1" connectable="0">
          <mxGeometry x="0.0533" y="3" relative="1" as="geometry">
            <mxPoint x="-4.76" y="14.61" as="offset" />
          </mxGeometry>
        </mxCell>
        <mxCell id="s8_cs4FRZgdI1ptDkuvB-43" value="" style="curved=1;endArrow=classic;html=1;strokeWidth=2;fontSize=17;exitX=0;exitY=0.5;exitDx=0;exitDy=0;entryX=1;entryY=0.25;entryDx=0;entryDy=0;" parent="lxjUXwzADZwS_2gR55LD-1" source="s8_cs4FRZgdI1ptDkuvB-30" target="MeCdI-9sCwytCYpMsTmT-1" edge="1">
          <mxGeometry width="50" height="50" relative="1" as="geometry">
            <mxPoint x="490" y="940" as="sourcePoint" />
            <mxPoint x="540" y="890" as="targetPoint" />
            <Array as="points">
              <mxPoint x="490" y="910" />
            </Array>
          </mxGeometry>
        </mxCell>
        <mxCell id="s8_cs4FRZgdI1ptDkuvB-45" value="&lt;font style=&quot;font-size: 19px&quot;&gt;Return&lt;/font&gt;" style="edgeLabel;html=1;align=center;verticalAlign=middle;resizable=0;points=[];fontSize=17;rotation=-15;" parent="s8_cs4FRZgdI1ptDkuvB-43" vertex="1" connectable="0">
          <mxGeometry x="-0.1056" y="2" relative="1" as="geometry">
            <mxPoint y="23.32" as="offset" />
          </mxGeometry>
        </mxCell>
        <mxCell id="MeCdI-9sCwytCYpMsTmT-0" value="&lt;font style=&quot;font-size: 22px&quot;&gt;TASK&lt;/font&gt;" style="rounded=0;whiteSpace=wrap;html=1;strokeColor=#000000;strokeWidth=2;fillColor=none;fontSize=17;fontColor=#000000;align=center;" parent="lxjUXwzADZwS_2gR55LD-1" vertex="1">
          <mxGeometry x="160" y="300" width="220" height="97.5" as="geometry" />
        </mxCell>
        <mxCell id="MeCdI-9sCwytCYpMsTmT-1" value="&lt;font style=&quot;font-size: 22px&quot;&gt;TASK&lt;/font&gt;" style="rounded=0;whiteSpace=wrap;html=1;strokeColor=#000000;strokeWidth=2;fillColor=none;fontSize=17;fontColor=#000000;align=center;" parent="lxjUXwzADZwS_2gR55LD-1" vertex="1">
          <mxGeometry x="160" y="932.5" width="220" height="107.5" as="geometry" />
        </mxCell>
        <mxCell id="MeCdI-9sCwytCYpMsTmT-3" value="" style="endArrow=classic;startArrow=classic;html=1;strokeColor=#000000;strokeWidth=1;fillColor=#666666;fontSize=17;fontColor=#000000;entryX=0.5;entryY=1;entryDx=0;entryDy=0;exitX=0.5;exitY=0;exitDx=0;exitDy=0;shape=flexArrow;" parent="lxjUXwzADZwS_2gR55LD-1" source="s8_cs4FRZgdI1ptDkuvB-30" target="s8_cs4FRZgdI1ptDkuvB-12" edge="1">
          <mxGeometry width="50" height="50" relative="1" as="geometry">
            <mxPoint x="700" y="650" as="sourcePoint" />
            <mxPoint x="750" y="600" as="targetPoint" />
          </mxGeometry>
        </mxCell>
      </root>
    </mxGraphModel>
  </diagram>
  <diagram id="8GMxs8H-0PVFON5xGXdo" name="JobDeployment">
    <mxGraphModel dx="1106" dy="1924" grid="1" gridSize="10" guides="1" tooltips="1" connect="1" arrows="1" fold="1" page="1" pageScale="1" pageWidth="827" pageHeight="1169" math="0" shadow="0">
      <root>
        <mxCell id="BLFHx5Ha28g_WUOH8OAa-0" />
        <mxCell id="BLFHx5Ha28g_WUOH8OAa-1" parent="BLFHx5Ha28g_WUOH8OAa-0" />
        <mxCell id="p4WSkSsBIJ2rCUW_06pS-0" value="JobMaster" style="rounded=0;whiteSpace=wrap;html=1;dashed=1;labelBackgroundColor=none;strokeColor=#000000;strokeWidth=2;fillColor=#ffffff;fontSize=22;fontColor=none;align=left;verticalAlign=top;" parent="BLFHx5Ha28g_WUOH8OAa-1" vertex="1">
          <mxGeometry x="110" y="-10" width="780" height="750" as="geometry" />
        </mxCell>
        <mxCell id="BsIdOObUI_282DxkleCN-26" value="" style="group;verticalAlign=middle;align=center;fillColor=#CCFFCC;fontSize=12;" parent="BLFHx5Ha28g_WUOH8OAa-1" vertex="1" connectable="0">
          <mxGeometry x="200" y="50" width="553.75" height="150" as="geometry" />
        </mxCell>
        <mxCell id="ugI0x-Ju-TQr6tbIFrd4-33" value="ScheduleNG" style="rounded=0;whiteSpace=wrap;html=1;labelBackgroundColor=none;strokeColor=#000000;strokeWidth=2;fillColor=none;fontSize=17;fontColor=none;align=center;" parent="BLFHx5Ha28g_WUOH8OAa-1" vertex="1">
          <mxGeometry x="414" y="330" width="120" height="100" as="geometry" />
        </mxCell>
        <mxCell id="ugI0x-Ju-TQr6tbIFrd4-36" value="ResourceManager" style="rounded=0;whiteSpace=wrap;html=1;labelBackgroundColor=none;strokeColor=#000000;strokeWidth=2;fillColor=none;fontSize=17;fontColor=none;align=center;" parent="BLFHx5Ha28g_WUOH8OAa-1" vertex="1">
          <mxGeometry x="703.12" y="580" width="166" height="60" as="geometry" />
        </mxCell>
        <mxCell id="ugI0x-Ju-TQr6tbIFrd4-40" value="" style="endArrow=classic;startArrow=classic;html=1;strokeColor=#000000;strokeWidth=1;fillColor=#666666;fontSize=17;fontColor=none;entryX=0.5;entryY=1;entryDx=0;entryDy=0;exitX=0.5;exitY=0;exitDx=0;exitDy=0;shape=flexArrow;" parent="BLFHx5Ha28g_WUOH8OAa-1" source="ugI0x-Ju-TQr6tbIFrd4-33" target="p4WSkSsBIJ2rCUW_06pS-1" edge="1">
          <mxGeometry width="50" height="50" relative="1" as="geometry">
            <mxPoint x="420" y="270" as="sourcePoint" />
            <mxPoint x="470" y="220" as="targetPoint" />
          </mxGeometry>
        </mxCell>
        <mxCell id="p4WSkSsBIJ2rCUW_06pS-1" value="&lt;font style=&quot;font-size: 19px&quot;&gt;&amp;nbsp;Execution Graph&lt;/font&gt;" style="rounded=0;whiteSpace=wrap;html=1;labelBackgroundColor=none;strokeColor=#000000;strokeWidth=2;fillColor=#ffffff;fontSize=17;fontColor=none;align=left;verticalAlign=top;" parent="BLFHx5Ha28g_WUOH8OAa-1" vertex="1">
          <mxGeometry x="200" y="50" width="553.75" height="150" as="geometry" />
        </mxCell>
        <mxCell id="p4WSkSsBIJ2rCUW_06pS-3" value="1" style="ellipse;whiteSpace=wrap;html=1;labelBackgroundColor=none;strokeColor=#000000;strokeWidth=2;fillColor=#999999;fontSize=22;fontColor=none;align=center;" parent="BLFHx5Ha28g_WUOH8OAa-1" vertex="1">
          <mxGeometry x="250.62857142857143" y="99.99727272727273" width="75.94285714285715" height="54.54545454545455" as="geometry" />
        </mxCell>
        <mxCell id="BsIdOObUI_282DxkleCN-22" value="2" style="ellipse;whiteSpace=wrap;html=1;labelBackgroundColor=none;strokeColor=#000000;strokeWidth=2;fillColor=#999999;fontSize=22;fontColor=none;align=center;" parent="BLFHx5Ha28g_WUOH8OAa-1" vertex="1">
          <mxGeometry x="438.90357142857147" y="99.99727272727273" width="75.94285714285715" height="54.54545454545455" as="geometry" />
        </mxCell>
        <mxCell id="BsIdOObUI_282DxkleCN-24" style="edgeStyle=none;orthogonalLoop=1;jettySize=auto;html=1;entryX=0;entryY=0.5;entryDx=0;entryDy=0;strokeColor=#000000;strokeWidth=2;fillColor=#666666;fontSize=18;fontColor=none;" parent="BLFHx5Ha28g_WUOH8OAa-1" source="p4WSkSsBIJ2rCUW_06pS-3" target="BsIdOObUI_282DxkleCN-22" edge="1">
          <mxGeometry relative="1" as="geometry" />
        </mxCell>
        <mxCell id="BsIdOObUI_282DxkleCN-23" value="3" style="ellipse;whiteSpace=wrap;html=1;labelBackgroundColor=none;strokeColor=#000000;strokeWidth=2;fillColor=#999999;fontSize=22;fontColor=none;align=center;" parent="BLFHx5Ha28g_WUOH8OAa-1" vertex="1">
          <mxGeometry x="627.1785714285714" y="99.99727272727273" width="75.94285714285715" height="54.54545454545455" as="geometry" />
        </mxCell>
        <mxCell id="BsIdOObUI_282DxkleCN-25" style="edgeStyle=none;orthogonalLoop=1;jettySize=auto;html=1;entryX=0;entryY=0.5;entryDx=0;entryDy=0;strokeColor=#000000;strokeWidth=2;fillColor=#666666;fontSize=18;fontColor=none;" parent="BLFHx5Ha28g_WUOH8OAa-1" source="BsIdOObUI_282DxkleCN-22" target="BsIdOObUI_282DxkleCN-23" edge="1">
          <mxGeometry relative="1" as="geometry" />
        </mxCell>
        <mxCell id="ugI0x-Ju-TQr6tbIFrd4-42" value="TaskManager" style="rounded=0;whiteSpace=wrap;html=1;dashed=1;labelBackgroundColor=none;strokeColor=#000000;strokeWidth=2;fillColor=#ffffff;fontSize=22;fontColor=none;align=left;verticalAlign=top;" parent="BLFHx5Ha28g_WUOH8OAa-1" vertex="1">
          <mxGeometry x="1100" width="580" height="240" as="geometry" />
        </mxCell>
        <mxCell id="ugI0x-Ju-TQr6tbIFrd4-43" value="&lt;font style=&quot;font-size: 19px&quot;&gt;Result Partition&lt;br&gt;Manager&lt;/font&gt;" style="rounded=0;whiteSpace=wrap;html=1;labelBackgroundColor=none;strokeColor=#000000;strokeWidth=2;fillColor=none;fontSize=17;fontColor=none;align=center;" parent="BLFHx5Ha28g_WUOH8OAa-1" vertex="1">
          <mxGeometry x="1470" y="55" width="151" height="130" as="geometry" />
        </mxCell>
        <mxCell id="ugI0x-Ju-TQr6tbIFrd4-46" value="Slot" style="rounded=0;whiteSpace=wrap;html=1;labelBackgroundColor=none;strokeColor=#000000;strokeWidth=2;fillColor=none;fontSize=17;fontColor=none;align=left;verticalAlign=top;" parent="BLFHx5Ha28g_WUOH8OAa-1" vertex="1">
          <mxGeometry x="1170" y="60" width="200" height="120" as="geometry" />
        </mxCell>
        <mxCell id="ugI0x-Ju-TQr6tbIFrd4-47" value="1" style="ellipse;whiteSpace=wrap;html=1;labelBackgroundColor=none;strokeColor=#000000;strokeWidth=2;fillColor=#999999;fontSize=22;fontColor=none;align=center;" parent="BLFHx5Ha28g_WUOH8OAa-1" vertex="1">
          <mxGeometry x="1232.0285714285715" y="92.72727272727273" width="75.94285714285715" height="54.54545454545455" as="geometry" />
        </mxCell>
        <mxCell id="ugI0x-Ju-TQr6tbIFrd4-48" value="" style="endArrow=classic;startArrow=classic;html=1;strokeColor=#000000;strokeWidth=1;fillColor=#666666;fontSize=17;fontColor=none;exitX=1;exitY=0.5;exitDx=0;exitDy=0;entryX=0;entryY=0.5;entryDx=0;entryDy=0;shape=flexArrow;" parent="BLFHx5Ha28g_WUOH8OAa-1" source="ugI0x-Ju-TQr6tbIFrd4-46" target="ugI0x-Ju-TQr6tbIFrd4-43" edge="1">
          <mxGeometry width="50" height="50" relative="1" as="geometry">
            <mxPoint x="1410" y="140" as="sourcePoint" />
            <mxPoint x="1460" y="90" as="targetPoint" />
          </mxGeometry>
        </mxCell>
        <mxCell id="ugI0x-Ju-TQr6tbIFrd4-49" value="TaskManager" style="rounded=0;whiteSpace=wrap;html=1;dashed=1;labelBackgroundColor=none;strokeColor=#000000;strokeWidth=2;fillColor=#ffffff;fontSize=22;fontColor=none;align=left;verticalAlign=top;" parent="BLFHx5Ha28g_WUOH8OAa-1" vertex="1">
          <mxGeometry x="1100" y="490" width="580" height="240" as="geometry" />
        </mxCell>
        <mxCell id="ugI0x-Ju-TQr6tbIFrd4-50" value="&lt;font style=&quot;font-size: 19px&quot;&gt;Result Partition&lt;br&gt;Manager&lt;/font&gt;" style="rounded=0;whiteSpace=wrap;html=1;labelBackgroundColor=none;strokeColor=#000000;strokeWidth=2;fillColor=none;fontSize=17;fontColor=none;align=center;" parent="BLFHx5Ha28g_WUOH8OAa-1" vertex="1">
          <mxGeometry x="1470" y="545" width="151" height="130" as="geometry" />
        </mxCell>
        <mxCell id="ugI0x-Ju-TQr6tbIFrd4-51" value="Slot" style="rounded=0;whiteSpace=wrap;html=1;labelBackgroundColor=none;strokeColor=#000000;strokeWidth=2;fillColor=none;fontSize=17;fontColor=none;align=left;verticalAlign=top;" parent="BLFHx5Ha28g_WUOH8OAa-1" vertex="1">
          <mxGeometry x="1170" y="550" width="200" height="120" as="geometry" />
        </mxCell>
        <mxCell id="ugI0x-Ju-TQr6tbIFrd4-52" value="2" style="ellipse;whiteSpace=wrap;html=1;labelBackgroundColor=none;strokeColor=#000000;strokeWidth=2;fillColor=#999999;fontSize=22;fontColor=none;align=center;" parent="BLFHx5Ha28g_WUOH8OAa-1" vertex="1">
          <mxGeometry x="1232.0285714285715" y="582.7272727272727" width="75.94285714285715" height="54.54545454545455" as="geometry" />
        </mxCell>
        <mxCell id="ugI0x-Ju-TQr6tbIFrd4-53" value="" style="endArrow=classic;startArrow=classic;html=1;strokeColor=#000000;strokeWidth=1;fillColor=#666666;fontSize=17;fontColor=none;exitX=1;exitY=0.5;exitDx=0;exitDy=0;entryX=0;entryY=0.5;entryDx=0;entryDy=0;shape=flexArrow;" parent="BLFHx5Ha28g_WUOH8OAa-1" source="ugI0x-Ju-TQr6tbIFrd4-51" target="ugI0x-Ju-TQr6tbIFrd4-50" edge="1">
          <mxGeometry width="50" height="50" relative="1" as="geometry">
            <mxPoint x="1410" y="630" as="sourcePoint" />
            <mxPoint x="1460" y="580" as="targetPoint" />
          </mxGeometry>
        </mxCell>
        <mxCell id="ugI0x-Ju-TQr6tbIFrd4-56" value="" style="curved=1;endArrow=classic;html=1;strokeColor=#000000;strokeWidth=1;fillColor=#666666;fontSize=17;fontColor=none;entryX=0;entryY=0.5;entryDx=0;entryDy=0;exitX=1;exitY=0.5;exitDx=0;exitDy=0;" parent="BLFHx5Ha28g_WUOH8OAa-1" source="p4WSkSsBIJ2rCUW_06pS-1" target="ugI0x-Ju-TQr6tbIFrd4-42" edge="1">
          <mxGeometry width="50" height="50" relative="1" as="geometry">
            <mxPoint x="950" y="110" as="sourcePoint" />
            <mxPoint x="1000" y="60" as="targetPoint" />
            <Array as="points" />
          </mxGeometry>
        </mxCell>
        <mxCell id="ugI0x-Ju-TQr6tbIFrd4-57" value="① deoloy" style="edgeLabel;html=1;align=center;verticalAlign=middle;resizable=0;points=[];fontSize=20;fontColor=none;rotation=0;" parent="ugI0x-Ju-TQr6tbIFrd4-56" vertex="1" connectable="0">
          <mxGeometry x="0.0079" y="-20" relative="1" as="geometry">
            <mxPoint x="31.31" y="-35.480000000000004" as="offset" />
          </mxGeometry>
        </mxCell>
        <mxCell id="ugI0x-Ju-TQr6tbIFrd4-58" value="" style="curved=1;endArrow=classic;html=1;strokeColor=#000000;strokeWidth=1;fillColor=#666666;fontSize=17;fontColor=none;exitX=0;exitY=0.5;exitDx=0;exitDy=0;entryX=1;entryY=0.25;entryDx=0;entryDy=0;" parent="BLFHx5Ha28g_WUOH8OAa-1" source="ugI0x-Ju-TQr6tbIFrd4-42" target="ugI0x-Ju-TQr6tbIFrd4-33" edge="1">
          <mxGeometry width="50" height="50" relative="1" as="geometry">
            <mxPoint x="960" y="200" as="sourcePoint" />
            <mxPoint x="1010" y="150" as="targetPoint" />
            <Array as="points">
              <mxPoint x="1000" y="190" />
              <mxPoint x="820" y="280" />
            </Array>
          </mxGeometry>
        </mxCell>
        <mxCell id="ugI0x-Ju-TQr6tbIFrd4-59" value="② finish" style="edgeLabel;html=1;align=center;verticalAlign=middle;resizable=0;points=[];fontSize=20;fontColor=none;rotation=-30;" parent="ugI0x-Ju-TQr6tbIFrd4-58" vertex="1" connectable="0">
          <mxGeometry x="-0.3687" y="-2" relative="1" as="geometry">
            <mxPoint x="20.759999999999998" y="-26.15" as="offset" />
          </mxGeometry>
        </mxCell>
        <mxCell id="ugI0x-Ju-TQr6tbIFrd4-60" value="" style="curved=1;endArrow=classic;html=1;strokeColor=#000000;strokeWidth=1;fillColor=#666666;fontSize=17;fontColor=none;entryX=0;entryY=0.5;entryDx=0;entryDy=0;exitX=1;exitY=0.5;exitDx=0;exitDy=0;" parent="BLFHx5Ha28g_WUOH8OAa-1" source="p4WSkSsBIJ2rCUW_06pS-1" target="ugI0x-Ju-TQr6tbIFrd4-49" edge="1">
          <mxGeometry width="50" height="50" relative="1" as="geometry">
            <mxPoint x="830" y="140" as="sourcePoint" />
            <mxPoint x="1030" y="370" as="targetPoint" />
            <Array as="points" />
          </mxGeometry>
        </mxCell>
        <mxCell id="ugI0x-Ju-TQr6tbIFrd4-61" value="④ deoloy" style="edgeLabel;html=1;align=center;verticalAlign=middle;resizable=0;points=[];fontSize=20;fontColor=none;rotation=54;" parent="ugI0x-Ju-TQr6tbIFrd4-60" vertex="1" connectable="0">
          <mxGeometry x="-0.0181" y="2" relative="1" as="geometry">
            <mxPoint x="87.15" y="98.77" as="offset" />
          </mxGeometry>
        </mxCell>
        <mxCell id="ugI0x-Ju-TQr6tbIFrd4-63" value="" style="curved=1;endArrow=classic;html=1;strokeColor=#000000;strokeWidth=1;fillColor=#666666;fontSize=17;fontColor=none;exitX=0;exitY=0.5;exitDx=0;exitDy=0;entryX=1;entryY=0.75;entryDx=0;entryDy=0;" parent="BLFHx5Ha28g_WUOH8OAa-1" source="ugI0x-Ju-TQr6tbIFrd4-49" target="ugI0x-Ju-TQr6tbIFrd4-33" edge="1">
          <mxGeometry width="50" height="50" relative="1" as="geometry">
            <mxPoint x="930" y="430" as="sourcePoint" />
            <mxPoint x="980" y="380" as="targetPoint" />
            <Array as="points" />
          </mxGeometry>
        </mxCell>
        <mxCell id="ugI0x-Ju-TQr6tbIFrd4-64" value="⑤ finish" style="edgeLabel;html=1;align=center;verticalAlign=middle;resizable=0;points=[];fontSize=20;fontColor=none;rotation=19;" parent="ugI0x-Ju-TQr6tbIFrd4-63" vertex="1" connectable="0">
          <mxGeometry x="-0.2447" y="-2" relative="1" as="geometry">
            <mxPoint x="52.419999999999995" y="5.720000000000002" as="offset" />
          </mxGeometry>
        </mxCell>
        <mxCell id="ugI0x-Ju-TQr6tbIFrd4-69" value="" style="curved=1;endArrow=classic;html=1;strokeColor=#000000;strokeWidth=1;fillColor=#666666;fontSize=17;fontColor=none;exitX=1;exitY=0.5;exitDx=0;exitDy=0;entryX=0.305;entryY=1.007;entryDx=0;entryDy=0;entryPerimeter=0;" parent="BLFHx5Ha28g_WUOH8OAa-1" source="ugI0x-Ju-TQr6tbIFrd4-33" target="ugI0x-Ju-TQr6tbIFrd4-42" edge="1">
          <mxGeometry width="50" height="50" relative="1" as="geometry">
            <mxPoint x="1190" y="340" as="sourcePoint" />
            <mxPoint x="1240" y="290" as="targetPoint" />
            <Array as="points">
              <mxPoint x="1190" y="280" />
            </Array>
          </mxGeometry>
        </mxCell>
        <mxCell id="ugI0x-Ju-TQr6tbIFrd4-70" value="&amp;nbsp;③ free slot" style="edgeLabel;html=1;align=center;verticalAlign=middle;resizable=0;points=[];fontSize=20;fontColor=none;rotation=-10;" parent="ugI0x-Ju-TQr6tbIFrd4-69" vertex="1" connectable="0">
          <mxGeometry x="0.296" y="-1" relative="1" as="geometry">
            <mxPoint x="-29.819999999999997" y="-15.07" as="offset" />
          </mxGeometry>
        </mxCell>
        <mxCell id="ugI0x-Ju-TQr6tbIFrd4-71" value="" style="curved=1;endArrow=classic;html=1;strokeColor=#000000;strokeWidth=1;fillColor=#666666;fontSize=17;fontColor=none;entryX=0.5;entryY=1;entryDx=0;entryDy=0;exitX=1;exitY=0.5;exitDx=0;exitDy=0;" parent="BLFHx5Ha28g_WUOH8OAa-1" source="ugI0x-Ju-TQr6tbIFrd4-33" target="ugI0x-Ju-TQr6tbIFrd4-42" edge="1">
          <mxGeometry width="50" height="50" relative="1" as="geometry">
            <mxPoint x="1260" y="390" as="sourcePoint" />
            <mxPoint x="1310" y="340" as="targetPoint" />
            <Array as="points">
              <mxPoint x="1100" y="420" />
              <mxPoint x="1380" y="350" />
            </Array>
          </mxGeometry>
        </mxCell>
        <mxCell id="ugI0x-Ju-TQr6tbIFrd4-72" value="⑥ release partition" style="edgeLabel;html=1;align=center;verticalAlign=middle;resizable=0;points=[];fontSize=20;fontColor=none;rotation=-1;" parent="ugI0x-Ju-TQr6tbIFrd4-71" vertex="1" connectable="0">
          <mxGeometry x="0.3083" y="4" relative="1" as="geometry">
            <mxPoint x="-87.28999999999999" y="-16.369999999999997" as="offset" />
          </mxGeometry>
        </mxCell>
        <mxCell id="56ALJ_g40k3IIU7g-wii-0" value="" style="rounded=0;whiteSpace=wrap;html=1;labelBackgroundColor=none;strokeColor=#000000;strokeWidth=2;fillColor=none;fontSize=20;fontColor=none;align=right;verticalAlign=middle;labelPosition=left;verticalLabelPosition=middle;dashed=1;" parent="BLFHx5Ha28g_WUOH8OAa-1" vertex="1">
          <mxGeometry x="336" y="520" width="276" height="180" as="geometry" />
        </mxCell>
        <mxCell id="LmhjE0bju6KfZVeKRttJ-0" value="schedule" style="rounded=0;whiteSpace=wrap;html=1;labelBackgroundColor=none;strokeColor=#000000;strokeWidth=2;fillColor=none;fontSize=20;fontColor=none;align=left;labelPosition=center;verticalLabelPosition=middle;verticalAlign=top;" parent="BLFHx5Ha28g_WUOH8OAa-1" vertex="1">
          <mxGeometry x="350" y="540" width="250" height="150" as="geometry" />
        </mxCell>
        <mxCell id="9X-G79DLsmKUmkG9NG7R-0" value="" style="shape=mxgraph.bpmn.loop;html=1;outlineConnect=0;labelBackgroundColor=none;strokeColor=#000000;strokeWidth=2;fillColor=none;fontSize=20;fontColor=none;align=left;" parent="BLFHx5Ha28g_WUOH8OAa-1" vertex="1">
          <mxGeometry x="461.88" y="660" width="30" height="30" as="geometry" />
        </mxCell>
        <mxCell id="JGs21sJXQn9g8PbrEC3q-0" value="Idle Check" style="rounded=0;whiteSpace=wrap;html=1;labelBackgroundColor=none;strokeColor=#000000;strokeWidth=2;fillColor=none;fontSize=20;fontColor=none;align=center;" parent="BLFHx5Ha28g_WUOH8OAa-1" vertex="1">
          <mxGeometry x="381.88" y="570" width="190" height="30" as="geometry" />
        </mxCell>
        <mxCell id="JGs21sJXQn9g8PbrEC3q-1" value="Partition Release Check" style="rounded=0;whiteSpace=wrap;html=1;labelBackgroundColor=none;strokeColor=#000000;strokeWidth=2;fillColor=none;fontSize=20;fontColor=none;align=center;" parent="BLFHx5Ha28g_WUOH8OAa-1" vertex="1">
          <mxGeometry x="366.88" y="610" width="220" height="40" as="geometry" />
        </mxCell>
        <mxCell id="FVJ1stuWS471zBEobJ6--0" value="" style="endArrow=classic;startArrow=classic;html=1;strokeColor=#000000;strokeWidth=1;fillColor=#666666;fontSize=20;fontColor=none;entryX=0;entryY=0.5;entryDx=0;entryDy=0;exitX=1;exitY=0.5;exitDx=0;exitDy=0;shape=flexArrow;" parent="BLFHx5Ha28g_WUOH8OAa-1" source="56ALJ_g40k3IIU7g-wii-0" target="ugI0x-Ju-TQr6tbIFrd4-36" edge="1">
          <mxGeometry width="50" height="50" relative="1" as="geometry">
            <mxPoint x="630" y="640" as="sourcePoint" />
            <mxPoint x="680" y="590" as="targetPoint" />
          </mxGeometry>
        </mxCell>
        <mxCell id="FVJ1stuWS471zBEobJ6--2" value="" style="endArrow=classic;startArrow=classic;html=1;strokeColor=#000000;strokeWidth=1;fillColor=#666666;fontSize=20;fontColor=none;entryX=0.5;entryY=1;entryDx=0;entryDy=0;exitX=0.5;exitY=0;exitDx=0;exitDy=0;shape=flexArrow;" parent="BLFHx5Ha28g_WUOH8OAa-1" source="56ALJ_g40k3IIU7g-wii-0" target="ugI0x-Ju-TQr6tbIFrd4-33" edge="1">
          <mxGeometry width="50" height="50" relative="1" as="geometry">
            <mxPoint x="450" y="510" as="sourcePoint" />
            <mxPoint x="500" y="460" as="targetPoint" />
          </mxGeometry>
        </mxCell>
        <mxCell id="FVJ1stuWS471zBEobJ6--3" value="Slot Manager" style="text;html=1;strokeColor=none;fillColor=none;align=center;verticalAlign=middle;whiteSpace=wrap;rounded=0;dashed=1;labelBackgroundColor=none;fontSize=20;fontColor=none;rotation=-90;" parent="BLFHx5Ha28g_WUOH8OAa-1" vertex="1">
          <mxGeometry x="240" y="605" width="150" height="20" as="geometry" />
        </mxCell>
      </root>
    </mxGraphModel>
  </diagram>
  <diagram id="pj80JX6KEUK4h-zuIbG2" name="YarnShuffleService">
    <mxGraphModel dx="2037" dy="1464" grid="1" gridSize="10" guides="1" tooltips="1" connect="1" arrows="1" fold="1" page="1" pageScale="1" pageWidth="827" pageHeight="1169" math="0" shadow="0">
      <root>
        <mxCell id="nwM5yx1ag4VAwRwoDTti-0" />
        <mxCell id="nwM5yx1ag4VAwRwoDTti-1" parent="nwM5yx1ag4VAwRwoDTti-0" />
        <mxCell id="18AVz-5Ud-_5BHo38Tt9-0" value="&lt;font&gt;&lt;span style=&quot;font-size: 22px&quot;&gt;&amp;nbsp;NodeManager&lt;/span&gt;&lt;/font&gt;" style="rounded=0;whiteSpace=wrap;html=1;strokeWidth=2;fontSize=17;align=left;labelPosition=center;verticalLabelPosition=middle;verticalAlign=top;dashed=1;strokeColor=#000000;" parent="nwM5yx1ag4VAwRwoDTti-1" vertex="1">
          <mxGeometry x="970" y="155" width="730" height="390" as="geometry" />
        </mxCell>
        <mxCell id="LZz1oLfildKc8DeThMm3-0" value="&lt;font style=&quot;font-size: 22px&quot; color=&quot;#3399ff&quot;&gt;YarnShuffleService&lt;/font&gt;" style="rounded=0;whiteSpace=wrap;html=1;strokeColor=#000000;strokeWidth=2;fillColor=none;fontSize=17;fontColor=#000000;align=center;verticalAlign=top;" parent="nwM5yx1ag4VAwRwoDTti-1" vertex="1">
          <mxGeometry x="1000" y="210" width="680" height="310" as="geometry" />
        </mxCell>
        <mxCell id="59nl1mSv3jNFs5N7DR08-0" value="&lt;font color=&quot;#000000&quot; style=&quot;font-size: 22px&quot;&gt;&amp;nbsp;JobMaster&lt;/font&gt;" style="rounded=0;whiteSpace=wrap;html=1;strokeColor=#000000;strokeWidth=2;fontSize=17;fontColor=#3399FF;align=left;labelPosition=center;verticalLabelPosition=middle;verticalAlign=top;dashed=1;" parent="nwM5yx1ag4VAwRwoDTti-1" vertex="1">
          <mxGeometry x="40" y="160" width="730" height="390" as="geometry" />
        </mxCell>
        <mxCell id="cFR5CzzEL0RELlJ72RGi-27" value="" style="group" parent="nwM5yx1ag4VAwRwoDTti-1" vertex="1" connectable="0">
          <mxGeometry x="70" y="320" width="180" height="90" as="geometry" />
        </mxCell>
        <mxCell id="cFR5CzzEL0RELlJ72RGi-25" value="" style="group;align=center;verticalAlign=top;" parent="cFR5CzzEL0RELlJ72RGi-27" vertex="1" connectable="0">
          <mxGeometry width="180" height="90" as="geometry" />
        </mxCell>
        <mxCell id="cFR5CzzEL0RELlJ72RGi-12" value="&lt;font color=&quot;#000000&quot;&gt;ExecutionGraph&lt;/font&gt;" style="rounded=0;whiteSpace=wrap;html=1;strokeColor=#000000;strokeWidth=2;fontSize=17;fontColor=#3399FF;align=center;verticalAlign=top;" parent="cFR5CzzEL0RELlJ72RGi-25" vertex="1">
          <mxGeometry y="-13.09090909090909" width="180" height="103.0909090909091" as="geometry" />
        </mxCell>
        <mxCell id="cFR5CzzEL0RELlJ72RGi-13" value="" style="ellipse;whiteSpace=wrap;html=1;strokeColor=#000000;strokeWidth=2;fontSize=17;fontColor=#3399FF;align=left;fillColor=#999999;" parent="cFR5CzzEL0RELlJ72RGi-25" vertex="1">
          <mxGeometry x="135" y="32.72727272727272" width="35" height="24.545454545454547" as="geometry" />
        </mxCell>
        <mxCell id="cFR5CzzEL0RELlJ72RGi-14" value="" style="ellipse;whiteSpace=wrap;html=1;strokeColor=#000000;strokeWidth=2;fontSize=17;fontColor=#3399FF;align=left;fillColor=#999999;" parent="cFR5CzzEL0RELlJ72RGi-25" vertex="1">
          <mxGeometry x="10" y="32.72727272727272" width="35" height="24.545454545454547" as="geometry" />
        </mxCell>
        <mxCell id="cFR5CzzEL0RELlJ72RGi-15" value="" style="ellipse;whiteSpace=wrap;html=1;strokeColor=#000000;strokeWidth=2;fontSize=17;fontColor=#3399FF;align=left;fillColor=#999999;" parent="cFR5CzzEL0RELlJ72RGi-25" vertex="1">
          <mxGeometry x="72.5" y="14.999999999999995" width="35" height="24.545454545454547" as="geometry" />
        </mxCell>
        <mxCell id="cFR5CzzEL0RELlJ72RGi-16" value="" style="ellipse;whiteSpace=wrap;html=1;strokeColor=#000000;strokeWidth=2;fontSize=17;fontColor=#3399FF;align=left;fillColor=#999999;" parent="cFR5CzzEL0RELlJ72RGi-25" vertex="1">
          <mxGeometry x="72.5" y="53.18181818181817" width="35" height="24.545454545454547" as="geometry" />
        </mxCell>
        <mxCell id="cFR5CzzEL0RELlJ72RGi-18" value="" style="endArrow=classic;html=1;strokeColor=#000000;strokeWidth=2;fillColor=#666666;fontSize=17;fontColor=#3399FF;exitX=1;exitY=0;exitDx=0;exitDy=0;entryX=0;entryY=0.5;entryDx=0;entryDy=0;" parent="cFR5CzzEL0RELlJ72RGi-25" source="cFR5CzzEL0RELlJ72RGi-14" target="cFR5CzzEL0RELlJ72RGi-15" edge="1">
          <mxGeometry width="50" height="50" relative="1" as="geometry">
            <mxPoint x="225" y="-66.81818181818183" as="sourcePoint" />
            <mxPoint x="250" y="-94.09090909090908" as="targetPoint" />
          </mxGeometry>
        </mxCell>
        <mxCell id="cFR5CzzEL0RELlJ72RGi-20" value="" style="endArrow=classic;html=1;strokeColor=#000000;strokeWidth=2;fillColor=#666666;fontSize=17;fontColor=#3399FF;entryX=0;entryY=0;entryDx=0;entryDy=0;exitX=1;exitY=0.5;exitDx=0;exitDy=0;" parent="cFR5CzzEL0RELlJ72RGi-25" source="cFR5CzzEL0RELlJ72RGi-15" target="cFR5CzzEL0RELlJ72RGi-13" edge="1">
          <mxGeometry width="50" height="50" relative="1" as="geometry">
            <mxPoint x="129.99999999999997" y="42.272727272727266" as="sourcePoint" />
            <mxPoint x="154.99999999999997" y="14.999999999999995" as="targetPoint" />
          </mxGeometry>
        </mxCell>
        <mxCell id="cFR5CzzEL0RELlJ72RGi-21" value="" style="endArrow=classic;html=1;strokeColor=#000000;strokeWidth=2;fillColor=#666666;fontSize=17;fontColor=#3399FF;entryX=0;entryY=0.5;entryDx=0;entryDy=0;exitX=1;exitY=1;exitDx=0;exitDy=0;" parent="cFR5CzzEL0RELlJ72RGi-25" source="cFR5CzzEL0RELlJ72RGi-14" target="cFR5CzzEL0RELlJ72RGi-16" edge="1">
          <mxGeometry width="50" height="50" relative="1" as="geometry">
            <mxPoint x="24.999999999999996" y="91.36363636363636" as="sourcePoint" />
            <mxPoint x="49.99999999999999" y="64.09090909090908" as="targetPoint" />
          </mxGeometry>
        </mxCell>
        <mxCell id="cFR5CzzEL0RELlJ72RGi-22" value="" style="endArrow=classic;html=1;strokeColor=#000000;strokeWidth=2;fillColor=#666666;fontSize=17;fontColor=#3399FF;entryX=0;entryY=1;entryDx=0;entryDy=0;exitX=1;exitY=0.5;exitDx=0;exitDy=0;" parent="cFR5CzzEL0RELlJ72RGi-25" source="cFR5CzzEL0RELlJ72RGi-16" target="cFR5CzzEL0RELlJ72RGi-13" edge="1">
          <mxGeometry width="50" height="50" relative="1" as="geometry">
            <mxPoint x="119.99999999999997" y="85.9090909090909" as="sourcePoint" />
            <mxPoint x="145" y="58.63636363636364" as="targetPoint" />
          </mxGeometry>
        </mxCell>
        <mxCell id="A8JuoGLLpcK-yBUHdcIy-18" value="&lt;font color=&quot;#000000&quot; style=&quot;font-size: 22px&quot;&gt;&amp;nbsp;TaskManager&lt;/font&gt;" style="rounded=0;whiteSpace=wrap;html=1;strokeColor=#000000;strokeWidth=2;fontSize=17;fontColor=#3399FF;align=left;labelPosition=center;verticalLabelPosition=middle;verticalAlign=top;dashed=1;" parent="nwM5yx1ag4VAwRwoDTti-1" vertex="1">
          <mxGeometry x="40" y="710" width="730" height="390" as="geometry" />
        </mxCell>
        <mxCell id="anmoYNqb36134bpEFXgg-0" value="&lt;font style=&quot;font-size: 19px&quot;&gt;&amp;nbsp;Task&lt;/font&gt;" style="rounded=0;whiteSpace=wrap;html=1;fontSize=17;align=center;labelPosition=center;verticalLabelPosition=middle;verticalAlign=middle;strokeWidth=2;" parent="nwM5yx1ag4VAwRwoDTti-1" vertex="1">
          <mxGeometry x="70" y="850.63" width="150" height="88.75" as="geometry" />
        </mxCell>
        <mxCell id="lCrxh-L5jGUXbUDOdWj9-1" style="edgeStyle=orthogonalEdgeStyle;curved=1;orthogonalLoop=1;jettySize=auto;html=1;entryX=0;entryY=0.5;entryDx=0;entryDy=0;strokeColor=#000000;strokeWidth=2;fillColor=#666666;fontSize=17;fontColor=#000000;" parent="nwM5yx1ag4VAwRwoDTti-1" source="8k0XYVIC_4Ef0vWukpsB-0" target="8k0XYVIC_4Ef0vWukpsB-1" edge="1">
          <mxGeometry relative="1" as="geometry" />
        </mxCell>
        <mxCell id="8k0XYVIC_4Ef0vWukpsB-0" value="&lt;font style=&quot;font-size: 21px&quot; color=&quot;#3399ff&quot;&gt;transport server&lt;/font&gt;" style="shape=mxgraph.bpmn.loop;html=1;outlineConnect=0;align=center;labelPosition=center;verticalLabelPosition=top;verticalAlign=bottom;fontSize=19;strokeWidth=3;" parent="nwM5yx1ag4VAwRwoDTti-1" vertex="1">
          <mxGeometry x="1100" y="335" width="60" height="60" as="geometry" />
        </mxCell>
        <mxCell id="lCrxh-L5jGUXbUDOdWj9-2" style="edgeStyle=orthogonalEdgeStyle;curved=1;orthogonalLoop=1;jettySize=auto;html=1;entryX=0.5;entryY=0;entryDx=0;entryDy=0;strokeColor=#000000;strokeWidth=2;fillColor=#666666;fontSize=17;fontColor=#000000;" parent="nwM5yx1ag4VAwRwoDTti-1" source="8k0XYVIC_4Ef0vWukpsB-1" target="8k0XYVIC_4Ef0vWukpsB-2" edge="1">
          <mxGeometry relative="1" as="geometry" />
        </mxCell>
        <mxCell id="8k0XYVIC_4Ef0vWukpsB-1" value="&lt;span style=&quot;font-size: 19px&quot;&gt;MetaDataManage&lt;/span&gt;" style="rounded=0;whiteSpace=wrap;html=1;strokeWidth=2;fontSize=17;align=center;fontColor=#3399FF;" parent="nwM5yx1ag4VAwRwoDTti-1" vertex="1">
          <mxGeometry x="1325" y="260" width="250" height="70" as="geometry" />
        </mxCell>
        <mxCell id="S9INQ5myHEIvor8OUO9V-13" style="edgeStyle=orthogonalEdgeStyle;curved=1;orthogonalLoop=1;jettySize=auto;html=1;entryX=0.5;entryY=0;entryDx=0;entryDy=0;strokeColor=#000000;strokeWidth=2;fillColor=#666666;fontSize=17;fontColor=#000000;" parent="nwM5yx1ag4VAwRwoDTti-1" source="8k0XYVIC_4Ef0vWukpsB-2" target="S9INQ5myHEIvor8OUO9V-12" edge="1">
          <mxGeometry relative="1" as="geometry" />
        </mxCell>
        <mxCell id="8k0XYVIC_4Ef0vWukpsB-2" value="&lt;span style=&quot;font-size: 19px&quot;&gt;ResultPartitionManage&lt;/span&gt;" style="rounded=0;whiteSpace=wrap;html=1;strokeWidth=2;fontSize=17;align=center;fontColor=#3399FF;" parent="nwM5yx1ag4VAwRwoDTti-1" vertex="1">
          <mxGeometry x="1325" y="360" width="250" height="70" as="geometry" />
        </mxCell>
        <mxCell id="Acf50Qb5mIq7q1J8rfS9-5" value="" style="group" parent="nwM5yx1ag4VAwRwoDTti-1" vertex="1" connectable="0">
          <mxGeometry x="390" y="200" width="340" height="300" as="geometry" />
        </mxCell>
        <mxCell id="cFR5CzzEL0RELlJ72RGi-0" value="" style="rounded=0;whiteSpace=wrap;html=1;fontSize=17;align=left;dashed=1;labelPosition=center;verticalLabelPosition=top;verticalAlign=bottom;strokeWidth=2;fontColor=#3399FF;" parent="Acf50Qb5mIq7q1J8rfS9-5" vertex="1">
          <mxGeometry width="340" height="300" as="geometry" />
        </mxCell>
        <mxCell id="cFR5CzzEL0RELlJ72RGi-3" value="&lt;span&gt;Yarn Shuffle &lt;br&gt;Service Factory&lt;/span&gt;" style="rounded=0;whiteSpace=wrap;html=1;strokeWidth=2;fontSize=17;align=center;fontColor=#3399FF;" parent="Acf50Qb5mIq7q1J8rfS9-5" vertex="1">
          <mxGeometry x="70" y="20" width="210" height="50" as="geometry" />
        </mxCell>
        <mxCell id="cFR5CzzEL0RELlJ72RGi-4" value="&lt;font style=&quot;font-size: 17px&quot;&gt;Yarn Shuffle Master&lt;/font&gt;" style="rounded=0;whiteSpace=wrap;html=1;strokeWidth=2;fontSize=17;align=center;fontColor=#3399FF;" parent="Acf50Qb5mIq7q1J8rfS9-5" vertex="1">
          <mxGeometry x="65" y="110" width="220" height="60" as="geometry" />
        </mxCell>
        <mxCell id="cFR5CzzEL0RELlJ72RGi-1" style="edgeStyle=orthogonalEdgeStyle;rounded=0;orthogonalLoop=1;jettySize=auto;html=1;fontSize=17;strokeWidth=2;fontColor=#3399FF;" parent="Acf50Qb5mIq7q1J8rfS9-5" source="cFR5CzzEL0RELlJ72RGi-3" target="cFR5CzzEL0RELlJ72RGi-4" edge="1">
          <mxGeometry relative="1" as="geometry" />
        </mxCell>
        <mxCell id="cFR5CzzEL0RELlJ72RGi-2" value="&lt;font style=&quot;font-size: 13px&quot; color=&quot;#000000&quot;&gt;Ceate&amp;nbsp;&lt;span style=&quot;background-color: rgb(248 , 249 , 250)&quot;&gt;Shuffle Master&lt;/span&gt;&lt;/font&gt;" style="edgeLabel;html=1;align=center;verticalAlign=middle;resizable=0;points=[];fontSize=17;fontColor=#3399FF;" parent="cFR5CzzEL0RELlJ72RGi-1" vertex="1" connectable="0">
          <mxGeometry x="-0.2" y="4" relative="1" as="geometry">
            <mxPoint x="76" as="offset" />
          </mxGeometry>
        </mxCell>
        <mxCell id="Acf50Qb5mIq7q1J8rfS9-1" value="&lt;font style=&quot;font-size: 17px&quot; color=&quot;#3399ff&quot;&gt;transport&lt;/font&gt;" style="shape=mxgraph.bpmn.loop;html=1;outlineConnect=0;align=center;labelPosition=center;verticalLabelPosition=bottom;verticalAlign=top;fontSize=19;strokeWidth=3;" parent="Acf50Qb5mIq7q1J8rfS9-5" vertex="1">
          <mxGeometry x="145" y="208.75" width="60" height="60" as="geometry" />
        </mxCell>
        <mxCell id="Acf50Qb5mIq7q1J8rfS9-2" style="edgeStyle=orthogonalEdgeStyle;curved=1;orthogonalLoop=1;jettySize=auto;html=1;strokeColor=#000000;strokeWidth=2;fillColor=#666666;fontSize=17;fontColor=#000000;" parent="Acf50Qb5mIq7q1J8rfS9-5" source="cFR5CzzEL0RELlJ72RGi-4" target="Acf50Qb5mIq7q1J8rfS9-1" edge="1">
          <mxGeometry relative="1" as="geometry" />
        </mxCell>
        <mxCell id="Acf50Qb5mIq7q1J8rfS9-15" value="" style="rounded=0;whiteSpace=wrap;html=1;fontSize=17;align=left;dashed=1;labelPosition=center;verticalLabelPosition=top;verticalAlign=bottom;strokeWidth=2;fontColor=#3399FF;" parent="nwM5yx1ag4VAwRwoDTti-1" vertex="1">
          <mxGeometry x="395" y="760" width="340" height="300" as="geometry" />
        </mxCell>
        <mxCell id="Acf50Qb5mIq7q1J8rfS9-16" value="&lt;span&gt;Yarn Shuffle &lt;br&gt;Service Factory&lt;/span&gt;" style="rounded=0;whiteSpace=wrap;html=1;strokeWidth=2;fontSize=17;align=center;fontColor=#3399FF;" parent="nwM5yx1ag4VAwRwoDTti-1" vertex="1">
          <mxGeometry x="465" y="995" width="210" height="50" as="geometry" />
        </mxCell>
        <mxCell id="Acf50Qb5mIq7q1J8rfS9-17" value="&lt;font style=&quot;font-size: 17px&quot;&gt;Yarn Shuffle Environment&lt;/font&gt;" style="rounded=0;whiteSpace=wrap;html=1;strokeWidth=2;fontSize=17;align=center;fontColor=#3399FF;" parent="nwM5yx1ag4VAwRwoDTti-1" vertex="1">
          <mxGeometry x="460" y="880" width="220" height="60" as="geometry" />
        </mxCell>
        <mxCell id="Acf50Qb5mIq7q1J8rfS9-18" style="edgeStyle=orthogonalEdgeStyle;rounded=0;orthogonalLoop=1;jettySize=auto;html=1;fontSize=17;strokeWidth=2;fontColor=#3399FF;" parent="nwM5yx1ag4VAwRwoDTti-1" source="Acf50Qb5mIq7q1J8rfS9-16" target="Acf50Qb5mIq7q1J8rfS9-17" edge="1">
          <mxGeometry relative="1" as="geometry" />
        </mxCell>
        <mxCell id="Acf50Qb5mIq7q1J8rfS9-19" value="&lt;font style=&quot;font-size: 13px&quot; color=&quot;#000000&quot;&gt;Ceate&amp;nbsp;&lt;span style=&quot;background-color: rgb(248 , 249 , 250)&quot;&gt;Shuffle Environment&lt;/span&gt;&lt;/font&gt;" style="edgeLabel;html=1;align=center;verticalAlign=middle;resizable=0;points=[];fontSize=17;fontColor=#3399FF;" parent="Acf50Qb5mIq7q1J8rfS9-18" vertex="1" connectable="0">
          <mxGeometry x="-0.2" y="4" relative="1" as="geometry">
            <mxPoint x="84" y="-3" as="offset" />
          </mxGeometry>
        </mxCell>
        <mxCell id="Acf50Qb5mIq7q1J8rfS9-22" style="edgeStyle=orthogonalEdgeStyle;curved=1;orthogonalLoop=1;jettySize=auto;html=1;strokeColor=#3399FF;strokeWidth=2;fillColor=#666666;fontSize=17;fontColor=#000000;" parent="nwM5yx1ag4VAwRwoDTti-1" source="Acf50Qb5mIq7q1J8rfS9-20" target="8k0XYVIC_4Ef0vWukpsB-0" edge="1">
          <mxGeometry relative="1" as="geometry">
            <Array as="points">
              <mxPoint x="870" y="821" />
              <mxPoint x="870" y="365" />
            </Array>
          </mxGeometry>
        </mxCell>
        <mxCell id="0tY3EZe4Gb1fqQeZbBm6-1" value="&lt;font style=&quot;font-size: 17px&quot;&gt;ResultPartitionDeploymentDescriptor&lt;/font&gt;" style="edgeLabel;html=1;align=center;verticalAlign=middle;resizable=0;points=[];fontSize=17;fontColor=#000000;rotation=-75;" parent="Acf50Qb5mIq7q1J8rfS9-22" vertex="1" connectable="0">
          <mxGeometry x="-0.1518" y="28" relative="1" as="geometry">
            <mxPoint x="-12" y="-65.6" as="offset" />
          </mxGeometry>
        </mxCell>
        <mxCell id="do6SE4yec2mzjZWgrJBz-1" value="&lt;font style=&quot;font-size: 17px&quot;&gt;ResultPartitionID&lt;/font&gt;" style="edgeLabel;html=1;align=center;verticalAlign=middle;resizable=0;points=[];fontSize=17;fontColor=#000000;rotation=-75;" parent="Acf50Qb5mIq7q1J8rfS9-22" vertex="1" connectable="0">
          <mxGeometry x="-0.1587" y="26" relative="1" as="geometry">
            <mxPoint x="35.99999999999999" y="-38.599999999999994" as="offset" />
          </mxGeometry>
        </mxCell>
        <mxCell id="KrK1eg9aOUXMZJ85XeQL-1" value="&lt;span&gt;&lt;font color=&quot;#3399ff&quot;&gt;转发请求&lt;/font&gt;&lt;/span&gt;" style="edgeLabel;html=1;align=center;verticalAlign=middle;resizable=0;points=[];fontSize=14;fontColor=#000000;" parent="Acf50Qb5mIq7q1J8rfS9-22" vertex="1" connectable="0">
          <mxGeometry x="-0.8308" y="9" relative="1" as="geometry">
            <mxPoint as="offset" />
          </mxGeometry>
        </mxCell>
        <mxCell id="Acf50Qb5mIq7q1J8rfS9-20" value="&lt;font style=&quot;font-size: 17px&quot; color=&quot;#3399ff&quot;&gt;transport&lt;/font&gt;" style="shape=mxgraph.bpmn.loop;html=1;outlineConnect=0;align=center;labelPosition=center;verticalLabelPosition=top;verticalAlign=bottom;fontSize=19;strokeWidth=3;" parent="nwM5yx1ag4VAwRwoDTti-1" vertex="1">
          <mxGeometry x="540" y="790.63" width="60" height="60" as="geometry" />
        </mxCell>
        <mxCell id="Acf50Qb5mIq7q1J8rfS9-21" style="edgeStyle=orthogonalEdgeStyle;curved=1;orthogonalLoop=1;jettySize=auto;html=1;strokeColor=#000000;strokeWidth=2;fillColor=#666666;fontSize=17;fontColor=#000000;" parent="nwM5yx1ag4VAwRwoDTti-1" source="Acf50Qb5mIq7q1J8rfS9-17" target="Acf50Qb5mIq7q1J8rfS9-20" edge="1">
          <mxGeometry relative="1" as="geometry" />
        </mxCell>
        <mxCell id="Acf50Qb5mIq7q1J8rfS9-3" style="edgeStyle=orthogonalEdgeStyle;curved=1;orthogonalLoop=1;jettySize=auto;html=1;entryX=0.015;entryY=0.363;entryDx=0;entryDy=0;entryPerimeter=0;strokeColor=#3399FF;strokeWidth=2;fillColor=#666666;fontSize=17;fontColor=#000000;" parent="nwM5yx1ag4VAwRwoDTti-1" source="Acf50Qb5mIq7q1J8rfS9-1" target="8k0XYVIC_4Ef0vWukpsB-0" edge="1">
          <mxGeometry relative="1" as="geometry">
            <Array as="points">
              <mxPoint x="847" y="439" />
              <mxPoint x="847" y="357" />
            </Array>
          </mxGeometry>
        </mxCell>
        <mxCell id="0tY3EZe4Gb1fqQeZbBm6-0" value="ShuffleDescriptor" style="edgeLabel;html=1;align=center;verticalAlign=middle;resizable=0;points=[];fontSize=17;fontColor=#000000;rotation=-15;" parent="Acf50Qb5mIq7q1J8rfS9-3" vertex="1" connectable="0">
          <mxGeometry x="0.219" y="-15" relative="1" as="geometry">
            <mxPoint x="8.419999999999998" y="5.420000000000003" as="offset" />
          </mxGeometry>
        </mxCell>
        <mxCell id="KrK1eg9aOUXMZJ85XeQL-0" value="&lt;font color=&quot;#3399ff&quot;&gt;转发请求&lt;/font&gt;" style="edgeLabel;html=1;align=center;verticalAlign=middle;resizable=0;points=[];fontSize=14;fontColor=#000000;" parent="Acf50Qb5mIq7q1J8rfS9-3" vertex="1" connectable="0">
          <mxGeometry x="-0.7641" y="2" relative="1" as="geometry">
            <mxPoint as="offset" />
          </mxGeometry>
        </mxCell>
        <mxCell id="Acf50Qb5mIq7q1J8rfS9-23" value="&lt;font color=&quot;#000000&quot; style=&quot;font-size: 22px&quot;&gt;&amp;nbsp;TaskManager&lt;/font&gt;" style="rounded=0;whiteSpace=wrap;html=1;strokeColor=#000000;strokeWidth=2;fontSize=17;fontColor=#3399FF;align=left;labelPosition=center;verticalLabelPosition=middle;verticalAlign=top;dashed=1;" parent="nwM5yx1ag4VAwRwoDTti-1" vertex="1">
          <mxGeometry x="970" y="710" width="730" height="390" as="geometry" />
        </mxCell>
        <mxCell id="Acf50Qb5mIq7q1J8rfS9-24" value="&lt;font style=&quot;font-size: 19px&quot;&gt;&amp;nbsp;Task&lt;/font&gt;" style="rounded=0;whiteSpace=wrap;html=1;fontSize=17;align=center;labelPosition=center;verticalLabelPosition=middle;verticalAlign=middle;strokeWidth=2;" parent="nwM5yx1ag4VAwRwoDTti-1" vertex="1">
          <mxGeometry x="1530" y="880" width="150" height="88.75" as="geometry" />
        </mxCell>
        <mxCell id="S9INQ5myHEIvor8OUO9V-1" value="" style="endArrow=classic;startArrow=classic;html=1;strokeColor=#000000;strokeWidth=2;fillColor=#666666;fontSize=17;fontColor=#000000;entryX=0;entryY=0.5;entryDx=0;entryDy=0;exitX=1;exitY=0.5;exitDx=0;exitDy=0;" parent="nwM5yx1ag4VAwRwoDTti-1" source="cFR5CzzEL0RELlJ72RGi-12" target="cFR5CzzEL0RELlJ72RGi-4" edge="1">
          <mxGeometry width="50" height="50" relative="1" as="geometry">
            <mxPoint x="240" y="520" as="sourcePoint" />
            <mxPoint x="290" y="470" as="targetPoint" />
          </mxGeometry>
        </mxCell>
        <mxCell id="S9INQ5myHEIvor8OUO9V-2" value="register shuffle" style="edgeLabel;html=1;align=center;verticalAlign=middle;resizable=0;points=[];fontSize=17;fontColor=#000000;rotation=-5;" parent="S9INQ5myHEIvor8OUO9V-1" vertex="1" connectable="0">
          <mxGeometry x="-0.1208" y="1" relative="1" as="geometry">
            <mxPoint y="-14.39" as="offset" />
          </mxGeometry>
        </mxCell>
        <mxCell id="S9INQ5myHEIvor8OUO9V-3" value="release shuffle external" style="edgeLabel;html=1;align=center;verticalAlign=middle;resizable=0;points=[];fontSize=17;fontColor=#000000;rotation=-5;" parent="S9INQ5myHEIvor8OUO9V-1" vertex="1" connectable="0">
          <mxGeometry x="0.0484" y="2" relative="1" as="geometry">
            <mxPoint y="23.24" as="offset" />
          </mxGeometry>
        </mxCell>
        <mxCell id="S9INQ5myHEIvor8OUO9V-4" value="" style="endArrow=classic;startArrow=classic;html=1;strokeColor=#000000;strokeWidth=2;fillColor=#666666;fontSize=17;fontColor=#000000;entryX=0;entryY=0.5;entryDx=0;entryDy=0;exitX=1;exitY=0.5;exitDx=0;exitDy=0;" parent="nwM5yx1ag4VAwRwoDTti-1" source="anmoYNqb36134bpEFXgg-0" target="Acf50Qb5mIq7q1J8rfS9-17" edge="1">
          <mxGeometry width="50" height="50" relative="1" as="geometry">
            <mxPoint x="280" y="950" as="sourcePoint" />
            <mxPoint x="330" y="900" as="targetPoint" />
          </mxGeometry>
        </mxCell>
        <mxCell id="S9INQ5myHEIvor8OUO9V-5" value="createResultPartition" style="edgeLabel;html=1;align=center;verticalAlign=middle;resizable=0;points=[];fontSize=17;fontColor=#000000;rotation=4;" parent="S9INQ5myHEIvor8OUO9V-4" vertex="1" connectable="0">
          <mxGeometry x="-0.0427" y="1" relative="1" as="geometry">
            <mxPoint x="4.87" y="-11.19" as="offset" />
          </mxGeometry>
        </mxCell>
        <mxCell id="S9INQ5myHEIvor8OUO9V-6" value="release partitions" style="edgeLabel;html=1;align=center;verticalAlign=middle;resizable=0;points=[];fontSize=17;fontColor=#000000;rotation=4;" parent="S9INQ5myHEIvor8OUO9V-4" vertex="1" connectable="0">
          <mxGeometry x="-0.0549" y="2" relative="1" as="geometry">
            <mxPoint x="-3.7" y="19.9" as="offset" />
          </mxGeometry>
        </mxCell>
        <mxCell id="S9INQ5myHEIvor8OUO9V-12" value="&lt;span style=&quot;font-size: 19px&quot;&gt;ResultPartition&lt;/span&gt;" style="rounded=0;whiteSpace=wrap;html=1;strokeWidth=2;fontSize=17;align=center;fontColor=#000000;fillColor=#ffffff;" parent="nwM5yx1ag4VAwRwoDTti-1" vertex="1">
          <mxGeometry x="1347.5" y="460" width="205" height="40" as="geometry" />
        </mxCell>
        <mxCell id="S9INQ5myHEIvor8OUO9V-15" value="" style="group" parent="nwM5yx1ag4VAwRwoDTti-1" vertex="1" connectable="0">
          <mxGeometry x="1050" y="770" width="340" height="300" as="geometry" />
        </mxCell>
        <mxCell id="Acf50Qb5mIq7q1J8rfS9-25" value="" style="rounded=0;whiteSpace=wrap;html=1;fontSize=17;align=left;dashed=1;labelPosition=center;verticalLabelPosition=top;verticalAlign=bottom;strokeWidth=2;fontColor=#3399FF;" parent="S9INQ5myHEIvor8OUO9V-15" vertex="1">
          <mxGeometry width="340" height="300" as="geometry" />
        </mxCell>
        <mxCell id="Acf50Qb5mIq7q1J8rfS9-26" value="&lt;span&gt;Yarn Shuffle &lt;br&gt;Service Factory&lt;/span&gt;" style="rounded=0;whiteSpace=wrap;html=1;strokeWidth=2;fontSize=17;align=center;fontColor=#3399FF;" parent="S9INQ5myHEIvor8OUO9V-15" vertex="1">
          <mxGeometry x="70" y="235" width="210" height="50" as="geometry" />
        </mxCell>
        <mxCell id="Acf50Qb5mIq7q1J8rfS9-27" value="&lt;font style=&quot;font-size: 17px&quot;&gt;Yarn Shuffle Environment&lt;/font&gt;" style="rounded=0;whiteSpace=wrap;html=1;strokeWidth=2;fontSize=17;align=center;fontColor=#3399FF;" parent="S9INQ5myHEIvor8OUO9V-15" vertex="1">
          <mxGeometry x="65" y="120" width="220" height="60" as="geometry" />
        </mxCell>
        <mxCell id="Acf50Qb5mIq7q1J8rfS9-28" style="edgeStyle=orthogonalEdgeStyle;rounded=0;orthogonalLoop=1;jettySize=auto;html=1;fontSize=17;strokeWidth=2;fontColor=#3399FF;" parent="S9INQ5myHEIvor8OUO9V-15" source="Acf50Qb5mIq7q1J8rfS9-26" target="Acf50Qb5mIq7q1J8rfS9-27" edge="1">
          <mxGeometry relative="1" as="geometry" />
        </mxCell>
        <mxCell id="Acf50Qb5mIq7q1J8rfS9-29" value="&lt;font style=&quot;font-size: 13px&quot; color=&quot;#000000&quot;&gt;Ceate&amp;nbsp;&lt;span style=&quot;background-color: rgb(248 , 249 , 250)&quot;&gt;Shuffle Environment&lt;/span&gt;&lt;/font&gt;" style="edgeLabel;html=1;align=center;verticalAlign=middle;resizable=0;points=[];fontSize=17;fontColor=#3399FF;" parent="Acf50Qb5mIq7q1J8rfS9-28" vertex="1" connectable="0">
          <mxGeometry x="-0.2" y="4" relative="1" as="geometry">
            <mxPoint x="84" y="-3" as="offset" />
          </mxGeometry>
        </mxCell>
        <mxCell id="Acf50Qb5mIq7q1J8rfS9-30" value="&lt;font style=&quot;font-size: 17px&quot; color=&quot;#3399ff&quot;&gt;transport&lt;/font&gt;" style="shape=mxgraph.bpmn.loop;html=1;outlineConnect=0;align=center;labelPosition=center;verticalLabelPosition=top;verticalAlign=bottom;fontSize=19;strokeWidth=3;" parent="S9INQ5myHEIvor8OUO9V-15" vertex="1">
          <mxGeometry x="145" y="30.629999999999995" width="60" height="60" as="geometry" />
        </mxCell>
        <mxCell id="Acf50Qb5mIq7q1J8rfS9-31" style="edgeStyle=orthogonalEdgeStyle;curved=1;orthogonalLoop=1;jettySize=auto;html=1;strokeColor=#000000;strokeWidth=2;fillColor=#666666;fontSize=17;fontColor=#000000;" parent="S9INQ5myHEIvor8OUO9V-15" source="Acf50Qb5mIq7q1J8rfS9-27" target="Acf50Qb5mIq7q1J8rfS9-30" edge="1">
          <mxGeometry relative="1" as="geometry" />
        </mxCell>
        <mxCell id="lCrxh-L5jGUXbUDOdWj9-0" style="edgeStyle=orthogonalEdgeStyle;curved=1;orthogonalLoop=1;jettySize=auto;html=1;strokeColor=#3399FF;strokeWidth=2;fillColor=#666666;fontSize=17;fontColor=#000000;" parent="nwM5yx1ag4VAwRwoDTti-1" source="Acf50Qb5mIq7q1J8rfS9-30" target="8k0XYVIC_4Ef0vWukpsB-0" edge="1">
          <mxGeometry relative="1" as="geometry">
            <Array as="points">
              <mxPoint x="1160" y="831" />
              <mxPoint x="1160" y="620" />
              <mxPoint x="1130" y="620" />
            </Array>
          </mxGeometry>
        </mxCell>
        <mxCell id="do6SE4yec2mzjZWgrJBz-0" value="InputGateDeploymentDescriptor" style="edgeLabel;html=1;align=center;verticalAlign=middle;resizable=0;points=[];fontSize=17;fontColor=#000000;rotation=75;" parent="lCrxh-L5jGUXbUDOdWj9-0" vertex="1" connectable="0">
          <mxGeometry x="-0.031" y="-10" relative="1" as="geometry">
            <mxPoint x="-19.999999999999996" y="-3.552713678800501e-15" as="offset" />
          </mxGeometry>
        </mxCell>
        <mxCell id="KrK1eg9aOUXMZJ85XeQL-2" value="&lt;span&gt;&lt;font color=&quot;#3399ff&quot;&gt;转发请求&lt;/font&gt;&lt;/span&gt;" style="edgeLabel;html=1;align=center;verticalAlign=middle;resizable=0;points=[];fontSize=14;fontColor=#000000;" parent="lCrxh-L5jGUXbUDOdWj9-0" vertex="1" connectable="0">
          <mxGeometry x="-0.6623" y="-3" relative="1" as="geometry">
            <mxPoint as="offset" />
          </mxGeometry>
        </mxCell>
        <mxCell id="S9INQ5myHEIvor8OUO9V-16" style="edgeStyle=orthogonalEdgeStyle;curved=1;orthogonalLoop=1;jettySize=auto;html=1;entryX=1;entryY=0.75;entryDx=0;entryDy=0;strokeColor=#000000;strokeWidth=2;fillColor=#666666;fontSize=17;fontColor=#000000;" parent="nwM5yx1ag4VAwRwoDTti-1" source="Acf50Qb5mIq7q1J8rfS9-24" target="Acf50Qb5mIq7q1J8rfS9-27" edge="1">
          <mxGeometry relative="1" as="geometry">
            <Array as="points">
              <mxPoint x="1480" y="935" />
              <mxPoint x="1480" y="935" />
            </Array>
          </mxGeometry>
        </mxCell>
        <mxCell id="S9INQ5myHEIvor8OUO9V-18" value="createInputGates" style="edgeLabel;html=1;align=center;verticalAlign=middle;resizable=0;points=[];fontSize=17;fontColor=#000000;" parent="S9INQ5myHEIvor8OUO9V-16" vertex="1" connectable="0">
          <mxGeometry x="-0.2571" y="-2" relative="1" as="geometry">
            <mxPoint x="-7.43" y="16.98" as="offset" />
          </mxGeometry>
        </mxCell>
        <mxCell id="S9INQ5myHEIvor8OUO9V-19" value="&lt;font color=&quot;#3399ff&quot;&gt;InputGate&lt;/font&gt;" style="rounded=0;whiteSpace=wrap;html=1;strokeColor=#000000;strokeWidth=2;fillColor=#ffffff;fontSize=17;fontColor=#000000;align=center;rotation=-1;" parent="nwM5yx1ag4VAwRwoDTti-1" vertex="1">
          <mxGeometry x="1360" y="860" width="140" height="31" as="geometry" />
        </mxCell>
        <mxCell id="S9INQ5myHEIvor8OUO9V-17" style="edgeStyle=orthogonalEdgeStyle;curved=1;orthogonalLoop=1;jettySize=auto;html=1;exitX=1;exitY=0.25;exitDx=0;exitDy=0;entryX=0;entryY=0.25;entryDx=0;entryDy=0;strokeColor=#000000;strokeWidth=2;fillColor=#666666;fontSize=17;fontColor=#000000;" parent="nwM5yx1ag4VAwRwoDTti-1" source="Acf50Qb5mIq7q1J8rfS9-27" target="Acf50Qb5mIq7q1J8rfS9-24" edge="1">
          <mxGeometry relative="1" as="geometry" />
        </mxCell>
        <mxCell id="S9INQ5myHEIvor8OUO9V-20" value="" style="endArrow=classic;startArrow=classic;html=1;strokeColor=#000000;strokeWidth=2;fillColor=#666666;fontSize=17;fontColor=#000000;exitX=0.5;exitY=0;exitDx=0;exitDy=0;entryX=0.5;entryY=1;entryDx=0;entryDy=0;shape=flexArrow;" parent="nwM5yx1ag4VAwRwoDTti-1" source="S9INQ5myHEIvor8OUO9V-19" target="S9INQ5myHEIvor8OUO9V-12" edge="1">
          <mxGeometry width="50" height="50" relative="1" as="geometry">
            <mxPoint x="1450" y="660" as="sourcePoint" />
            <mxPoint x="1500" y="610" as="targetPoint" />
          </mxGeometry>
        </mxCell>
      </root>
    </mxGraphModel>
  </diagram>
  <diagram id="7FJH3LdcqyHcNZgFgJf_" name="NettyshuffleService">
    <mxGraphModel dx="2377" dy="1708" grid="1" gridSize="10" guides="1" tooltips="1" connect="1" arrows="1" fold="1" page="1" pageScale="1" pageWidth="827" pageHeight="1169" math="0" shadow="0">
      <root>
        <mxCell id="2-X7VkVo-mw4vhmnqDAe-0" />
        <mxCell id="2-X7VkVo-mw4vhmnqDAe-1" parent="2-X7VkVo-mw4vhmnqDAe-0" />
        <mxCell id="2v5yOsmrtpI3g_pN3GLr-0" value="&lt;font style=&quot;font-size: 25px&quot;&gt;JobMaster&lt;/font&gt;" style="rounded=0;whiteSpace=wrap;html=1;fontSize=17;align=left;dashed=1;labelPosition=center;verticalLabelPosition=middle;verticalAlign=top;strokeWidth=2;" parent="2-X7VkVo-mw4vhmnqDAe-1" vertex="1">
          <mxGeometry x="520" y="120" width="1340" height="650" as="geometry" />
        </mxCell>
        <mxCell id="2v5yOsmrtpI3g_pN3GLr-1" value="" style="rounded=0;whiteSpace=wrap;html=1;fontSize=17;align=left;dashed=1;labelPosition=center;verticalLabelPosition=top;verticalAlign=bottom;strokeWidth=2;fontColor=#3399FF;" parent="2-X7VkVo-mw4vhmnqDAe-1" vertex="1">
          <mxGeometry x="1554.5" y="200" width="271" height="285" as="geometry" />
        </mxCell>
        <mxCell id="2v5yOsmrtpI3g_pN3GLr-2" style="edgeStyle=orthogonalEdgeStyle;rounded=0;orthogonalLoop=1;jettySize=auto;html=1;fontSize=17;strokeWidth=2;fontColor=#3399FF;" parent="2-X7VkVo-mw4vhmnqDAe-1" source="2v5yOsmrtpI3g_pN3GLr-4" target="2v5yOsmrtpI3g_pN3GLr-5" edge="1">
          <mxGeometry relative="1" as="geometry" />
        </mxCell>
        <mxCell id="2v5yOsmrtpI3g_pN3GLr-3" value="&lt;font style=&quot;font-size: 16px&quot;&gt;Ceate &lt;span style=&quot;background-color: rgb(248 , 249 , 250)&quot;&gt;Master&lt;/span&gt;&lt;/font&gt;" style="edgeLabel;html=1;align=center;verticalAlign=middle;resizable=0;points=[];fontSize=17;fontColor=#3399FF;" parent="2v5yOsmrtpI3g_pN3GLr-2" vertex="1" connectable="0">
          <mxGeometry x="-0.2" y="4" relative="1" as="geometry">
            <mxPoint x="50.5" y="8.53" as="offset" />
          </mxGeometry>
        </mxCell>
        <mxCell id="2v5yOsmrtpI3g_pN3GLr-4" value="&lt;font style=&quot;font-size: 20px&quot;&gt;Shuffle Service Factory&lt;/font&gt;" style="rounded=0;whiteSpace=wrap;html=1;strokeWidth=3;fontSize=17;align=center;fontColor=#3399FF;" parent="2-X7VkVo-mw4vhmnqDAe-1" vertex="1">
          <mxGeometry x="1580" y="235" width="220" height="60" as="geometry" />
        </mxCell>
        <mxCell id="2v5yOsmrtpI3g_pN3GLr-5" value="&lt;font style=&quot;font-size: 20px&quot;&gt;Shuffle Master&lt;/font&gt;" style="rounded=0;whiteSpace=wrap;html=1;strokeWidth=3;fontSize=17;align=center;fontColor=#3399FF;" parent="2-X7VkVo-mw4vhmnqDAe-1" vertex="1">
          <mxGeometry x="1580" y="385" width="220" height="60" as="geometry" />
        </mxCell>
        <mxCell id="2v5yOsmrtpI3g_pN3GLr-6" value="" style="rounded=0;whiteSpace=wrap;html=1;strokeWidth=2;fontSize=17;align=center;fontColor=#3399FF;dashed=1;" parent="2-X7VkVo-mw4vhmnqDAe-1" vertex="1">
          <mxGeometry x="1029.5" y="160" width="310" height="210" as="geometry" />
        </mxCell>
        <mxCell id="2v5yOsmrtpI3g_pN3GLr-7" value="" style="curved=1;endArrow=classic;html=1;strokeWidth=2;fontSize=17;exitX=1;exitY=0.5;exitDx=0;exitDy=0;entryX=0;entryY=0.25;entryDx=0;entryDy=0;fontColor=#3399FF;" parent="2-X7VkVo-mw4vhmnqDAe-1" source="2v5yOsmrtpI3g_pN3GLr-6" target="2v5yOsmrtpI3g_pN3GLr-5" edge="1">
          <mxGeometry width="50" height="50" relative="1" as="geometry">
            <mxPoint x="1104.5" y="615" as="sourcePoint" />
            <mxPoint x="1154.5" y="565" as="targetPoint" />
            <Array as="points">
              <mxPoint x="1394.5" y="270" />
            </Array>
          </mxGeometry>
        </mxCell>
        <mxCell id="2v5yOsmrtpI3g_pN3GLr-8" value="&lt;font style=&quot;font-size: 18px&quot;&gt;register partition &lt;br&gt;with producer&lt;/font&gt;" style="edgeLabel;html=1;align=center;verticalAlign=middle;resizable=0;points=[];fontSize=17;rotation=30;fontColor=#3399FF;labelBackgroundColor=none;" parent="2v5yOsmrtpI3g_pN3GLr-7" vertex="1" connectable="0">
          <mxGeometry x="-0.1105" y="-4" relative="1" as="geometry">
            <mxPoint x="24.430000000000007" y="-18.83" as="offset" />
          </mxGeometry>
        </mxCell>
        <mxCell id="2v5yOsmrtpI3g_pN3GLr-9" value="" style="curved=1;endArrow=classic;html=1;strokeWidth=2;fontSize=17;entryX=0;entryY=0.5;entryDx=0;entryDy=0;exitX=1;exitY=0.25;exitDx=0;exitDy=0;" parent="2-X7VkVo-mw4vhmnqDAe-1" source="2v5yOsmrtpI3g_pN3GLr-16" target="2v5yOsmrtpI3g_pN3GLr-6" edge="1">
          <mxGeometry width="50" height="50" relative="1" as="geometry">
            <mxPoint x="794.5" y="394.375" as="sourcePoint" />
            <mxPoint x="954.5" y="345" as="targetPoint" />
            <Array as="points">
              <mxPoint x="844.5" y="290" />
            </Array>
          </mxGeometry>
        </mxCell>
        <mxCell id="2v5yOsmrtpI3g_pN3GLr-10" value="&lt;font style=&quot;font-size: 18px&quot;&gt;Schedule&lt;br&gt;producer execution&lt;br&gt;&lt;/font&gt;" style="edgeLabel;html=1;align=center;verticalAlign=middle;resizable=0;points=[];fontSize=17;rotation=-11;labelBackgroundColor=none;" parent="2v5yOsmrtpI3g_pN3GLr-9" vertex="1" connectable="0">
          <mxGeometry x="0.0355" y="1" relative="1" as="geometry">
            <mxPoint x="-9.84" y="-25.26" as="offset" />
          </mxGeometry>
        </mxCell>
        <mxCell id="2v5yOsmrtpI3g_pN3GLr-11" value="&lt;font style=&quot;font-size: 20px&quot;&gt;PartitionDescriptor&lt;/font&gt;" style="rounded=0;whiteSpace=wrap;html=1;strokeWidth=3;fontSize=17;align=center;fontColor=#3399FF;" parent="2-X7VkVo-mw4vhmnqDAe-1" vertex="1">
          <mxGeometry x="1069.5" y="180" width="230" height="60" as="geometry" />
        </mxCell>
        <mxCell id="2v5yOsmrtpI3g_pN3GLr-12" value="&lt;font style=&quot;font-size: 20px&quot;&gt;ProducerDescriptor&lt;/font&gt;" style="rounded=0;whiteSpace=wrap;html=1;strokeWidth=3;fontSize=17;align=center;fontColor=#3399FF;" parent="2-X7VkVo-mw4vhmnqDAe-1" vertex="1">
          <mxGeometry x="1069.5" y="285" width="230" height="60" as="geometry" />
        </mxCell>
        <mxCell id="2v5yOsmrtpI3g_pN3GLr-13" value="" style="group" parent="2-X7VkVo-mw4vhmnqDAe-1" vertex="1" connectable="0">
          <mxGeometry x="554.5" y="305" width="230" height="130" as="geometry" />
        </mxCell>
        <mxCell id="2v5yOsmrtpI3g_pN3GLr-14" value="" style="group" parent="2v5yOsmrtpI3g_pN3GLr-13" vertex="1" connectable="0">
          <mxGeometry width="230" height="130" as="geometry" />
        </mxCell>
        <mxCell id="2v5yOsmrtpI3g_pN3GLr-15" value="" style="group;align=center;verticalAlign=top;" parent="2v5yOsmrtpI3g_pN3GLr-14" vertex="1" connectable="0">
          <mxGeometry width="229.99999999999997" height="130" as="geometry" />
        </mxCell>
        <mxCell id="2v5yOsmrtpI3g_pN3GLr-16" value="&lt;font color=&quot;#000000&quot;&gt;ExecutionGraph&lt;/font&gt;" style="rounded=0;whiteSpace=wrap;html=1;strokeColor=#000000;strokeWidth=2;fontSize=17;fontColor=#3399FF;align=center;verticalAlign=top;" parent="2v5yOsmrtpI3g_pN3GLr-15" vertex="1">
          <mxGeometry y="-18.909090909090907" width="229.99999999999997" height="148.9090909090909" as="geometry" />
        </mxCell>
        <mxCell id="2v5yOsmrtpI3g_pN3GLr-17" value="" style="ellipse;whiteSpace=wrap;html=1;strokeColor=#000000;strokeWidth=2;fontSize=17;fontColor=#3399FF;align=left;fillColor=#999999;" parent="2v5yOsmrtpI3g_pN3GLr-15" vertex="1">
          <mxGeometry x="172.5" y="47.27272727272726" width="44.72222222222222" height="35.45454545454545" as="geometry" />
        </mxCell>
        <mxCell id="2v5yOsmrtpI3g_pN3GLr-18" value="" style="ellipse;whiteSpace=wrap;html=1;strokeColor=#000000;strokeWidth=2;fontSize=17;fontColor=#3399FF;align=left;fillColor=#999999;" parent="2v5yOsmrtpI3g_pN3GLr-15" vertex="1">
          <mxGeometry x="12.777777777777777" y="47.27272727272726" width="44.72222222222222" height="35.45454545454545" as="geometry" />
        </mxCell>
        <mxCell id="2v5yOsmrtpI3g_pN3GLr-19" value="" style="ellipse;whiteSpace=wrap;html=1;strokeColor=#000000;strokeWidth=2;fontSize=17;fontColor=#3399FF;align=left;fillColor=#999999;" parent="2v5yOsmrtpI3g_pN3GLr-15" vertex="1">
          <mxGeometry x="92.63888888888889" y="21.666666666666657" width="44.72222222222222" height="35.45454545454545" as="geometry" />
        </mxCell>
        <mxCell id="2v5yOsmrtpI3g_pN3GLr-20" value="" style="ellipse;whiteSpace=wrap;html=1;strokeColor=#000000;strokeWidth=2;fontSize=17;fontColor=#3399FF;align=left;fillColor=#999999;" parent="2v5yOsmrtpI3g_pN3GLr-15" vertex="1">
          <mxGeometry x="92.63888888888889" y="76.8181818181818" width="44.72222222222222" height="35.45454545454545" as="geometry" />
        </mxCell>
        <mxCell id="2v5yOsmrtpI3g_pN3GLr-21" value="" style="endArrow=classic;html=1;strokeColor=#000000;strokeWidth=2;fillColor=#666666;fontSize=17;fontColor=#3399FF;exitX=1;exitY=0;exitDx=0;exitDy=0;entryX=0;entryY=0.5;entryDx=0;entryDy=0;" parent="2v5yOsmrtpI3g_pN3GLr-15" source="2v5yOsmrtpI3g_pN3GLr-18" target="2v5yOsmrtpI3g_pN3GLr-19" edge="1">
          <mxGeometry width="50" height="50" relative="1" as="geometry">
            <mxPoint x="287.5" y="-96.51515151515153" as="sourcePoint" />
            <mxPoint x="319.4444444444444" y="-135.90909090909088" as="targetPoint" />
          </mxGeometry>
        </mxCell>
        <mxCell id="2v5yOsmrtpI3g_pN3GLr-22" value="" style="endArrow=classic;html=1;strokeColor=#000000;strokeWidth=2;fillColor=#666666;fontSize=17;fontColor=#3399FF;entryX=0;entryY=0;entryDx=0;entryDy=0;exitX=1;exitY=0.5;exitDx=0;exitDy=0;" parent="2v5yOsmrtpI3g_pN3GLr-15" source="2v5yOsmrtpI3g_pN3GLr-19" target="2v5yOsmrtpI3g_pN3GLr-17" edge="1">
          <mxGeometry width="50" height="50" relative="1" as="geometry">
            <mxPoint x="166.11111111111106" y="61.06060606060605" as="sourcePoint" />
            <mxPoint x="198.05555555555551" y="21.666666666666657" as="targetPoint" />
          </mxGeometry>
        </mxCell>
        <mxCell id="2v5yOsmrtpI3g_pN3GLr-23" value="" style="endArrow=classic;html=1;strokeColor=#000000;strokeWidth=2;fillColor=#666666;fontSize=17;fontColor=#3399FF;entryX=0;entryY=0.5;entryDx=0;entryDy=0;exitX=1;exitY=1;exitDx=0;exitDy=0;" parent="2v5yOsmrtpI3g_pN3GLr-15" source="2v5yOsmrtpI3g_pN3GLr-18" target="2v5yOsmrtpI3g_pN3GLr-20" edge="1">
          <mxGeometry width="50" height="50" relative="1" as="geometry">
            <mxPoint x="31.944444444444436" y="131.96969696969697" as="sourcePoint" />
            <mxPoint x="63.88888888888887" y="92.57575757575756" as="targetPoint" />
          </mxGeometry>
        </mxCell>
        <mxCell id="2v5yOsmrtpI3g_pN3GLr-24" value="" style="endArrow=classic;html=1;strokeColor=#000000;strokeWidth=2;fillColor=#666666;fontSize=17;fontColor=#3399FF;entryX=0;entryY=1;entryDx=0;entryDy=0;exitX=1;exitY=0.5;exitDx=0;exitDy=0;" parent="2v5yOsmrtpI3g_pN3GLr-15" source="2v5yOsmrtpI3g_pN3GLr-20" target="2v5yOsmrtpI3g_pN3GLr-17" edge="1">
          <mxGeometry width="50" height="50" relative="1" as="geometry">
            <mxPoint x="153.3333333333333" y="124.09090909090908" as="sourcePoint" />
            <mxPoint x="185.27777777777777" y="84.6969696969697" as="targetPoint" />
          </mxGeometry>
        </mxCell>
        <mxCell id="2v5yOsmrtpI3g_pN3GLr-25" style="edgeStyle=orthogonalEdgeStyle;curved=1;orthogonalLoop=1;jettySize=auto;html=1;entryX=0.5;entryY=0;entryDx=0;entryDy=0;strokeColor=#000000;strokeWidth=2;fillColor=#666666;fontSize=20;fontColor=#000000;" parent="2-X7VkVo-mw4vhmnqDAe-1" source="2v5yOsmrtpI3g_pN3GLr-26" target="2v5yOsmrtpI3g_pN3GLr-32" edge="1">
          <mxGeometry relative="1" as="geometry" />
        </mxCell>
        <mxCell id="2v5yOsmrtpI3g_pN3GLr-26" value="&lt;font style=&quot;font-size: 20px&quot;&gt;ShuffleDescriptor&lt;/font&gt;" style="rounded=0;whiteSpace=wrap;html=1;strokeWidth=3;fontSize=17;align=center;fontColor=#3399FF;" parent="2-X7VkVo-mw4vhmnqDAe-1" vertex="1">
          <mxGeometry x="1069.5" y="460" width="230" height="60" as="geometry" />
        </mxCell>
        <mxCell id="2v5yOsmrtpI3g_pN3GLr-27" value="" style="curved=1;endArrow=classic;html=1;strokeColor=#000000;strokeWidth=2;fillColor=#666666;fontSize=20;fontColor=#3399FF;entryX=1;entryY=0.5;entryDx=0;entryDy=0;exitX=0;exitY=0.75;exitDx=0;exitDy=0;" parent="2-X7VkVo-mw4vhmnqDAe-1" source="2v5yOsmrtpI3g_pN3GLr-5" target="2v5yOsmrtpI3g_pN3GLr-26" edge="1">
          <mxGeometry width="50" height="50" relative="1" as="geometry">
            <mxPoint x="1374.5" y="500" as="sourcePoint" />
            <mxPoint x="1424.5" y="450" as="targetPoint" />
            <Array as="points">
              <mxPoint x="1374.5" y="480" />
            </Array>
          </mxGeometry>
        </mxCell>
        <mxCell id="2v5yOsmrtpI3g_pN3GLr-28" value="&lt;font style=&quot;font-size: 18px&quot;&gt;Return&lt;/font&gt;" style="edgeLabel;html=1;align=center;verticalAlign=middle;resizable=0;points=[];fontSize=20;fontColor=#3399FF;rotation=-15;labelBackgroundColor=none;" parent="2v5yOsmrtpI3g_pN3GLr-27" vertex="1" connectable="0">
          <mxGeometry x="-0.1857" y="3" relative="1" as="geometry">
            <mxPoint x="-33.04" y="24.55" as="offset" />
          </mxGeometry>
        </mxCell>
        <mxCell id="2v5yOsmrtpI3g_pN3GLr-29" value="" style="curved=1;endArrow=classic;html=1;strokeColor=#000000;strokeWidth=2;fillColor=#666666;fontSize=20;fontColor=#3399FF;entryX=1;entryY=0.75;entryDx=0;entryDy=0;exitX=0;exitY=0.5;exitDx=0;exitDy=0;" parent="2-X7VkVo-mw4vhmnqDAe-1" source="2v5yOsmrtpI3g_pN3GLr-26" target="2v5yOsmrtpI3g_pN3GLr-16" edge="1">
          <mxGeometry width="50" height="50" relative="1" as="geometry">
            <mxPoint x="894.5" y="480" as="sourcePoint" />
            <mxPoint x="944.5" y="430" as="targetPoint" />
            <Array as="points">
              <mxPoint x="954.5" y="470" />
            </Array>
          </mxGeometry>
        </mxCell>
        <mxCell id="2v5yOsmrtpI3g_pN3GLr-30" value="Cache for&lt;br&gt;consumer execution" style="edgeLabel;html=1;align=center;verticalAlign=middle;resizable=0;points=[];fontSize=20;fontColor=none;" parent="2v5yOsmrtpI3g_pN3GLr-29" vertex="1" connectable="0">
          <mxGeometry x="0.0713" y="-4" relative="1" as="geometry">
            <mxPoint as="offset" />
          </mxGeometry>
        </mxCell>
        <mxCell id="2v5yOsmrtpI3g_pN3GLr-31" value="&lt;font style=&quot;font-size: 20px&quot;&gt;Result Partition&lt;br&gt;deployment descriptor&lt;br&gt;&lt;/font&gt;" style="rounded=0;whiteSpace=wrap;html=1;strokeWidth=3;fontSize=17;align=center;fontColor=#000000;" parent="2-X7VkVo-mw4vhmnqDAe-1" vertex="1">
          <mxGeometry x="620" y="680" width="230" height="60" as="geometry" />
        </mxCell>
        <mxCell id="2v5yOsmrtpI3g_pN3GLr-32" value="&lt;font style=&quot;font-size: 20px&quot;&gt;InputGate&lt;br&gt;deployment descriptor&lt;/font&gt;" style="rounded=0;whiteSpace=wrap;html=1;strokeWidth=3;fontSize=17;align=center;fontColor=#000000;" parent="2-X7VkVo-mw4vhmnqDAe-1" vertex="1">
          <mxGeometry x="1069.5" y="680" width="230" height="60" as="geometry" />
        </mxCell>
        <mxCell id="2v5yOsmrtpI3g_pN3GLr-33" value="&lt;font style=&quot;font-size: 20px&quot;&gt;Partition Info&lt;/font&gt;" style="rounded=0;whiteSpace=wrap;html=1;strokeWidth=3;fontSize=17;align=center;fontColor=#000000;" parent="2-X7VkVo-mw4vhmnqDAe-1" vertex="1">
          <mxGeometry x="1585.5" y="680" width="230" height="60" as="geometry" />
        </mxCell>
        <mxCell id="2v5yOsmrtpI3g_pN3GLr-34" value="" style="curved=1;endArrow=classic;html=1;strokeColor=#000000;strokeWidth=2;fillColor=#666666;fontSize=20;fontColor=#000000;entryX=0.5;entryY=0;entryDx=0;entryDy=0;exitX=0.5;exitY=1;exitDx=0;exitDy=0;" parent="2-X7VkVo-mw4vhmnqDAe-1" source="2v5yOsmrtpI3g_pN3GLr-26" target="2v5yOsmrtpI3g_pN3GLr-31" edge="1">
          <mxGeometry width="50" height="50" relative="1" as="geometry">
            <mxPoint x="790" y="620" as="sourcePoint" />
            <mxPoint x="840" y="570" as="targetPoint" />
            <Array as="points">
              <mxPoint x="1110" y="570" />
              <mxPoint x="1030" y="590" />
              <mxPoint x="780" y="610" />
            </Array>
          </mxGeometry>
        </mxCell>
        <mxCell id="2v5yOsmrtpI3g_pN3GLr-35" value="" style="curved=1;endArrow=classic;html=1;strokeColor=#000000;strokeWidth=2;fillColor=#666666;fontSize=20;fontColor=#000000;entryX=0.5;entryY=0;entryDx=0;entryDy=0;exitX=0.5;exitY=1;exitDx=0;exitDy=0;" parent="2-X7VkVo-mw4vhmnqDAe-1" source="2v5yOsmrtpI3g_pN3GLr-26" target="2v5yOsmrtpI3g_pN3GLr-33" edge="1">
          <mxGeometry width="50" height="50" relative="1" as="geometry">
            <mxPoint x="1470" y="640" as="sourcePoint" />
            <mxPoint x="1520" y="590" as="targetPoint" />
            <Array as="points">
              <mxPoint x="1330" y="600" />
              <mxPoint x="1650" y="600" />
            </Array>
          </mxGeometry>
        </mxCell>
        <mxCell id="2v5yOsmrtpI3g_pN3GLr-40" value="" style="curved=1;endArrow=classic;html=1;strokeColor=#000000;strokeWidth=2;fillColor=#666666;fontSize=20;fontColor=#000000;exitX=0.5;exitY=1;exitDx=0;exitDy=0;entryX=0.5;entryY=0;entryDx=0;entryDy=0;" parent="2-X7VkVo-mw4vhmnqDAe-1" source="2v5yOsmrtpI3g_pN3GLr-31" target="UdvfC1dVz3yKTEq-O7T5-0" edge="1">
          <mxGeometry width="50" height="50" relative="1" as="geometry">
            <mxPoint x="800" y="880" as="sourcePoint" />
            <mxPoint x="725" y="890" as="targetPoint" />
            <Array as="points">
              <mxPoint x="600" y="830" />
            </Array>
          </mxGeometry>
        </mxCell>
        <mxCell id="2v5yOsmrtpI3g_pN3GLr-41" value="Submit&lt;br&gt;producer task" style="edgeLabel;html=1;align=center;verticalAlign=middle;resizable=0;points=[];fontSize=20;fontColor=#000000;labelBackgroundColor=none;" parent="2v5yOsmrtpI3g_pN3GLr-40" vertex="1" connectable="0">
          <mxGeometry x="-0.371" y="-11" relative="1" as="geometry">
            <mxPoint x="64.00999999999998" y="77.21000000000001" as="offset" />
          </mxGeometry>
        </mxCell>
        <mxCell id="2v5yOsmrtpI3g_pN3GLr-42" value="" style="curved=1;endArrow=classic;html=1;strokeColor=#000000;strokeWidth=2;fillColor=#666666;fontSize=20;fontColor=#000000;exitX=0.5;exitY=1;exitDx=0;exitDy=0;entryX=0.5;entryY=0;entryDx=0;entryDy=0;" parent="2-X7VkVo-mw4vhmnqDAe-1" source="2v5yOsmrtpI3g_pN3GLr-32" target="LQk8477LxcvGhY17v-To-0" edge="1">
          <mxGeometry width="50" height="50" relative="1" as="geometry">
            <mxPoint x="1350" y="860" as="sourcePoint" />
            <mxPoint x="1655" y="900" as="targetPoint" />
            <Array as="points">
              <mxPoint x="1260" y="810" />
              <mxPoint x="1440" y="910" />
            </Array>
          </mxGeometry>
        </mxCell>
        <mxCell id="2v5yOsmrtpI3g_pN3GLr-43" value="&lt;span&gt;Submit&lt;/span&gt;&lt;br&gt;&lt;span&gt;consumer task&lt;/span&gt;" style="text;html=1;align=center;verticalAlign=middle;resizable=0;points=[];autosize=1;fontSize=20;fontColor=#000000;labelBackgroundColor=none;" parent="2-X7VkVo-mw4vhmnqDAe-1" vertex="1">
          <mxGeometry x="1230" y="860" width="150" height="50" as="geometry" />
        </mxCell>
        <mxCell id="2v5yOsmrtpI3g_pN3GLr-44" value="" style="curved=1;endArrow=classic;html=1;strokeColor=#000000;strokeWidth=2;fillColor=#666666;fontSize=20;fontColor=#000000;exitX=0.5;exitY=1;exitDx=0;exitDy=0;entryX=0.5;entryY=0;entryDx=0;entryDy=0;" parent="2-X7VkVo-mw4vhmnqDAe-1" source="2v5yOsmrtpI3g_pN3GLr-33" target="LQk8477LxcvGhY17v-To-0" edge="1">
          <mxGeometry width="50" height="50" relative="1" as="geometry">
            <mxPoint x="1640" y="880" as="sourcePoint" />
            <mxPoint x="1655" y="900" as="targetPoint" />
            <Array as="points">
              <mxPoint x="1790" y="840" />
            </Array>
          </mxGeometry>
        </mxCell>
        <mxCell id="2v5yOsmrtpI3g_pN3GLr-45" value="Update &lt;br&gt;partition info" style="edgeLabel;html=1;align=center;verticalAlign=middle;resizable=0;points=[];fontSize=20;fontColor=#000000;labelBackgroundColor=none;" parent="2v5yOsmrtpI3g_pN3GLr-44" vertex="1" connectable="0">
          <mxGeometry x="-0.2163" relative="1" as="geometry">
            <mxPoint x="57.25" y="28.099999999999998" as="offset" />
          </mxGeometry>
        </mxCell>
        <mxCell id="UdvfC1dVz3yKTEq-O7T5-0" value="&lt;font style=&quot;font-size: 25px&quot;&gt;&amp;nbsp;TaskExecutor&lt;/font&gt;" style="rounded=0;whiteSpace=wrap;html=1;fontSize=17;align=left;dashed=1;labelPosition=center;verticalLabelPosition=middle;verticalAlign=top;strokeWidth=2;" parent="2-X7VkVo-mw4vhmnqDAe-1" vertex="1">
          <mxGeometry x="100" y="1020" width="1040" height="510" as="geometry" />
        </mxCell>
        <mxCell id="UdvfC1dVz3yKTEq-O7T5-1" value="" style="rounded=0;whiteSpace=wrap;html=1;fontSize=17;align=left;dashed=1;labelPosition=center;verticalLabelPosition=top;verticalAlign=bottom;strokeWidth=2;fontColor=#3399FF;" parent="2-X7VkVo-mw4vhmnqDAe-1" vertex="1">
          <mxGeometry x="764.5" y="1052.8" width="340" height="437.2" as="geometry" />
        </mxCell>
        <mxCell id="UdvfC1dVz3yKTEq-O7T5-2" style="edgeStyle=orthogonalEdgeStyle;rounded=0;orthogonalLoop=1;jettySize=auto;html=1;fontSize=17;strokeWidth=2;fontColor=#3399FF;" parent="2-X7VkVo-mw4vhmnqDAe-1" source="UdvfC1dVz3yKTEq-O7T5-4" target="UdvfC1dVz3yKTEq-O7T5-5" edge="1">
          <mxGeometry relative="1" as="geometry" />
        </mxCell>
        <mxCell id="UdvfC1dVz3yKTEq-O7T5-3" value="&lt;font style=&quot;font-size: 14px&quot;&gt;Ceate&amp;nbsp;&lt;span style=&quot;background-color: rgb(248 , 249 , 250)&quot;&gt;Shuffle Environment&lt;/span&gt;&lt;/font&gt;" style="edgeLabel;html=1;align=center;verticalAlign=middle;resizable=0;points=[];fontSize=17;fontColor=#3399FF;" parent="UdvfC1dVz3yKTEq-O7T5-2" vertex="1" connectable="0">
          <mxGeometry x="-0.2" y="4" relative="1" as="geometry">
            <mxPoint x="76" as="offset" />
          </mxGeometry>
        </mxCell>
        <mxCell id="UdvfC1dVz3yKTEq-O7T5-4" value="&lt;font style=&quot;font-size: 23px&quot;&gt;Shuffle Service Factory&lt;/font&gt;" style="rounded=0;whiteSpace=wrap;html=1;strokeWidth=2;fontSize=17;align=center;fontColor=#3399FF;" parent="2-X7VkVo-mw4vhmnqDAe-1" vertex="1">
          <mxGeometry x="814.5" y="1092.8" width="240" height="70" as="geometry" />
        </mxCell>
        <mxCell id="EjAOU2B8PANLJT6bfrvu-1" style="edgeStyle=none;orthogonalLoop=1;jettySize=auto;html=1;strokeColor=#000000;strokeWidth=2;fillColor=#666666;fontSize=20;fontColor=none;" parent="2-X7VkVo-mw4vhmnqDAe-1" source="UdvfC1dVz3yKTEq-O7T5-5" target="EjAOU2B8PANLJT6bfrvu-0" edge="1">
          <mxGeometry relative="1" as="geometry" />
        </mxCell>
        <mxCell id="UdvfC1dVz3yKTEq-O7T5-5" value="&lt;font style=&quot;font-size: 23px&quot;&gt;Shuffle Environment&lt;/font&gt;" style="rounded=0;whiteSpace=wrap;html=1;strokeWidth=2;fontSize=17;align=center;fontColor=#3399FF;" parent="2-X7VkVo-mw4vhmnqDAe-1" vertex="1">
          <mxGeometry x="814.5" y="1265" width="240" height="70" as="geometry" />
        </mxCell>
        <mxCell id="UdvfC1dVz3yKTEq-O7T5-6" value="&lt;span style=&quot;font-size: 23px&quot;&gt;ResultPartition&lt;br&gt;DeploymentDescriptor&lt;/span&gt;" style="rounded=0;whiteSpace=wrap;html=1;strokeWidth=2;fontSize=17;align=center;fontColor=#3399FF;" parent="2-X7VkVo-mw4vhmnqDAe-1" vertex="1">
          <mxGeometry x="400" y="1099" width="240" height="70" as="geometry" />
        </mxCell>
        <mxCell id="UdvfC1dVz3yKTEq-O7T5-7" value="" style="curved=1;endArrow=classic;html=1;strokeWidth=2;fontSize=17;exitX=1;exitY=0.5;exitDx=0;exitDy=0;entryX=0;entryY=0.5;entryDx=0;entryDy=0;fontColor=#3399FF;" parent="2-X7VkVo-mw4vhmnqDAe-1" source="UdvfC1dVz3yKTEq-O7T5-6" target="UdvfC1dVz3yKTEq-O7T5-5" edge="1">
          <mxGeometry width="50" height="50" relative="1" as="geometry">
            <mxPoint x="580" y="1625" as="sourcePoint" />
            <mxPoint x="630" y="1575" as="targetPoint" />
            <Array as="points">
              <mxPoint x="760" y="1160" />
            </Array>
          </mxGeometry>
        </mxCell>
        <mxCell id="UdvfC1dVz3yKTEq-O7T5-8" value="&lt;font style=&quot;font-size: 19px&quot;&gt;createResultPartition&lt;/font&gt;" style="edgeLabel;html=1;align=center;verticalAlign=middle;resizable=0;points=[];fontSize=17;rotation=45;fontColor=#3399FF;" parent="UdvfC1dVz3yKTEq-O7T5-7" vertex="1" connectable="0">
          <mxGeometry x="-0.1105" y="-4" relative="1" as="geometry">
            <mxPoint x="6.590000000000007" y="22.2" as="offset" />
          </mxGeometry>
        </mxCell>
        <mxCell id="UdvfC1dVz3yKTEq-O7T5-9" value="&lt;font style=&quot;font-size: 23px&quot;&gt;ResultPartition&lt;/font&gt;" style="rounded=0;whiteSpace=wrap;html=1;strokeWidth=2;fontSize=17;align=center;fontColor=#3399FF;" parent="2-X7VkVo-mw4vhmnqDAe-1" vertex="1">
          <mxGeometry x="400" y="1390" width="240" height="70" as="geometry" />
        </mxCell>
        <mxCell id="UdvfC1dVz3yKTEq-O7T5-10" value="" style="curved=1;endArrow=classic;html=1;strokeWidth=2;fontSize=17;exitX=0;exitY=0.5;exitDx=0;exitDy=0;entryX=1;entryY=0.5;entryDx=0;entryDy=0;fontColor=#3399FF;" parent="2-X7VkVo-mw4vhmnqDAe-1" source="UdvfC1dVz3yKTEq-O7T5-5" target="UdvfC1dVz3yKTEq-O7T5-9" edge="1">
          <mxGeometry width="50" height="50" relative="1" as="geometry">
            <mxPoint x="580" y="1625" as="sourcePoint" />
            <mxPoint x="630" y="1575" as="targetPoint" />
            <Array as="points">
              <mxPoint x="780" y="1410" />
            </Array>
          </mxGeometry>
        </mxCell>
        <mxCell id="UdvfC1dVz3yKTEq-O7T5-11" value="&lt;font style=&quot;font-size: 19px&quot;&gt;Return&lt;/font&gt;" style="edgeLabel;html=1;align=center;verticalAlign=middle;resizable=0;points=[];fontSize=17;rotation=-45;fontColor=#3399FF;" parent="UdvfC1dVz3yKTEq-O7T5-10" vertex="1" connectable="0">
          <mxGeometry x="-0.0534" y="1" relative="1" as="geometry">
            <mxPoint x="-13.760000000000002" y="-31.67" as="offset" />
          </mxGeometry>
        </mxCell>
        <mxCell id="UdvfC1dVz3yKTEq-O7T5-12" value="" style="curved=1;endArrow=classic;html=1;strokeWidth=2;fontSize=17;exitX=0;exitY=0.5;exitDx=0;exitDy=0;entryX=0.5;entryY=1;entryDx=0;entryDy=0;" parent="2-X7VkVo-mw4vhmnqDAe-1" source="UdvfC1dVz3yKTEq-O7T5-9" target="UdvfC1dVz3yKTEq-O7T5-32" edge="1">
          <mxGeometry width="50" height="50" relative="1" as="geometry">
            <mxPoint x="690" y="1625" as="sourcePoint" />
            <mxPoint x="740" y="1575" as="targetPoint" />
            <Array as="points">
              <mxPoint x="300" y="1400" />
            </Array>
          </mxGeometry>
        </mxCell>
        <mxCell id="UdvfC1dVz3yKTEq-O7T5-13" value="&lt;font style=&quot;font-size: 19px&quot;&gt;Return&lt;/font&gt;" style="edgeLabel;html=1;align=center;verticalAlign=middle;resizable=0;points=[];fontSize=17;rotation=35;" parent="UdvfC1dVz3yKTEq-O7T5-12" vertex="1" connectable="0">
          <mxGeometry x="-0.1669" y="-6" relative="1" as="geometry">
            <mxPoint x="-25.43" y="-19.97" as="offset" />
          </mxGeometry>
        </mxCell>
        <mxCell id="UdvfC1dVz3yKTEq-O7T5-14" value="" style="curved=1;endArrow=classic;html=1;strokeWidth=2;fontSize=17;entryX=0;entryY=0.5;entryDx=0;entryDy=0;exitX=0.5;exitY=0;exitDx=0;exitDy=0;" parent="2-X7VkVo-mw4vhmnqDAe-1" source="UdvfC1dVz3yKTEq-O7T5-32" target="UdvfC1dVz3yKTEq-O7T5-6" edge="1">
          <mxGeometry width="50" height="50" relative="1" as="geometry">
            <mxPoint x="490" y="1405" as="sourcePoint" />
            <mxPoint x="540" y="1355" as="targetPoint" />
            <Array as="points">
              <mxPoint x="310" y="1170" />
            </Array>
          </mxGeometry>
        </mxCell>
        <mxCell id="UdvfC1dVz3yKTEq-O7T5-15" value="&lt;font style=&quot;font-size: 19px&quot;&gt;SeTup&lt;/font&gt;" style="edgeLabel;html=1;align=center;verticalAlign=middle;resizable=0;points=[];fontSize=17;rotation=-35;" parent="UdvfC1dVz3yKTEq-O7T5-14" vertex="1" connectable="0">
          <mxGeometry x="0.0355" y="1" relative="1" as="geometry">
            <mxPoint x="-7.869999999999999" y="13.030000000000001" as="offset" />
          </mxGeometry>
        </mxCell>
        <mxCell id="UdvfC1dVz3yKTEq-O7T5-32" value="&lt;font style=&quot;font-size: 22px&quot;&gt;TASK&lt;/font&gt;" style="rounded=0;whiteSpace=wrap;html=1;strokeColor=#000000;strokeWidth=2;fillColor=none;fontSize=17;fontColor=#000000;align=center;" parent="2-X7VkVo-mw4vhmnqDAe-1" vertex="1">
          <mxGeometry x="130" y="1226.25" width="220" height="97.5" as="geometry" />
        </mxCell>
        <mxCell id="LQk8477LxcvGhY17v-To-0" value="&lt;font style=&quot;font-size: 25px&quot;&gt;&amp;nbsp;TaskExecutor&lt;/font&gt;" style="rounded=0;whiteSpace=wrap;html=1;fontSize=17;align=right;dashed=1;labelPosition=center;verticalLabelPosition=middle;verticalAlign=top;strokeWidth=2;" parent="2-X7VkVo-mw4vhmnqDAe-1" vertex="1">
          <mxGeometry x="1270" y="1020" width="1040" height="510" as="geometry" />
        </mxCell>
        <mxCell id="LQk8477LxcvGhY17v-To-1" value="" style="rounded=0;whiteSpace=wrap;html=1;fontSize=17;align=left;dashed=1;labelPosition=center;verticalLabelPosition=top;verticalAlign=bottom;strokeWidth=2;fontColor=#3399FF;" parent="2-X7VkVo-mw4vhmnqDAe-1" vertex="1">
          <mxGeometry x="1314" y="1052.8" width="340" height="437.2" as="geometry" />
        </mxCell>
        <mxCell id="LQk8477LxcvGhY17v-To-2" style="edgeStyle=orthogonalEdgeStyle;rounded=0;orthogonalLoop=1;jettySize=auto;html=1;fontSize=17;strokeWidth=2;fontColor=#3399FF;" parent="2-X7VkVo-mw4vhmnqDAe-1" source="LQk8477LxcvGhY17v-To-4" target="LQk8477LxcvGhY17v-To-5" edge="1">
          <mxGeometry relative="1" as="geometry" />
        </mxCell>
        <mxCell id="LQk8477LxcvGhY17v-To-3" value="&lt;font style=&quot;font-size: 14px&quot;&gt;Ceate&amp;nbsp;&lt;span style=&quot;background-color: rgb(248 , 249 , 250)&quot;&gt;Shuffle Environment&lt;/span&gt;&lt;/font&gt;" style="edgeLabel;html=1;align=center;verticalAlign=middle;resizable=0;points=[];fontSize=17;fontColor=#3399FF;" parent="LQk8477LxcvGhY17v-To-2" vertex="1" connectable="0">
          <mxGeometry x="-0.2" y="4" relative="1" as="geometry">
            <mxPoint x="-98" y="-1.67" as="offset" />
          </mxGeometry>
        </mxCell>
        <mxCell id="LQk8477LxcvGhY17v-To-4" value="&lt;font style=&quot;font-size: 23px&quot;&gt;Shuffle Service Factory&lt;/font&gt;" style="rounded=0;whiteSpace=wrap;html=1;strokeWidth=2;fontSize=17;align=center;fontColor=#3399FF;" parent="2-X7VkVo-mw4vhmnqDAe-1" vertex="1">
          <mxGeometry x="1364" y="1092.8" width="240" height="70" as="geometry" />
        </mxCell>
        <mxCell id="EjAOU2B8PANLJT6bfrvu-3" style="edgeStyle=none;orthogonalLoop=1;jettySize=auto;html=1;strokeColor=#000000;strokeWidth=2;fillColor=#666666;fontSize=20;fontColor=none;" parent="2-X7VkVo-mw4vhmnqDAe-1" source="LQk8477LxcvGhY17v-To-5" target="EjAOU2B8PANLJT6bfrvu-2" edge="1">
          <mxGeometry relative="1" as="geometry" />
        </mxCell>
        <mxCell id="LQk8477LxcvGhY17v-To-5" value="&lt;font style=&quot;font-size: 23px&quot;&gt;Shuffle Environment&lt;/font&gt;" style="rounded=0;whiteSpace=wrap;html=1;strokeWidth=2;fontSize=17;align=center;fontColor=#3399FF;" parent="2-X7VkVo-mw4vhmnqDAe-1" vertex="1">
          <mxGeometry x="1364" y="1265" width="240" height="70" as="geometry" />
        </mxCell>
        <mxCell id="LQk8477LxcvGhY17v-To-6" value="&lt;span style=&quot;font-size: 20px&quot;&gt;InputGate&lt;/span&gt;&lt;br style=&quot;font-size: 20px&quot;&gt;&lt;span style=&quot;font-size: 20px&quot;&gt;deployment descriptor&lt;/span&gt;" style="rounded=0;whiteSpace=wrap;html=1;strokeWidth=2;fontSize=17;align=center;fontColor=#3399FF;" parent="2-X7VkVo-mw4vhmnqDAe-1" vertex="1">
          <mxGeometry x="1780" y="1092.8" width="240" height="70" as="geometry" />
        </mxCell>
        <mxCell id="LQk8477LxcvGhY17v-To-7" value="" style="curved=1;endArrow=classic;html=1;strokeWidth=2;fontSize=17;exitX=0;exitY=0.5;exitDx=0;exitDy=0;entryX=1;entryY=0.5;entryDx=0;entryDy=0;fontColor=#3399FF;" parent="2-X7VkVo-mw4vhmnqDAe-1" source="LQk8477LxcvGhY17v-To-6" target="LQk8477LxcvGhY17v-To-5" edge="1">
          <mxGeometry width="50" height="50" relative="1" as="geometry">
            <mxPoint x="1750" y="1625" as="sourcePoint" />
            <mxPoint x="1800" y="1575" as="targetPoint" />
            <Array as="points">
              <mxPoint x="1680" y="1170" />
            </Array>
          </mxGeometry>
        </mxCell>
        <mxCell id="LQk8477LxcvGhY17v-To-8" value="&lt;span style=&quot;font-size: 19px&quot;&gt;createInputGates&lt;/span&gt;" style="edgeLabel;html=1;align=center;verticalAlign=middle;resizable=0;points=[];fontSize=17;rotation=-51;fontColor=#3399FF;" parent="LQk8477LxcvGhY17v-To-7" vertex="1" connectable="0">
          <mxGeometry x="-0.1105" y="-4" relative="1" as="geometry">
            <mxPoint x="-3.0999999999999925" y="-0.9800000000000004" as="offset" />
          </mxGeometry>
        </mxCell>
        <mxCell id="LQk8477LxcvGhY17v-To-9" value="&lt;span style=&quot;font-size: 23px&quot;&gt;InputGate&lt;/span&gt;" style="rounded=0;whiteSpace=wrap;html=1;strokeWidth=2;fontSize=17;align=center;fontColor=#3399FF;" parent="2-X7VkVo-mw4vhmnqDAe-1" vertex="1">
          <mxGeometry x="1800" y="1385" width="240" height="70" as="geometry" />
        </mxCell>
        <mxCell id="LQk8477LxcvGhY17v-To-10" value="" style="curved=1;endArrow=classic;html=1;strokeWidth=2;fontSize=17;exitX=1;exitY=0.5;exitDx=0;exitDy=0;entryX=0;entryY=0.5;entryDx=0;entryDy=0;fontColor=#3399FF;" parent="2-X7VkVo-mw4vhmnqDAe-1" source="LQk8477LxcvGhY17v-To-5" target="LQk8477LxcvGhY17v-To-9" edge="1">
          <mxGeometry width="50" height="50" relative="1" as="geometry">
            <mxPoint x="1750" y="1625" as="sourcePoint" />
            <mxPoint x="1800" y="1575" as="targetPoint" />
            <Array as="points">
              <mxPoint x="1690" y="1400" />
            </Array>
          </mxGeometry>
        </mxCell>
        <mxCell id="LQk8477LxcvGhY17v-To-11" value="&lt;font style=&quot;font-size: 19px&quot;&gt;Return&lt;/font&gt;" style="edgeLabel;html=1;align=center;verticalAlign=middle;resizable=0;points=[];fontSize=17;rotation=35;fontColor=#3399FF;" parent="LQk8477LxcvGhY17v-To-10" vertex="1" connectable="0">
          <mxGeometry x="-0.0534" y="1" relative="1" as="geometry">
            <mxPoint x="-7.790000000000001" y="-4.710000000000001" as="offset" />
          </mxGeometry>
        </mxCell>
        <mxCell id="LQk8477LxcvGhY17v-To-12" value="" style="curved=1;endArrow=classic;html=1;strokeWidth=2;fontSize=17;exitX=1;exitY=0.5;exitDx=0;exitDy=0;entryX=0.5;entryY=1;entryDx=0;entryDy=0;" parent="2-X7VkVo-mw4vhmnqDAe-1" source="LQk8477LxcvGhY17v-To-9" target="LQk8477LxcvGhY17v-To-16" edge="1">
          <mxGeometry width="50" height="50" relative="1" as="geometry">
            <mxPoint x="1860" y="1625" as="sourcePoint" />
            <mxPoint x="1910" y="1575" as="targetPoint" />
            <Array as="points">
              <mxPoint x="2140" y="1400" />
            </Array>
          </mxGeometry>
        </mxCell>
        <mxCell id="LQk8477LxcvGhY17v-To-13" value="&lt;font style=&quot;font-size: 19px&quot;&gt;Return&lt;/font&gt;" style="edgeLabel;html=1;align=center;verticalAlign=middle;resizable=0;points=[];fontSize=17;rotation=35;" parent="LQk8477LxcvGhY17v-To-12" vertex="1" connectable="0">
          <mxGeometry x="-0.1669" y="-6" relative="1" as="geometry">
            <mxPoint x="-23.43" y="-12.259999999999998" as="offset" />
          </mxGeometry>
        </mxCell>
        <mxCell id="LQk8477LxcvGhY17v-To-14" value="" style="curved=1;endArrow=classic;html=1;strokeWidth=2;fontSize=17;entryX=1;entryY=0.5;entryDx=0;entryDy=0;exitX=0.5;exitY=0;exitDx=0;exitDy=0;" parent="2-X7VkVo-mw4vhmnqDAe-1" source="LQk8477LxcvGhY17v-To-16" target="LQk8477LxcvGhY17v-To-6" edge="1">
          <mxGeometry width="50" height="50" relative="1" as="geometry">
            <mxPoint x="1660" y="1405" as="sourcePoint" />
            <mxPoint x="1710" y="1355" as="targetPoint" />
            <Array as="points">
              <mxPoint x="2110" y="1170" />
            </Array>
          </mxGeometry>
        </mxCell>
        <mxCell id="LQk8477LxcvGhY17v-To-15" value="&lt;font style=&quot;font-size: 19px&quot;&gt;SeTup&lt;/font&gt;" style="edgeLabel;html=1;align=center;verticalAlign=middle;resizable=0;points=[];fontSize=17;rotation=-45;" parent="LQk8477LxcvGhY17v-To-14" vertex="1" connectable="0">
          <mxGeometry x="0.0355" y="1" relative="1" as="geometry">
            <mxPoint x="-7.869999999999999" y="13.030000000000001" as="offset" />
          </mxGeometry>
        </mxCell>
        <mxCell id="LQk8477LxcvGhY17v-To-16" value="&lt;font style=&quot;font-size: 22px&quot;&gt;TASK&lt;/font&gt;" style="rounded=0;whiteSpace=wrap;html=1;strokeColor=#000000;strokeWidth=2;fillColor=none;fontSize=17;fontColor=#000000;align=center;" parent="2-X7VkVo-mw4vhmnqDAe-1" vertex="1">
          <mxGeometry x="2068" y="1226.25" width="220" height="97.5" as="geometry" />
        </mxCell>
        <mxCell id="EjAOU2B8PANLJT6bfrvu-0" value="&lt;font style=&quot;font-size: 17px&quot; color=&quot;#3399ff&quot;&gt;transport&lt;/font&gt;" style="shape=mxgraph.bpmn.loop;html=1;outlineConnect=0;align=center;labelPosition=center;verticalLabelPosition=bottom;verticalAlign=top;fontSize=19;strokeWidth=3;" parent="2-X7VkVo-mw4vhmnqDAe-1" vertex="1">
          <mxGeometry x="904.5" y="1390" width="60" height="60" as="geometry" />
        </mxCell>
        <mxCell id="EjAOU2B8PANLJT6bfrvu-2" value="&lt;font style=&quot;font-size: 17px&quot; color=&quot;#3399ff&quot;&gt;transport&lt;/font&gt;" style="shape=mxgraph.bpmn.loop;html=1;outlineConnect=0;align=center;labelPosition=center;verticalLabelPosition=bottom;verticalAlign=top;fontSize=19;strokeWidth=3;" parent="2-X7VkVo-mw4vhmnqDAe-1" vertex="1">
          <mxGeometry x="1454" y="1390" width="60" height="60" as="geometry" />
        </mxCell>
        <mxCell id="EjAOU2B8PANLJT6bfrvu-4" value="" style="endArrow=classic;startArrow=classic;html=1;strokeColor=#000000;strokeWidth=2;fillColor=#666666;fontSize=20;fontColor=none;entryX=0;entryY=0.5;entryDx=0;entryDy=0;shape=flexArrow;" parent="2-X7VkVo-mw4vhmnqDAe-1" source="EjAOU2B8PANLJT6bfrvu-2" target="LQk8477LxcvGhY17v-To-9" edge="1">
          <mxGeometry width="50" height="50" relative="1" as="geometry">
            <mxPoint x="1570" y="1630" as="sourcePoint" />
            <mxPoint x="1620" y="1580" as="targetPoint" />
          </mxGeometry>
        </mxCell>
        <mxCell id="ZVUIo1eFZv69cAdeDJ0C-0" value="request partition" style="edgeLabel;html=1;align=center;verticalAlign=middle;resizable=0;points=[];fontSize=20;fontColor=none;" parent="EjAOU2B8PANLJT6bfrvu-4" vertex="1" connectable="0">
          <mxGeometry x="0.007" relative="1" as="geometry">
            <mxPoint x="2.67" y="30" as="offset" />
          </mxGeometry>
        </mxCell>
        <mxCell id="EjAOU2B8PANLJT6bfrvu-5" value="" style="endArrow=classic;startArrow=classic;html=1;strokeColor=#000000;strokeWidth=2;fillColor=#666666;fontSize=20;fontColor=none;shape=flexArrow;" parent="2-X7VkVo-mw4vhmnqDAe-1" source="EjAOU2B8PANLJT6bfrvu-0" target="EjAOU2B8PANLJT6bfrvu-2" edge="1">
          <mxGeometry width="50" height="50" relative="1" as="geometry">
            <mxPoint x="1054.5" y="1424.17" as="sourcePoint" />
            <mxPoint x="1340.5" y="1424.17" as="targetPoint" />
          </mxGeometry>
        </mxCell>
        <mxCell id="EjAOU2B8PANLJT6bfrvu-8" value="" style="endArrow=classic;startArrow=classic;html=1;strokeColor=#000000;strokeWidth=2;fillColor=#666666;fontSize=20;fontColor=none;shape=flexArrow;exitX=1;exitY=0.5;exitDx=0;exitDy=0;" parent="2-X7VkVo-mw4vhmnqDAe-1" source="UdvfC1dVz3yKTEq-O7T5-9" target="EjAOU2B8PANLJT6bfrvu-0" edge="1">
          <mxGeometry width="50" height="50" relative="1" as="geometry">
            <mxPoint x="620" y="1550" as="sourcePoint" />
            <mxPoint x="906" y="1550" as="targetPoint" />
          </mxGeometry>
        </mxCell>
        <mxCell id="rGrsRxr_Etx8kqMQsdR9-1" value="return data" style="edgeLabel;html=1;align=center;verticalAlign=middle;resizable=0;points=[];fontSize=20;fontColor=none;" parent="EjAOU2B8PANLJT6bfrvu-8" vertex="1" connectable="0">
          <mxGeometry x="0.2269" y="-5" relative="1" as="geometry">
            <mxPoint x="-17.23" y="22.75" as="offset" />
          </mxGeometry>
        </mxCell>
      </root>
    </mxGraphModel>
  </diagram>
  <diagram id="nw94jmAnIUm2nmYBr02n" name="Yarn-ShuffleService">
    <mxGraphModel dx="851" dy="1206" grid="1" gridSize="10" guides="1" tooltips="1" connect="1" arrows="1" fold="1" page="1" pageScale="1" pageWidth="827" pageHeight="1169" math="0" shadow="0">
      <root>
        <mxCell id="ewbDeu8oUooJjjUi_NWp-0" />
        <mxCell id="ewbDeu8oUooJjjUi_NWp-1" parent="ewbDeu8oUooJjjUi_NWp-0" />
        <mxCell id="ewbDeu8oUooJjjUi_NWp-3" value="&lt;font style=&quot;font-size: 22px&quot; color=&quot;#3399ff&quot;&gt;YarnShuffleService&lt;/font&gt;" style="rounded=0;whiteSpace=wrap;html=1;strokeColor=#000000;strokeWidth=2;fillColor=none;fontSize=17;fontColor=#000000;align=center;verticalAlign=top;" parent="ewbDeu8oUooJjjUi_NWp-1" vertex="1">
          <mxGeometry x="1000" y="180" width="680" height="340" as="geometry" />
        </mxCell>
        <mxCell id="ewbDeu8oUooJjjUi_NWp-4" style="edgeStyle=orthogonalEdgeStyle;curved=1;orthogonalLoop=1;jettySize=auto;html=1;entryX=0;entryY=0.5;entryDx=0;entryDy=0;strokeColor=#000000;strokeWidth=2;fillColor=#666666;fontSize=17;fontColor=#000000;" parent="ewbDeu8oUooJjjUi_NWp-1" source="ewbDeu8oUooJjjUi_NWp-5" target="ewbDeu8oUooJjjUi_NWp-7" edge="1">
          <mxGeometry relative="1" as="geometry" />
        </mxCell>
        <mxCell id="ewbDeu8oUooJjjUi_NWp-5" value="&lt;font style=&quot;font-size: 21px&quot; color=&quot;#3399ff&quot;&gt;transport server&lt;/font&gt;" style="shape=mxgraph.bpmn.loop;html=1;outlineConnect=0;align=center;labelPosition=center;verticalLabelPosition=bottom;verticalAlign=top;fontSize=19;strokeWidth=3;" parent="ewbDeu8oUooJjjUi_NWp-1" vertex="1">
          <mxGeometry x="1100" y="330" width="60" height="60" as="geometry" />
        </mxCell>
        <mxCell id="ewbDeu8oUooJjjUi_NWp-6" style="edgeStyle=orthogonalEdgeStyle;curved=1;orthogonalLoop=1;jettySize=auto;html=1;entryX=0.5;entryY=0;entryDx=0;entryDy=0;strokeColor=#000000;strokeWidth=2;fillColor=#666666;fontSize=17;fontColor=#000000;" parent="ewbDeu8oUooJjjUi_NWp-1" source="ewbDeu8oUooJjjUi_NWp-7" target="ewbDeu8oUooJjjUi_NWp-9" edge="1">
          <mxGeometry relative="1" as="geometry" />
        </mxCell>
        <mxCell id="ewbDeu8oUooJjjUi_NWp-7" value="&lt;span style=&quot;font-size: 19px&quot;&gt;MetaDataManage&lt;/span&gt;" style="rounded=0;whiteSpace=wrap;html=1;strokeWidth=2;fontSize=17;align=center;fontColor=#3399FF;" parent="ewbDeu8oUooJjjUi_NWp-1" vertex="1">
          <mxGeometry x="1325" y="260" width="250" height="70" as="geometry" />
        </mxCell>
        <mxCell id="ewbDeu8oUooJjjUi_NWp-9" value="&lt;span style=&quot;font-size: 19px&quot;&gt;ResultPartitionManage&lt;/span&gt;" style="rounded=0;whiteSpace=wrap;html=1;strokeWidth=2;fontSize=17;align=center;fontColor=#3399FF;" parent="ewbDeu8oUooJjjUi_NWp-1" vertex="1">
          <mxGeometry x="1325" y="410" width="250" height="70" as="geometry" />
        </mxCell>
        <mxCell id="DswsF1ksv3mEE0naO1uK-0" value="YarnShuffleService" style="swimlane;fontStyle=0;childLayout=stackLayout;horizontal=1;startSize=26;fillColor=none;horizontalStack=0;resizeParent=1;resizeParentMax=0;resizeLast=0;collapsible=1;marginBottom=0;strokeColor=#000000;strokeWidth=2;fontSize=19;fontColor=#000000;align=center;" parent="ewbDeu8oUooJjjUi_NWp-1" vertex="1">
          <mxGeometry x="1190" y="580" width="340" height="156" as="geometry" />
        </mxCell>
        <mxCell id="DswsF1ksv3mEE0naO1uK-1" value="registerShuffle" style="text;strokeColor=none;fillColor=none;align=left;verticalAlign=top;spacingLeft=4;spacingRight=4;overflow=hidden;rotatable=0;points=[[0,0.5],[1,0.5]];portConstraint=eastwest;fontStyle=1;fontSize=14;" parent="DswsF1ksv3mEE0naO1uK-0" vertex="1">
          <mxGeometry y="26" width="340" height="26" as="geometry" />
        </mxCell>
        <mxCell id="DswsF1ksv3mEE0naO1uK-2" value="createResultPartitions" style="text;strokeColor=none;fillColor=none;align=left;verticalAlign=top;spacingLeft=4;spacingRight=4;overflow=hidden;rotatable=0;points=[[0,0.5],[1,0.5]];portConstraint=eastwest;fontSize=14;" parent="DswsF1ksv3mEE0naO1uK-0" vertex="1">
          <mxGeometry y="52" width="340" height="26" as="geometry" />
        </mxCell>
        <mxCell id="DswsF1ksv3mEE0naO1uK-3" value="startResultPartitions" style="text;strokeColor=none;fillColor=none;align=left;verticalAlign=top;spacingLeft=4;spacingRight=4;overflow=hidden;rotatable=0;points=[[0,0.5],[1,0.5]];portConstraint=eastwest;fontSize=14;" parent="DswsF1ksv3mEE0naO1uK-0" vertex="1">
          <mxGeometry y="78" width="340" height="26" as="geometry" />
        </mxCell>
        <mxCell id="DswsF1ksv3mEE0naO1uK-4" value="releasePartitions" style="text;strokeColor=none;fillColor=none;align=left;verticalAlign=top;spacingLeft=4;spacingRight=4;overflow=hidden;rotatable=0;points=[[0,0.5],[1,0.5]];portConstraint=eastwest;fontSize=14;" parent="DswsF1ksv3mEE0naO1uK-0" vertex="1">
          <mxGeometry y="104" width="340" height="26" as="geometry" />
        </mxCell>
        <mxCell id="DswsF1ksv3mEE0naO1uK-5" value="releaseExternalShuffle" style="text;strokeColor=none;fillColor=none;align=left;verticalAlign=top;spacingLeft=4;spacingRight=4;overflow=hidden;rotatable=0;points=[[0,0.5],[1,0.5]];portConstraint=eastwest;fontSize=14;" parent="DswsF1ksv3mEE0naO1uK-0" vertex="1">
          <mxGeometry y="130" width="340" height="26" as="geometry" />
        </mxCell>
      </root>
    </mxGraphModel>
  </diagram>
  <diagram id="siW5Ghv1Xoj50Y06hbwb" name="NettyServer">
    <mxGraphModel dx="1426" dy="1025" grid="1" gridSize="10" guides="1" tooltips="1" connect="1" arrows="1" fold="1" page="1" pageScale="1" pageWidth="827" pageHeight="1169" math="0" shadow="0">
      <root>
        <mxCell id="paKrYie3O4ucYjPyh18e-0" />
        <mxCell id="paKrYie3O4ucYjPyh18e-1" parent="paKrYie3O4ucYjPyh18e-0" />
        <mxCell id="paKrYie3O4ucYjPyh18e-6" value="" style="edgeStyle=orthogonalEdgeStyle;curved=1;orthogonalLoop=1;jettySize=auto;html=1;strokeColor=#3399FF;strokeWidth=2;fillColor=#666666;fontSize=14;fontColor=#000000;" parent="paKrYie3O4ucYjPyh18e-1" source="paKrYie3O4ucYjPyh18e-2" target="paKrYie3O4ucYjPyh18e-5" edge="1">
          <mxGeometry relative="1" as="geometry" />
        </mxCell>
        <mxCell id="paKrYie3O4ucYjPyh18e-2" value="ChannelHandler" style="rounded=0;whiteSpace=wrap;html=1;strokeColor=#000000;strokeWidth=2;fillColor=#ffffff;fontSize=14;fontColor=#000000;align=center;" parent="paKrYie3O4ucYjPyh18e-1" vertex="1">
          <mxGeometry x="160" y="360" width="120" height="40" as="geometry" />
        </mxCell>
        <mxCell id="paKrYie3O4ucYjPyh18e-11" style="edgeStyle=orthogonalEdgeStyle;curved=1;orthogonalLoop=1;jettySize=auto;html=1;entryX=0;entryY=0.5;entryDx=0;entryDy=0;strokeColor=#3399FF;strokeWidth=2;fillColor=#666666;fontSize=14;fontColor=#000000;" parent="paKrYie3O4ucYjPyh18e-1" source="paKrYie3O4ucYjPyh18e-5" target="paKrYie3O4ucYjPyh18e-8" edge="1">
          <mxGeometry relative="1" as="geometry" />
        </mxCell>
        <mxCell id="paKrYie3O4ucYjPyh18e-5" value="NettyProtocol" style="rounded=0;whiteSpace=wrap;html=1;strokeColor=#000000;strokeWidth=2;fillColor=#ffffff;fontSize=14;fontColor=#000000;align=center;" parent="paKrYie3O4ucYjPyh18e-1" vertex="1">
          <mxGeometry x="362" y="360" width="120" height="40" as="geometry" />
        </mxCell>
        <mxCell id="paKrYie3O4ucYjPyh18e-10" style="edgeStyle=orthogonalEdgeStyle;curved=1;orthogonalLoop=1;jettySize=auto;html=1;entryX=0;entryY=0.5;entryDx=0;entryDy=0;strokeColor=#3399FF;strokeWidth=2;fillColor=#666666;fontSize=14;fontColor=#000000;" parent="paKrYie3O4ucYjPyh18e-1" source="paKrYie3O4ucYjPyh18e-4" target="paKrYie3O4ucYjPyh18e-8" edge="1">
          <mxGeometry relative="1" as="geometry" />
        </mxCell>
        <mxCell id="paKrYie3O4ucYjPyh18e-4" value="NettyConfig" style="rounded=0;whiteSpace=wrap;html=1;strokeColor=#000000;strokeWidth=2;fillColor=#ffffff;fontSize=14;fontColor=#000000;align=center;" parent="paKrYie3O4ucYjPyh18e-1" vertex="1">
          <mxGeometry x="360" y="240" width="120" height="40" as="geometry" />
        </mxCell>
        <mxCell id="paKrYie3O4ucYjPyh18e-8" value="NettyServer" style="rounded=0;whiteSpace=wrap;html=1;strokeColor=#000000;strokeWidth=2;fillColor=#ffffff;fontSize=14;fontColor=#000000;align=center;" parent="paKrYie3O4ucYjPyh18e-1" vertex="1">
          <mxGeometry x="560" y="300" width="116" height="40" as="geometry" />
        </mxCell>
      </root>
    </mxGraphModel>
  </diagram>
  <diagram id="R_G2F9mpUcXrQms0ES6Q" name="NettyClient">
    <mxGraphModel dx="1426" dy="1025" grid="1" gridSize="10" guides="1" tooltips="1" connect="1" arrows="1" fold="1" page="1" pageScale="1" pageWidth="827" pageHeight="1169" math="0" shadow="0">
      <root>
        <mxCell id="-F603L_EuHX5RvqLKmLA-0" />
        <mxCell id="-F603L_EuHX5RvqLKmLA-1" parent="-F603L_EuHX5RvqLKmLA-0" />
        <mxCell id="D78hqAetTAapYONqrkRT-4" style="edgeStyle=orthogonalEdgeStyle;curved=1;orthogonalLoop=1;jettySize=auto;html=1;entryX=0;entryY=0.5;entryDx=0;entryDy=0;strokeColor=#3399FF;strokeWidth=2;fillColor=#666666;fontSize=14;fontColor=#000000;" parent="-F603L_EuHX5RvqLKmLA-1" source="D78hqAetTAapYONqrkRT-5" target="D78hqAetTAapYONqrkRT-6" edge="1">
          <mxGeometry relative="1" as="geometry" />
        </mxCell>
        <mxCell id="D78hqAetTAapYONqrkRT-5" value="NettyConfig" style="rounded=0;whiteSpace=wrap;html=1;strokeColor=#000000;strokeWidth=2;fillColor=#ffffff;fontSize=14;fontColor=#000000;align=center;" parent="-F603L_EuHX5RvqLKmLA-1" vertex="1">
          <mxGeometry x="150" y="380" width="120" height="40" as="geometry" />
        </mxCell>
        <mxCell id="D78hqAetTAapYONqrkRT-12" style="edgeStyle=orthogonalEdgeStyle;curved=1;orthogonalLoop=1;jettySize=auto;html=1;entryX=0;entryY=0.5;entryDx=0;entryDy=0;strokeColor=#3399FF;strokeWidth=2;fillColor=#666666;fontSize=20;fontColor=#000000;" parent="-F603L_EuHX5RvqLKmLA-1" source="D78hqAetTAapYONqrkRT-6" target="D78hqAetTAapYONqrkRT-9" edge="1">
          <mxGeometry relative="1" as="geometry" />
        </mxCell>
        <mxCell id="D78hqAetTAapYONqrkRT-6" value="NettyClient" style="rounded=0;whiteSpace=wrap;html=1;strokeColor=#000000;strokeWidth=2;fillColor=#ffffff;fontSize=14;fontColor=#000000;align=center;" parent="-F603L_EuHX5RvqLKmLA-1" vertex="1">
          <mxGeometry x="330" y="380" width="116" height="40" as="geometry" />
        </mxCell>
        <mxCell id="D78hqAetTAapYONqrkRT-11" style="edgeStyle=orthogonalEdgeStyle;curved=1;orthogonalLoop=1;jettySize=auto;html=1;entryX=0;entryY=0.5;entryDx=0;entryDy=0;strokeColor=#3399FF;strokeWidth=2;fillColor=#666666;fontSize=20;fontColor=#3399FF;" parent="-F603L_EuHX5RvqLKmLA-1" source="D78hqAetTAapYONqrkRT-7" target="D78hqAetTAapYONqrkRT-9" edge="1">
          <mxGeometry relative="1" as="geometry" />
        </mxCell>
        <mxCell id="D78hqAetTAapYONqrkRT-7" value="ClientFactory" style="rounded=0;whiteSpace=wrap;html=1;strokeColor=#000000;strokeWidth=2;fillColor=#ffffff;fontSize=14;fontColor=#3399FF;align=center;" parent="-F603L_EuHX5RvqLKmLA-1" vertex="1">
          <mxGeometry x="330" y="300" width="116" height="40" as="geometry" />
        </mxCell>
        <mxCell id="D78hqAetTAapYONqrkRT-10" style="edgeStyle=orthogonalEdgeStyle;curved=1;orthogonalLoop=1;jettySize=auto;html=1;entryX=0;entryY=0.5;entryDx=0;entryDy=0;strokeColor=#3399FF;strokeWidth=2;fillColor=#666666;fontSize=20;fontColor=#3399FF;" parent="-F603L_EuHX5RvqLKmLA-1" source="D78hqAetTAapYONqrkRT-8" target="D78hqAetTAapYONqrkRT-9" edge="1">
          <mxGeometry relative="1" as="geometry" />
        </mxCell>
        <mxCell id="D78hqAetTAapYONqrkRT-8" value="ConnectionID" style="rounded=0;whiteSpace=wrap;html=1;strokeColor=#000000;strokeWidth=2;fillColor=#ffffff;fontSize=14;fontColor=#3399FF;align=center;" parent="-F603L_EuHX5RvqLKmLA-1" vertex="1">
          <mxGeometry x="330" y="220" width="116" height="40" as="geometry" />
        </mxCell>
        <mxCell id="D78hqAetTAapYONqrkRT-17" style="edgeStyle=orthogonalEdgeStyle;curved=1;orthogonalLoop=1;jettySize=auto;html=1;entryX=0;entryY=0.5;entryDx=0;entryDy=0;strokeColor=#000000;strokeWidth=2;fillColor=#666666;fontSize=20;fontColor=#000000;shape=flexArrow;" parent="-F603L_EuHX5RvqLKmLA-1" source="D78hqAetTAapYONqrkRT-9" target="D78hqAetTAapYONqrkRT-16" edge="1">
          <mxGeometry relative="1" as="geometry" />
        </mxCell>
        <mxCell id="D78hqAetTAapYONqrkRT-9" value="RequestClient" style="rounded=0;whiteSpace=wrap;html=1;strokeColor=#000000;strokeWidth=2;fillColor=#ffffff;fontSize=14;fontColor=#3399FF;align=center;" parent="-F603L_EuHX5RvqLKmLA-1" vertex="1">
          <mxGeometry x="520" y="300" width="116" height="40" as="geometry" />
        </mxCell>
        <mxCell id="D78hqAetTAapYONqrkRT-18" style="edgeStyle=orthogonalEdgeStyle;curved=1;orthogonalLoop=1;jettySize=auto;html=1;strokeColor=#3399FF;strokeWidth=2;fillColor=#666666;fontSize=20;fontColor=#3399FF;" parent="-F603L_EuHX5RvqLKmLA-1" source="D78hqAetTAapYONqrkRT-13" edge="1">
          <mxGeometry relative="1" as="geometry">
            <mxPoint x="728" y="310" as="targetPoint" />
          </mxGeometry>
        </mxCell>
        <mxCell id="D78hqAetTAapYONqrkRT-13" value="NettyMessage" style="rounded=0;whiteSpace=wrap;html=1;strokeColor=#000000;strokeWidth=2;fillColor=#ffffff;fontSize=14;fontColor=#3399FF;align=center;" parent="-F603L_EuHX5RvqLKmLA-1" vertex="1">
          <mxGeometry x="670" y="180" width="116" height="40" as="geometry" />
        </mxCell>
        <mxCell id="D78hqAetTAapYONqrkRT-16" value="NettyServer" style="rounded=0;whiteSpace=wrap;html=1;strokeColor=#000000;strokeWidth=2;fillColor=#ffffff;fontSize=14;fontColor=#000000;align=center;" parent="-F603L_EuHX5RvqLKmLA-1" vertex="1">
          <mxGeometry x="860" y="300" width="116" height="40" as="geometry" />
        </mxCell>
      </root>
    </mxGraphModel>
  </diagram>
  <diagram id="MdAYVIrBQqxIawSBa8f4" name="ShuffleServiceFactory">
    <mxGraphModel dx="1426" dy="1025" grid="1" gridSize="10" guides="1" tooltips="1" connect="1" arrows="1" fold="1" page="1" pageScale="1" pageWidth="827" pageHeight="1169" math="0" shadow="0">
      <root>
        <mxCell id="ajYrwrhGYlxIpg5qDMjJ-0" />
        <mxCell id="ajYrwrhGYlxIpg5qDMjJ-1" parent="ajYrwrhGYlxIpg5qDMjJ-0" />
        <mxCell id="ajYrwrhGYlxIpg5qDMjJ-40" value="" style="rounded=0;whiteSpace=wrap;html=1;fontSize=17;align=left;dashed=1;labelPosition=center;verticalLabelPosition=top;verticalAlign=bottom;strokeWidth=2;fontColor=#3399FF;" parent="ajYrwrhGYlxIpg5qDMjJ-1" vertex="1">
          <mxGeometry x="180" y="170" width="770" height="650" as="geometry" />
        </mxCell>
        <mxCell id="6zs3kGTiwhnxpV1joZZO-2" value="ShuffleService" style="rounded=0;whiteSpace=wrap;html=1;labelBackgroundColor=none;strokeColor=#000000;strokeWidth=2;fillColor=none;fontSize=20;fontColor=none;align=left;verticalAlign=top;" parent="ajYrwrhGYlxIpg5qDMjJ-1" vertex="1">
          <mxGeometry x="220" y="450" width="690" height="330" as="geometry" />
        </mxCell>
        <mxCell id="ajYrwrhGYlxIpg5qDMjJ-41" value="&lt;span&gt;&lt;font&gt;ShuffleServiceFactory&lt;/font&gt;&lt;/span&gt;" style="rounded=0;whiteSpace=wrap;html=1;strokeWidth=2;fontSize=17;align=center;fontColor=#3399FF;" parent="ajYrwrhGYlxIpg5qDMjJ-1" vertex="1">
          <mxGeometry x="460" y="480" width="210" height="50" as="geometry" />
        </mxCell>
        <mxCell id="ajYrwrhGYlxIpg5qDMjJ-42" value="&lt;font style=&quot;font-size: 17px&quot;&gt;ShuffleMaster&lt;/font&gt;" style="rounded=0;whiteSpace=wrap;html=1;strokeWidth=2;fontSize=17;align=center;fontColor=#3399FF;" parent="ajYrwrhGYlxIpg5qDMjJ-1" vertex="1">
          <mxGeometry x="240" y="700" width="220" height="60" as="geometry" />
        </mxCell>
        <mxCell id="ajYrwrhGYlxIpg5qDMjJ-49" value="&lt;font style=&quot;font-size: 17px&quot;&gt;ShuffleEnvironment&lt;/font&gt;" style="rounded=0;whiteSpace=wrap;html=1;strokeWidth=2;fontSize=17;align=center;fontColor=#3399FF;" parent="ajYrwrhGYlxIpg5qDMjJ-1" vertex="1">
          <mxGeometry x="670" y="700" width="220" height="60" as="geometry" />
        </mxCell>
        <mxCell id="6zs3kGTiwhnxpV1joZZO-0" value="" style="curved=1;endArrow=classic;html=1;strokeColor=#000000;strokeWidth=2;fillColor=#666666;fontSize=20;fontColor=none;exitX=0.5;exitY=1;exitDx=0;exitDy=0;entryX=0.5;entryY=0;entryDx=0;entryDy=0;" parent="ajYrwrhGYlxIpg5qDMjJ-1" source="ajYrwrhGYlxIpg5qDMjJ-41" target="ajYrwrhGYlxIpg5qDMjJ-42" edge="1">
          <mxGeometry width="50" height="50" relative="1" as="geometry">
            <mxPoint x="460" y="630" as="sourcePoint" />
            <mxPoint x="510" y="580" as="targetPoint" />
            <Array as="points">
              <mxPoint x="530" y="580" />
              <mxPoint x="370" y="610" />
            </Array>
          </mxGeometry>
        </mxCell>
        <mxCell id="6zs3kGTiwhnxpV1joZZO-1" value="" style="curved=1;endArrow=classic;html=1;strokeColor=#000000;strokeWidth=2;fillColor=#666666;fontSize=20;fontColor=none;exitX=0.5;exitY=1;exitDx=0;exitDy=0;entryX=0.5;entryY=0;entryDx=0;entryDy=0;" parent="ajYrwrhGYlxIpg5qDMjJ-1" source="ajYrwrhGYlxIpg5qDMjJ-41" target="ajYrwrhGYlxIpg5qDMjJ-49" edge="1">
          <mxGeometry width="50" height="50" relative="1" as="geometry">
            <mxPoint x="670" y="640" as="sourcePoint" />
            <mxPoint x="720" y="590" as="targetPoint" />
            <Array as="points">
              <mxPoint x="620" y="580" />
              <mxPoint x="770" y="610" />
            </Array>
          </mxGeometry>
        </mxCell>
        <mxCell id="6zs3kGTiwhnxpV1joZZO-8" style="edgeStyle=none;orthogonalLoop=1;jettySize=auto;html=1;entryX=0.217;entryY=0;entryDx=0;entryDy=0;entryPerimeter=0;strokeColor=#000000;strokeWidth=2;fillColor=#666666;fontSize=20;fontColor=none;" parent="ajYrwrhGYlxIpg5qDMjJ-1" source="6zs3kGTiwhnxpV1joZZO-4" target="6zs3kGTiwhnxpV1joZZO-2" edge="1">
          <mxGeometry relative="1" as="geometry" />
        </mxCell>
        <mxCell id="6zs3kGTiwhnxpV1joZZO-10" value="createShuffleMaster" style="edgeLabel;html=1;align=center;verticalAlign=middle;resizable=0;points=[];fontSize=20;fontColor=none;" parent="6zs3kGTiwhnxpV1joZZO-8" vertex="1" connectable="0">
          <mxGeometry x="-0.2111" y="2" relative="1" as="geometry">
            <mxPoint x="-1.87" y="9" as="offset" />
          </mxGeometry>
        </mxCell>
        <mxCell id="6zs3kGTiwhnxpV1joZZO-4" value="JobManager" style="rounded=0;whiteSpace=wrap;html=1;labelBackgroundColor=none;strokeColor=#000000;strokeWidth=2;fillColor=none;fontSize=20;fontColor=none;align=center;" parent="ajYrwrhGYlxIpg5qDMjJ-1" vertex="1">
          <mxGeometry x="270" y="210" width="200" height="60" as="geometry" />
        </mxCell>
        <mxCell id="6zs3kGTiwhnxpV1joZZO-9" style="edgeStyle=none;orthogonalLoop=1;jettySize=auto;html=1;entryX=0.726;entryY=-0.012;entryDx=0;entryDy=0;entryPerimeter=0;strokeColor=#000000;strokeWidth=2;fillColor=#666666;fontSize=20;fontColor=none;" parent="ajYrwrhGYlxIpg5qDMjJ-1" source="6zs3kGTiwhnxpV1joZZO-6" target="6zs3kGTiwhnxpV1joZZO-2" edge="1">
          <mxGeometry relative="1" as="geometry" />
        </mxCell>
        <mxCell id="6zs3kGTiwhnxpV1joZZO-11" value="createShuffleEnvironment" style="edgeLabel;html=1;align=center;verticalAlign=middle;resizable=0;points=[];fontSize=20;fontColor=none;" parent="6zs3kGTiwhnxpV1joZZO-9" vertex="1" connectable="0">
          <mxGeometry x="-0.114" y="-2" relative="1" as="geometry">
            <mxPoint as="offset" />
          </mxGeometry>
        </mxCell>
        <mxCell id="6zs3kGTiwhnxpV1joZZO-6" value="TaskManager" style="rounded=0;whiteSpace=wrap;html=1;labelBackgroundColor=none;strokeColor=#000000;strokeWidth=2;fillColor=none;fontSize=20;fontColor=none;align=center;" parent="ajYrwrhGYlxIpg5qDMjJ-1" vertex="1">
          <mxGeometry x="620" y="210" width="200" height="60" as="geometry" />
        </mxCell>
      </root>
    </mxGraphModel>
  </diagram>
  <diagram id="IvtQUVRaFLyPtVOFoS6u" name="TaskException">
    <mxGraphModel dx="1106" dy="1924" grid="1" gridSize="10" guides="1" tooltips="1" connect="1" arrows="1" fold="1" page="1" pageScale="1" pageWidth="827" pageHeight="1169" math="0" shadow="0">
      <root>
        <mxCell id="V_q5pNSTOkCM7RH2ri7a-0" />
        <mxCell id="V_q5pNSTOkCM7RH2ri7a-1" parent="V_q5pNSTOkCM7RH2ri7a-0" />
        <mxCell id="cAs1i4GNWPNFNKovt5yp-0" value="JobMaster" style="rounded=0;whiteSpace=wrap;html=1;dashed=1;labelBackgroundColor=none;strokeColor=#000000;strokeWidth=2;fillColor=#ffffff;fontSize=22;fontColor=none;align=left;verticalAlign=top;" parent="V_q5pNSTOkCM7RH2ri7a-1" vertex="1">
          <mxGeometry x="80" y="-160" width="790" height="860" as="geometry" />
        </mxCell>
        <mxCell id="cAs1i4GNWPNFNKovt5yp-2" value="&lt;font style=&quot;font-size: 20px&quot;&gt;Schedule&lt;/font&gt;" style="rounded=0;whiteSpace=wrap;html=1;labelBackgroundColor=none;strokeColor=#000000;strokeWidth=2;fillColor=none;fontSize=17;fontColor=none;align=left;verticalAlign=top;" parent="V_q5pNSTOkCM7RH2ri7a-1" vertex="1">
          <mxGeometry x="220" y="280" width="520" height="360" as="geometry" />
        </mxCell>
        <mxCell id="cAs1i4GNWPNFNKovt5yp-4" value="" style="endArrow=classic;startArrow=classic;html=1;strokeColor=#000000;strokeWidth=1;fillColor=#666666;fontSize=17;fontColor=none;entryX=0.5;entryY=1;entryDx=0;entryDy=0;exitX=0.5;exitY=0;exitDx=0;exitDy=0;shape=flexArrow;" parent="V_q5pNSTOkCM7RH2ri7a-1" source="cAs1i4GNWPNFNKovt5yp-2" target="cAs1i4GNWPNFNKovt5yp-5" edge="1">
          <mxGeometry width="50" height="50" relative="1" as="geometry">
            <mxPoint x="430" y="287.27" as="sourcePoint" />
            <mxPoint x="480" y="237.27" as="targetPoint" />
          </mxGeometry>
        </mxCell>
        <mxCell id="cAs1i4GNWPNFNKovt5yp-5" value="&lt;font style=&quot;font-size: 20px&quot;&gt;&amp;nbsp;Execution Graph&lt;/font&gt;" style="rounded=0;whiteSpace=wrap;html=1;labelBackgroundColor=none;strokeColor=#000000;strokeWidth=2;fillColor=#ffffff;fontSize=17;fontColor=none;align=left;verticalAlign=top;" parent="V_q5pNSTOkCM7RH2ri7a-1" vertex="1">
          <mxGeometry x="220" y="-70" width="520" height="190" as="geometry" />
        </mxCell>
        <mxCell id="cAs1i4GNWPNFNKovt5yp-6" value="2" style="ellipse;whiteSpace=wrap;html=1;labelBackgroundColor=none;strokeColor=#000000;strokeWidth=2;fillColor=#999999;fontSize=22;fontColor=none;align=center;" parent="V_q5pNSTOkCM7RH2ri7a-1" vertex="1">
          <mxGeometry x="279.99857142857144" y="47.267272727272726" width="75.94285714285715" height="54.54545454545455" as="geometry" />
        </mxCell>
        <mxCell id="cAs1i4GNWPNFNKovt5yp-7" value="3" style="ellipse;whiteSpace=wrap;html=1;labelBackgroundColor=none;strokeColor=#000000;strokeWidth=2;fillColor=#999999;fontSize=22;fontColor=none;align=center;" parent="V_q5pNSTOkCM7RH2ri7a-1" vertex="1">
          <mxGeometry x="460.0035714285715" y="11.35727272727273" width="75.94285714285715" height="54.54545454545455" as="geometry" />
        </mxCell>
        <mxCell id="cAs1i4GNWPNFNKovt5yp-8" style="edgeStyle=none;orthogonalLoop=1;jettySize=auto;html=1;entryX=0;entryY=0.5;entryDx=0;entryDy=0;strokeColor=#000000;strokeWidth=2;fillColor=#666666;fontSize=18;fontColor=none;" parent="V_q5pNSTOkCM7RH2ri7a-1" source="cAs1i4GNWPNFNKovt5yp-6" target="cAs1i4GNWPNFNKovt5yp-7" edge="1">
          <mxGeometry relative="1" as="geometry" />
        </mxCell>
        <mxCell id="cAs1i4GNWPNFNKovt5yp-9" value="4" style="ellipse;whiteSpace=wrap;html=1;labelBackgroundColor=none;strokeColor=#000000;strokeWidth=2;fillColor=#999999;fontSize=22;fontColor=none;align=center;" parent="V_q5pNSTOkCM7RH2ri7a-1" vertex="1">
          <mxGeometry x="627.1785714285714" y="11.35727272727273" width="75.94285714285715" height="54.54545454545455" as="geometry" />
        </mxCell>
        <mxCell id="cAs1i4GNWPNFNKovt5yp-10" style="edgeStyle=none;orthogonalLoop=1;jettySize=auto;html=1;entryX=0;entryY=0.5;entryDx=0;entryDy=0;strokeColor=#000000;strokeWidth=2;fillColor=#666666;fontSize=18;fontColor=none;" parent="V_q5pNSTOkCM7RH2ri7a-1" source="cAs1i4GNWPNFNKovt5yp-7" target="cAs1i4GNWPNFNKovt5yp-9" edge="1">
          <mxGeometry relative="1" as="geometry" />
        </mxCell>
        <mxCell id="cAs1i4GNWPNFNKovt5yp-11" value="TaskManager" style="rounded=0;whiteSpace=wrap;html=1;dashed=1;labelBackgroundColor=none;strokeColor=#000000;strokeWidth=2;fillColor=#ffffff;fontSize=22;fontColor=none;align=left;verticalAlign=top;" parent="V_q5pNSTOkCM7RH2ri7a-1" vertex="1">
          <mxGeometry x="1153" y="-160" width="346" height="240" as="geometry" />
        </mxCell>
        <mxCell id="cAs1i4GNWPNFNKovt5yp-13" value="Slot" style="rounded=0;whiteSpace=wrap;html=1;labelBackgroundColor=none;strokeColor=#000000;strokeWidth=2;fillColor=none;fontSize=17;fontColor=none;align=left;verticalAlign=top;" parent="V_q5pNSTOkCM7RH2ri7a-1" vertex="1">
          <mxGeometry x="1180" y="-100" width="120" height="120" as="geometry" />
        </mxCell>
        <mxCell id="cAs1i4GNWPNFNKovt5yp-14" value="1" style="ellipse;whiteSpace=wrap;html=1;labelBackgroundColor=none;strokeColor=#000000;strokeWidth=2;fillColor=#999999;fontSize=22;fontColor=none;align=center;" parent="V_q5pNSTOkCM7RH2ri7a-1" vertex="1">
          <mxGeometry x="1202.9985714285715" y="-67.27272727272725" width="75.94285714285715" height="54.54545454545455" as="geometry" />
        </mxCell>
        <mxCell id="cAs1i4GNWPNFNKovt5yp-41" value="TaskManager" style="rounded=0;whiteSpace=wrap;html=1;dashed=1;labelBackgroundColor=none;strokeColor=#000000;strokeWidth=2;fillColor=#ffffff;fontSize=22;fontColor=none;align=left;verticalAlign=top;" parent="V_q5pNSTOkCM7RH2ri7a-1" vertex="1">
          <mxGeometry x="1156" y="170" width="346" height="240" as="geometry" />
        </mxCell>
        <mxCell id="cAs1i4GNWPNFNKovt5yp-42" value="Slot" style="rounded=0;whiteSpace=wrap;html=1;labelBackgroundColor=none;strokeColor=#000000;strokeWidth=2;fillColor=none;fontSize=17;fontColor=none;align=left;verticalAlign=top;" parent="V_q5pNSTOkCM7RH2ri7a-1" vertex="1">
          <mxGeometry x="1232" y="230" width="200" height="120" as="geometry" />
        </mxCell>
        <mxCell id="cAs1i4GNWPNFNKovt5yp-43" value="3" style="ellipse;whiteSpace=wrap;html=1;labelBackgroundColor=none;strokeColor=#000000;strokeWidth=2;fillColor=#999999;fontSize=22;fontColor=none;align=center;" parent="V_q5pNSTOkCM7RH2ri7a-1" vertex="1">
          <mxGeometry x="1294.0285714285715" y="262.72727272727275" width="75.94285714285715" height="54.54545454545455" as="geometry" />
        </mxCell>
        <mxCell id="cAs1i4GNWPNFNKovt5yp-45" value="" style="curved=1;endArrow=classic;html=1;strokeColor=#000000;strokeWidth=2;fillColor=#666666;fontSize=20;fontColor=none;entryX=0;entryY=0.25;entryDx=0;entryDy=0;exitX=1;exitY=0.25;exitDx=0;exitDy=0;" parent="V_q5pNSTOkCM7RH2ri7a-1" source="cAs1i4GNWPNFNKovt5yp-5" target="cAs1i4GNWPNFNKovt5yp-11" edge="1">
          <mxGeometry width="50" height="50" relative="1" as="geometry">
            <mxPoint x="990" y="90" as="sourcePoint" />
            <mxPoint x="1040" y="40" as="targetPoint" />
            <Array as="points">
              <mxPoint x="990" y="-90" />
            </Array>
          </mxGeometry>
        </mxCell>
        <mxCell id="vaAXy3hlfKyDxYnrryFI-0" value="① deploy" style="edgeLabel;html=1;align=center;verticalAlign=middle;resizable=0;points=[];fontSize=20;fontColor=none;rotation=-9;" parent="cAs1i4GNWPNFNKovt5yp-45" vertex="1" connectable="0">
          <mxGeometry x="0.0334" y="-3" relative="1" as="geometry">
            <mxPoint x="48.7" y="-20.559999999999995" as="offset" />
          </mxGeometry>
        </mxCell>
        <mxCell id="cAs1i4GNWPNFNKovt5yp-46" value="" style="curved=1;endArrow=classic;html=1;strokeColor=#000000;strokeWidth=2;fillColor=#666666;fontSize=20;fontColor=none;exitX=0;exitY=0.75;exitDx=0;exitDy=0;entryX=1;entryY=0.25;entryDx=0;entryDy=0;" parent="V_q5pNSTOkCM7RH2ri7a-1" source="cAs1i4GNWPNFNKovt5yp-11" target="cAs1i4GNWPNFNKovt5yp-2" edge="1">
          <mxGeometry width="50" height="50" relative="1" as="geometry">
            <mxPoint x="990" y="170" as="sourcePoint" />
            <mxPoint x="1040" y="120" as="targetPoint" />
            <Array as="points">
              <mxPoint x="970" y="60" />
            </Array>
          </mxGeometry>
        </mxCell>
        <mxCell id="YirdrGe88Po99fejGSwa-0" value="② finish" style="edgeLabel;html=1;align=center;verticalAlign=middle;resizable=0;points=[];fontSize=20;fontColor=none;rotation=-30;" parent="cAs1i4GNWPNFNKovt5yp-46" vertex="1" connectable="0">
          <mxGeometry x="-0.1809" y="2" relative="1" as="geometry">
            <mxPoint x="82.37" y="-41.15" as="offset" />
          </mxGeometry>
        </mxCell>
        <mxCell id="YirdrGe88Po99fejGSwa-1" value="" style="curved=1;endArrow=classic;html=1;strokeColor=#000000;strokeWidth=2;fillColor=#666666;fontSize=20;fontColor=none;exitX=1;exitY=0.5;exitDx=0;exitDy=0;entryX=0;entryY=0.25;entryDx=0;entryDy=0;" parent="V_q5pNSTOkCM7RH2ri7a-1" source="cAs1i4GNWPNFNKovt5yp-5" target="cAs1i4GNWPNFNKovt5yp-41" edge="1">
          <mxGeometry width="50" height="50" relative="1" as="geometry">
            <mxPoint x="1050" y="350" as="sourcePoint" />
            <mxPoint x="1100" y="300" as="targetPoint" />
            <Array as="points">
              <mxPoint x="1070" y="110" />
            </Array>
          </mxGeometry>
        </mxCell>
        <mxCell id="YirdrGe88Po99fejGSwa-2" value="③ deploy" style="edgeLabel;html=1;align=center;verticalAlign=middle;resizable=0;points=[];fontSize=20;fontColor=none;rotation=30;" parent="YirdrGe88Po99fejGSwa-1" vertex="1" connectable="0">
          <mxGeometry x="0.2431" y="-2" relative="1" as="geometry">
            <mxPoint x="27.24" y="25.33" as="offset" />
          </mxGeometry>
        </mxCell>
        <mxCell id="YirdrGe88Po99fejGSwa-3" value="" style="curved=1;endArrow=classic;html=1;strokeColor=#000000;strokeWidth=2;fillColor=#666666;fontSize=20;fontColor=none;exitX=0;exitY=0.75;exitDx=0;exitDy=0;entryX=1;entryY=0.5;entryDx=0;entryDy=0;" parent="V_q5pNSTOkCM7RH2ri7a-1" source="cAs1i4GNWPNFNKovt5yp-41" target="cAs1i4GNWPNFNKovt5yp-2" edge="1">
          <mxGeometry width="50" height="50" relative="1" as="geometry">
            <mxPoint x="910" y="420" as="sourcePoint" />
            <mxPoint x="960" y="370" as="targetPoint" />
            <Array as="points">
              <mxPoint x="1040" y="340" />
              <mxPoint x="870" y="360" />
            </Array>
          </mxGeometry>
        </mxCell>
        <mxCell id="YirdrGe88Po99fejGSwa-4" value="&lt;font color=&quot;#ff0000&quot;&gt;④ exception&lt;/font&gt;" style="edgeLabel;html=1;align=center;verticalAlign=middle;resizable=0;points=[];fontSize=20;fontColor=none;rotation=0;" parent="YirdrGe88Po99fejGSwa-3" vertex="1" connectable="0">
          <mxGeometry x="-0.3456" y="3" relative="1" as="geometry">
            <mxPoint x="37.82" y="-16.629999999999995" as="offset" />
          </mxGeometry>
        </mxCell>
        <mxCell id="YirdrGe88Po99fejGSwa-6" style="edgeStyle=none;orthogonalLoop=1;jettySize=auto;html=1;entryX=0;entryY=0.5;entryDx=0;entryDy=0;strokeColor=#000000;strokeWidth=2;fillColor=#666666;fontSize=20;fontColor=none;" parent="V_q5pNSTOkCM7RH2ri7a-1" source="YirdrGe88Po99fejGSwa-5" target="cAs1i4GNWPNFNKovt5yp-7" edge="1">
          <mxGeometry relative="1" as="geometry" />
        </mxCell>
        <mxCell id="YirdrGe88Po99fejGSwa-5" value="1" style="ellipse;whiteSpace=wrap;html=1;labelBackgroundColor=none;strokeColor=#000000;strokeWidth=2;fillColor=#999999;fontSize=22;fontColor=none;align=center;" parent="V_q5pNSTOkCM7RH2ri7a-1" vertex="1">
          <mxGeometry x="279.99857142857144" y="-24.542727272727276" width="75.94285714285715" height="54.54545454545455" as="geometry" />
        </mxCell>
        <mxCell id="YirdrGe88Po99fejGSwa-7" value="Slot" style="rounded=0;whiteSpace=wrap;html=1;labelBackgroundColor=none;strokeColor=#000000;strokeWidth=2;fillColor=none;fontSize=17;fontColor=none;align=left;verticalAlign=top;" parent="V_q5pNSTOkCM7RH2ri7a-1" vertex="1">
          <mxGeometry x="1350" y="-100" width="120" height="120" as="geometry" />
        </mxCell>
        <mxCell id="YirdrGe88Po99fejGSwa-8" value="2" style="ellipse;whiteSpace=wrap;html=1;labelBackgroundColor=none;strokeColor=#000000;strokeWidth=2;fillColor=#999999;fontSize=22;fontColor=none;align=center;" parent="V_q5pNSTOkCM7RH2ri7a-1" vertex="1">
          <mxGeometry x="1372.9985714285715" y="-67.27272727272725" width="75.94285714285715" height="54.54545454545455" as="geometry" />
        </mxCell>
        <mxCell id="YirdrGe88Po99fejGSwa-14" style="edgeStyle=none;orthogonalLoop=1;jettySize=auto;html=1;entryX=0.5;entryY=0;entryDx=0;entryDy=0;strokeColor=#000000;strokeWidth=2;fillColor=#666666;fontSize=14;fontColor=none;" parent="V_q5pNSTOkCM7RH2ri7a-1" source="YirdrGe88Po99fejGSwa-12" target="YirdrGe88Po99fejGSwa-13" edge="1">
          <mxGeometry relative="1" as="geometry" />
        </mxCell>
        <mxCell id="YirdrGe88Po99fejGSwa-19" value="yes" style="edgeLabel;html=1;align=center;verticalAlign=middle;resizable=0;points=[];fontSize=14;fontColor=none;" parent="YirdrGe88Po99fejGSwa-14" vertex="1" connectable="0">
          <mxGeometry x="-0.4054" relative="1" as="geometry">
            <mxPoint x="12.969999999999999" y="2" as="offset" />
          </mxGeometry>
        </mxCell>
        <mxCell id="YirdrGe88Po99fejGSwa-29" style="edgeStyle=none;orthogonalLoop=1;jettySize=auto;html=1;entryX=0;entryY=0.5;entryDx=0;entryDy=0;strokeColor=#000000;strokeWidth=2;fillColor=#666666;fontSize=14;fontColor=none;" parent="V_q5pNSTOkCM7RH2ri7a-1" source="YirdrGe88Po99fejGSwa-12" target="YirdrGe88Po99fejGSwa-28" edge="1">
          <mxGeometry relative="1" as="geometry" />
        </mxCell>
        <mxCell id="YirdrGe88Po99fejGSwa-30" value="no" style="edgeLabel;html=1;align=center;verticalAlign=middle;resizable=0;points=[];fontSize=14;fontColor=none;" parent="YirdrGe88Po99fejGSwa-29" vertex="1" connectable="0">
          <mxGeometry x="-0.4245" y="-1" relative="1" as="geometry">
            <mxPoint x="6.95" y="-11" as="offset" />
          </mxGeometry>
        </mxCell>
        <mxCell id="YirdrGe88Po99fejGSwa-12" value="Error?" style="rhombus;whiteSpace=wrap;html=1;labelBackgroundColor=none;strokeColor=#000000;strokeWidth=2;fillColor=none;fontSize=14;fontColor=none;align=center;" parent="V_q5pNSTOkCM7RH2ri7a-1" vertex="1">
          <mxGeometry x="313.5" y="360" width="130" height="60" as="geometry" />
        </mxCell>
        <mxCell id="YirdrGe88Po99fejGSwa-16" style="edgeStyle=none;orthogonalLoop=1;jettySize=auto;html=1;entryX=0.5;entryY=0;entryDx=0;entryDy=0;strokeColor=#000000;strokeWidth=2;fillColor=#666666;fontSize=14;fontColor=none;" parent="V_q5pNSTOkCM7RH2ri7a-1" source="YirdrGe88Po99fejGSwa-13" target="YirdrGe88Po99fejGSwa-15" edge="1">
          <mxGeometry relative="1" as="geometry" />
        </mxCell>
        <mxCell id="YirdrGe88Po99fejGSwa-38" style="edgeStyle=none;orthogonalLoop=1;jettySize=auto;html=1;entryX=1;entryY=0.5;entryDx=0;entryDy=0;strokeColor=#000000;strokeWidth=2;fillColor=#666666;fontSize=14;fontColor=none;" parent="V_q5pNSTOkCM7RH2ri7a-1" source="YirdrGe88Po99fejGSwa-13" target="YirdrGe88Po99fejGSwa-37" edge="1">
          <mxGeometry relative="1" as="geometry" />
        </mxCell>
        <mxCell id="YirdrGe88Po99fejGSwa-39" value="&lt;font color=&quot;#ff0000&quot; style=&quot;font-size: 17px&quot;&gt;Error&lt;/font&gt;" style="edgeLabel;html=1;align=center;verticalAlign=middle;resizable=0;points=[];fontSize=14;fontColor=none;" parent="YirdrGe88Po99fejGSwa-38" vertex="1" connectable="0">
          <mxGeometry x="0.19" relative="1" as="geometry">
            <mxPoint x="1" y="-12" as="offset" />
          </mxGeometry>
        </mxCell>
        <mxCell id="YirdrGe88Po99fejGSwa-13" value="CanRestart?" style="rhombus;whiteSpace=wrap;html=1;labelBackgroundColor=none;strokeColor=#000000;strokeWidth=2;fillColor=none;fontSize=14;fontColor=none;align=center;" parent="V_q5pNSTOkCM7RH2ri7a-1" vertex="1">
          <mxGeometry x="313.5" y="462.73" width="130" height="60" as="geometry" />
        </mxCell>
        <mxCell id="YirdrGe88Po99fejGSwa-34" style="edgeStyle=none;orthogonalLoop=1;jettySize=auto;html=1;entryX=0;entryY=0.5;entryDx=0;entryDy=0;strokeColor=#000000;strokeWidth=2;fillColor=#666666;fontSize=14;fontColor=none;" parent="V_q5pNSTOkCM7RH2ri7a-1" source="YirdrGe88Po99fejGSwa-15" target="YirdrGe88Po99fejGSwa-32" edge="1">
          <mxGeometry relative="1" as="geometry" />
        </mxCell>
        <mxCell id="YirdrGe88Po99fejGSwa-15" value="getVerticesToRestart" style="rounded=0;whiteSpace=wrap;html=1;labelBackgroundColor=none;strokeColor=#000000;strokeWidth=2;fillColor=none;fontSize=14;fontColor=none;align=center;" parent="V_q5pNSTOkCM7RH2ri7a-1" vertex="1">
          <mxGeometry x="298.5" y="562.73" width="160" height="50" as="geometry" />
        </mxCell>
        <mxCell id="YirdrGe88Po99fejGSwa-33" style="edgeStyle=none;orthogonalLoop=1;jettySize=auto;html=1;entryX=0.5;entryY=0;entryDx=0;entryDy=0;strokeColor=#000000;strokeWidth=2;fillColor=#666666;fontSize=14;fontColor=none;" parent="V_q5pNSTOkCM7RH2ri7a-1" source="YirdrGe88Po99fejGSwa-28" target="YirdrGe88Po99fejGSwa-32" edge="1">
          <mxGeometry relative="1" as="geometry" />
        </mxCell>
        <mxCell id="YirdrGe88Po99fejGSwa-28" value="getConsumerVertices" style="rounded=0;whiteSpace=wrap;html=1;labelBackgroundColor=none;strokeColor=#000000;strokeWidth=2;fillColor=none;fontSize=14;fontColor=none;align=center;" parent="V_q5pNSTOkCM7RH2ri7a-1" vertex="1">
          <mxGeometry x="500" y="365" width="150" height="50" as="geometry" />
        </mxCell>
        <mxCell id="YirdrGe88Po99fejGSwa-35" style="edgeStyle=none;orthogonalLoop=1;jettySize=auto;html=1;entryX=1.004;entryY=0.852;entryDx=0;entryDy=0;entryPerimeter=0;strokeColor=#000000;strokeWidth=2;fillColor=#666666;fontSize=14;fontColor=none;" parent="V_q5pNSTOkCM7RH2ri7a-1" source="YirdrGe88Po99fejGSwa-32" target="cAs1i4GNWPNFNKovt5yp-2" edge="1">
          <mxGeometry relative="1" as="geometry" />
        </mxCell>
        <mxCell id="YirdrGe88Po99fejGSwa-36" value="deploy" style="edgeLabel;html=1;align=center;verticalAlign=middle;resizable=0;points=[];fontSize=14;fontColor=none;" parent="YirdrGe88Po99fejGSwa-35" vertex="1" connectable="0">
          <mxGeometry x="-0.1301" y="2" relative="1" as="geometry">
            <mxPoint y="-10.02" as="offset" />
          </mxGeometry>
        </mxCell>
        <mxCell id="YirdrGe88Po99fejGSwa-32" value="allocateSlotsAndDeploy&lt;br&gt;ExecutionVertices" style="rounded=0;whiteSpace=wrap;html=1;labelBackgroundColor=none;strokeColor=#000000;strokeWidth=2;fillColor=none;fontSize=14;fontColor=none;align=center;" parent="V_q5pNSTOkCM7RH2ri7a-1" vertex="1">
          <mxGeometry x="495" y="562.73" width="160" height="50" as="geometry" />
        </mxCell>
        <mxCell id="YirdrGe88Po99fejGSwa-37" value="" style="shape=mxgraph.bpmn.shape;html=1;verticalLabelPosition=bottom;labelBackgroundColor=#ffffff;verticalAlign=top;align=center;perimeter=ellipsePerimeter;outlineConnect=0;outline=boundInt;symbol=error;strokeColor=#000000;strokeWidth=2;fillColor=#ffffff;fontSize=14;fontColor=none;" parent="V_q5pNSTOkCM7RH2ri7a-1" vertex="1">
          <mxGeometry x="55" y="467.73" width="50" height="50" as="geometry" />
        </mxCell>
        <mxCell id="YirdrGe88Po99fejGSwa-40" value="TaskManager" style="rounded=0;whiteSpace=wrap;html=1;dashed=1;labelBackgroundColor=none;strokeColor=#000000;strokeWidth=2;fillColor=#ffffff;fontSize=22;fontColor=none;align=left;verticalAlign=top;" parent="V_q5pNSTOkCM7RH2ri7a-1" vertex="1">
          <mxGeometry x="1159" y="470" width="346" height="240" as="geometry" />
        </mxCell>
        <mxCell id="YirdrGe88Po99fejGSwa-41" value="Slot" style="rounded=0;whiteSpace=wrap;html=1;labelBackgroundColor=none;strokeColor=#000000;strokeWidth=2;fillColor=none;fontSize=17;fontColor=none;align=left;verticalAlign=top;" parent="V_q5pNSTOkCM7RH2ri7a-1" vertex="1">
          <mxGeometry x="1186" y="530" width="120" height="120" as="geometry" />
        </mxCell>
        <mxCell id="YirdrGe88Po99fejGSwa-42" value="1" style="ellipse;whiteSpace=wrap;html=1;labelBackgroundColor=none;strokeColor=#000000;strokeWidth=2;fillColor=#999999;fontSize=22;fontColor=none;align=center;" parent="V_q5pNSTOkCM7RH2ri7a-1" vertex="1">
          <mxGeometry x="1208.9985714285715" y="562.7272727272727" width="75.94285714285715" height="54.54545454545455" as="geometry" />
        </mxCell>
        <mxCell id="YirdrGe88Po99fejGSwa-43" value="Slot" style="rounded=0;whiteSpace=wrap;html=1;labelBackgroundColor=none;strokeColor=#000000;strokeWidth=2;fillColor=none;fontSize=17;fontColor=none;align=left;verticalAlign=top;" parent="V_q5pNSTOkCM7RH2ri7a-1" vertex="1">
          <mxGeometry x="1356" y="530" width="120" height="120" as="geometry" />
        </mxCell>
        <mxCell id="YirdrGe88Po99fejGSwa-44" value="2" style="ellipse;whiteSpace=wrap;html=1;labelBackgroundColor=none;strokeColor=#000000;strokeWidth=2;fillColor=#999999;fontSize=22;fontColor=none;align=center;" parent="V_q5pNSTOkCM7RH2ri7a-1" vertex="1">
          <mxGeometry x="1378.9985714285715" y="562.7272727272727" width="75.94285714285715" height="54.54545454545455" as="geometry" />
        </mxCell>
        <mxCell id="YirdrGe88Po99fejGSwa-45" value="" style="curved=1;endArrow=classic;html=1;strokeColor=#000000;strokeWidth=2;fillColor=#666666;fontSize=14;fontColor=none;exitX=1;exitY=0.75;exitDx=0;exitDy=0;entryX=0;entryY=0.5;entryDx=0;entryDy=0;" parent="V_q5pNSTOkCM7RH2ri7a-1" source="cAs1i4GNWPNFNKovt5yp-5" target="YirdrGe88Po99fejGSwa-40" edge="1">
          <mxGeometry width="50" height="50" relative="1" as="geometry">
            <mxPoint x="950" y="280" as="sourcePoint" />
            <mxPoint x="1000" y="230" as="targetPoint" />
            <Array as="points">
              <mxPoint x="850" y="270" />
              <mxPoint x="1040" y="540" />
            </Array>
          </mxGeometry>
        </mxCell>
        <mxCell id="YirdrGe88Po99fejGSwa-46" value="&lt;font color=&quot;#00cc00&quot; style=&quot;font-size: 20px;&quot;&gt;⑤ deploy&lt;/font&gt;" style="edgeLabel;html=1;align=center;verticalAlign=middle;resizable=0;points=[];fontSize=20;fontColor=none;rotation=44;" parent="YirdrGe88Po99fejGSwa-45" vertex="1" connectable="0">
          <mxGeometry x="0.5387" y="15" relative="1" as="geometry">
            <mxPoint x="4.36" y="-16.09" as="offset" />
          </mxGeometry>
        </mxCell>
        <mxCell id="YirdrGe88Po99fejGSwa-48" style="edgeStyle=none;orthogonalLoop=1;jettySize=auto;html=1;entryX=0;entryY=0.5;entryDx=0;entryDy=0;strokeColor=#000000;strokeWidth=2;fillColor=#666666;fontSize=14;fontColor=none;" parent="V_q5pNSTOkCM7RH2ri7a-1" source="YirdrGe88Po99fejGSwa-47" target="YirdrGe88Po99fejGSwa-12" edge="1">
          <mxGeometry relative="1" as="geometry" />
        </mxCell>
        <mxCell id="YirdrGe88Po99fejGSwa-47" value="" style="shape=mxgraph.bpmn.shape;html=1;verticalLabelPosition=bottom;labelBackgroundColor=#ffffff;verticalAlign=top;align=center;perimeter=ellipsePerimeter;outlineConnect=0;outline=catching;symbol=message;strokeColor=#000000;strokeWidth=2;fillColor=#ffffff;fontSize=14;fontColor=none;" parent="V_q5pNSTOkCM7RH2ri7a-1" vertex="1">
          <mxGeometry x="195" y="365" width="50" height="50" as="geometry" />
        </mxCell>
      </root>
    </mxGraphModel>
  </diagram>
  <diagram id="FVgPTczJCKgSUaH28XiM" name="Flink On Yarn">
    <mxGraphModel dx="1426" dy="843" grid="1" gridSize="10" guides="1" tooltips="1" connect="1" arrows="1" fold="1" page="1" pageScale="1" pageWidth="827" pageHeight="1169" math="0" shadow="0">
      <root>
        <mxCell id="igTSM0UECc0BLC96e6LT-0" />
        <mxCell id="igTSM0UECc0BLC96e6LT-1" parent="igTSM0UECc0BLC96e6LT-0" />
        <mxCell id="ZeWXkliuhq6bUbbeb1k0-1" style="edgeStyle=orthogonalEdgeStyle;rounded=0;orthogonalLoop=1;jettySize=auto;html=1;" parent="igTSM0UECc0BLC96e6LT-1" source="igTSM0UECc0BLC96e6LT-3" target="ZeWXkliuhq6bUbbeb1k0-0" edge="1">
          <mxGeometry relative="1" as="geometry" />
        </mxCell>
        <mxCell id="oHp37wKMlJ8v7O6UNyDd-1" style="edgeStyle=orthogonalEdgeStyle;rounded=0;orthogonalLoop=1;jettySize=auto;html=1;entryX=0;entryY=0.5;entryDx=0;entryDy=0;" parent="igTSM0UECc0BLC96e6LT-1" source="igTSM0UECc0BLC96e6LT-3" target="oHp37wKMlJ8v7O6UNyDd-0" edge="1">
          <mxGeometry relative="1" as="geometry" />
        </mxCell>
        <mxCell id="czeYcHevgKIMn6YZUQzJ-1" style="edgeStyle=orthogonalEdgeStyle;rounded=0;orthogonalLoop=1;jettySize=auto;html=1;entryX=0;entryY=0.5;entryDx=0;entryDy=0;" edge="1" parent="igTSM0UECc0BLC96e6LT-1" source="igTSM0UECc0BLC96e6LT-3" target="czeYcHevgKIMn6YZUQzJ-0">
          <mxGeometry relative="1" as="geometry" />
        </mxCell>
        <mxCell id="igTSM0UECc0BLC96e6LT-3" value="Client" style="rounded=1;whiteSpace=wrap;html=1;" parent="igTSM0UECc0BLC96e6LT-1" vertex="1">
          <mxGeometry x="110" y="310" width="120" height="60" as="geometry" />
        </mxCell>
        <mxCell id="ZeWXkliuhq6bUbbeb1k0-0" value="Client" style="rounded=1;whiteSpace=wrap;html=1;" parent="igTSM0UECc0BLC96e6LT-1" vertex="1">
          <mxGeometry x="340" y="280" width="120" height="60" as="geometry" />
        </mxCell>
        <mxCell id="oHp37wKMlJ8v7O6UNyDd-0" value="Client" style="rounded=1;whiteSpace=wrap;html=1;" parent="igTSM0UECc0BLC96e6LT-1" vertex="1">
          <mxGeometry x="330" y="440" width="120" height="60" as="geometry" />
        </mxCell>
        <mxCell id="czeYcHevgKIMn6YZUQzJ-0" value="Client" style="rounded=1;whiteSpace=wrap;html=1;" vertex="1" parent="igTSM0UECc0BLC96e6LT-1">
          <mxGeometry x="350" y="120" width="120" height="60" as="geometry" />
        </mxCell>
      </root>
    </mxGraphModel>
  </diagram>
</mxfile>
